<?xml version="1.0" encoding="us-ascii" standalone="no"?><svg xmlns="http://www.w3.org/2000/svg" xmlns:xlink="http://www.w3.org/1999/xlink" contentStyleType="text/css" height="1148px" preserveAspectRatio="none" style="width:965px;height:1148px;background:#FFFFFF;" version="1.1" viewBox="0 0 965 1148" width="965px" zoomAndPan="magnify"><defs/><g><!--cluster com--><g id="cluster_com"><path d="M8.5,6.0137 L38.5,6.0137 A3.75,3.75 0 0 1 41,8.5137 L48,30.6348 L955.5,30.6348 A2.5,2.5 0 0 1 958,33.1348 L958,1138.5137 A2.5,2.5 0 0 1 955.5,1141.0137 L8.5,1141.0137 A2.5,2.5 0 0 1 6,1138.5137 L6,8.5137 A2.5,2.5 0 0 1 8.5,6.0137 " fill="none" style="stroke:#000000;stroke-width:1.5;"/><line style="stroke:#000000;stroke-width:1.5;" x1="6" x2="48" y1="30.6348" y2="30.6348"/><text fill="#000000" font-family="sans-serif" font-size="14" font-weight="bold" lengthAdjust="spacing" textLength="29" x="10" y="23.1211">com</text></g><!--cluster gymbro--><g id="cluster_gymbro"><path d="M32.5,51.0137 L85.5,51.0137 A3.75,3.75 0 0 1 88,53.5137 L95,75.6348 L931.5,75.6348 A2.5,2.5 0 0 1 934,78.1348 L934,1114.5137 A2.5,2.5 0 0 1 931.5,1117.0137 L32.5,1117.0137 A2.5,2.5 0 0 1 30,1114.5137 L30,53.5137 A2.5,2.5 0 0 1 32.5,51.0137 " fill="none" style="stroke:#000000;stroke-width:1.5;"/><line style="stroke:#000000;stroke-width:1.5;" x1="30" x2="95" y1="75.6348" y2="75.6348"/><text fill="#000000" font-family="sans-serif" font-size="14" font-weight="bold" lengthAdjust="spacing" textLength="52" x="34" y="68.1211">gymbro</text></g><!--cluster city--><g id="cluster_city"><path d="M56.5,96.0137 L81.5,96.0137 A3.75,3.75 0 0 1 84,98.5137 L91,120.6348 L907.5,120.6348 A2.5,2.5 0 0 1 910,123.1348 L910,1090.5137 A2.5,2.5 0 0 1 907.5,1093.0137 L56.5,1093.0137 A2.5,2.5 0 0 1 54,1090.5137 L54,98.5137 A2.5,2.5 0 0 1 56.5,96.0137 " fill="none" style="stroke:#000000;stroke-width:1.5;"/><line style="stroke:#000000;stroke-width:1.5;" x1="54" x2="91" y1="120.6348" y2="120.6348"/><text fill="#000000" font-family="sans-serif" font-size="14" font-weight="bold" lengthAdjust="spacing" textLength="24" x="58" y="113.1211">city</text></g><!--cluster factory--><g id="cluster_factory"><path d="M278.5,141.0137 L327.5,141.0137 A3.75,3.75 0 0 1 330,143.5137 L337,165.6348 L691.5,165.6348 A2.5,2.5 0 0 1 694,168.1348 L694,332.5137 A2.5,2.5 0 0 1 691.5,335.0137 L278.5,335.0137 A2.5,2.5 0 0 1 276,332.5137 L276,143.5137 A2.5,2.5 0 0 1 278.5,141.0137 " fill="none" style="stroke:#000000;stroke-width:1.5;"/><line style="stroke:#000000;stroke-width:1.5;" x1="276" x2="337" y1="165.6348" y2="165.6348"/><text fill="#000000" font-family="sans-serif" font-size="14" font-weight="bold" lengthAdjust="spacing" textLength="48" x="280" y="158.1211">factory</text></g><!--cluster builder--><g id="cluster_builder"><path d="M80.5,359.0137 L131.5,359.0137 A3.75,3.75 0 0 1 134,361.5137 L141,383.6348 L507.5,383.6348 A2.5,2.5 0 0 1 510,386.1348 L510,755.5137 A2.5,2.5 0 0 1 507.5,758.0137 L80.5,758.0137 A2.5,2.5 0 0 1 78,755.5137 L78,361.5137 A2.5,2.5 0 0 1 80.5,359.0137 " fill="none" style="stroke:#000000;stroke-width:1.5;"/><line style="stroke:#000000;stroke-width:1.5;" x1="78" x2="141" y1="383.6348" y2="383.6348"/><text fill="#000000" font-family="sans-serif" font-size="14" font-weight="bold" lengthAdjust="spacing" textLength="50" x="82" y="376.1211">builder</text></g><!--cluster model--><g id="cluster_model"><path d="M124.5,782.0137 L168.5,782.0137 A3.75,3.75 0 0 1 171,784.5137 L178,806.6348 L499.5,806.6348 A2.5,2.5 0 0 1 502,809.1348 L502,1066.5137 A2.5,2.5 0 0 1 499.5,1069.0137 L124.5,1069.0137 A2.5,2.5 0 0 1 122,1066.5137 L122,784.5137 A2.5,2.5 0 0 1 124.5,782.0137 " fill="none" style="stroke:#000000;stroke-width:1.5;"/><line style="stroke:#000000;stroke-width:1.5;" x1="122" x2="178" y1="806.6348" y2="806.6348"/><text fill="#000000" font-family="sans-serif" font-size="14" font-weight="bold" lengthAdjust="spacing" textLength="43" x="126" y="799.1211">model</text></g><!--cluster view--><g id="cluster_view"><path d="M565.5,828.5137 L599.5,828.5137 A3.75,3.75 0 0 1 602,831.0137 L609,853.1348 L816.5,853.1348 A2.5,2.5 0 0 1 819,855.6348 L819,1020.0137 A2.5,2.5 0 0 1 816.5,1022.5137 L565.5,1022.5137 A2.5,2.5 0 0 1 563,1020.0137 L563,831.0137 A2.5,2.5 0 0 1 565.5,828.5137 " fill="none" style="stroke:#000000;stroke-width:1.5;"/><line style="stroke:#000000;stroke-width:1.5;" x1="563" x2="609" y1="853.1348" y2="853.1348"/><text fill="#000000" font-family="sans-serif" font-size="14" font-weight="bold" lengthAdjust="spacing" textLength="33" x="567" y="845.6211">view</text></g><!--cluster controller--><g id="cluster_controller"><path d="M536.5,433.5137 L606.5,433.5137 A3.75,3.75 0 0 1 609,436.0137 L616,458.1348 L883.5,458.1348 A2.5,2.5 0 0 1 886,460.6348 L886,681.0137 A2.5,2.5 0 0 1 883.5,683.5137 L536.5,683.5137 A2.5,2.5 0 0 1 534,681.0137 L534,436.0137 A2.5,2.5 0 0 1 536.5,433.5137 " fill="none" style="stroke:#000000;stroke-width:1.5;"/><line style="stroke:#000000;stroke-width:1.5;" x1="534" x2="616" y1="458.1348" y2="458.1348"/><text fill="#000000" font-family="sans-serif" font-size="14" font-weight="bold" lengthAdjust="spacing" textLength="69" x="538" y="450.6211">controller</text></g><!--class GymFactory--><g id="elem_GymFactory"><rect codeLine="1" fill="#F1F1F1" height="141.1055" id="GymFactory" rx="2.5" ry="2.5" style="stroke:#181818;stroke-width:0.5;" width="386" x="292" y="178.0137"/><ellipse cx="442.25" cy="194.0137" fill="#ADD1B2" rx="11" ry="11" style="stroke:#181818;stroke-width:1.0;"/><path d="M445.0156,189.8887 Q445.1719,189.6699 445.3594,189.5605 Q445.5469,189.4512 445.7656,189.4512 Q446.1406,189.4512 446.375,189.7168 Q446.6094,189.9668 446.6094,190.5762 L446.6094,192.0293 Q446.6094,192.6387 446.375,192.9043 Q446.1406,193.1699 445.7656,193.1699 Q445.4219,193.1699 445.2188,192.9668 Q445.0156,192.7793 444.9063,192.2637 Q444.8594,191.9043 444.6719,191.7168 Q444.3438,191.3418 443.7344,191.123 Q443.125,190.9043 442.5,190.9043 Q441.7344,190.9043 441.0938,191.2324 Q440.4688,191.5605 439.9688,192.3105 Q439.4844,193.0605 439.4844,194.0918 L439.4844,195.1855 Q439.4844,196.4199 440.375,197.248 Q441.2656,198.0605 442.8594,198.0605 Q443.7969,198.0605 444.4531,197.8105 Q444.8438,197.6543 445.2656,197.2168 Q445.5313,196.9512 445.6719,196.873 Q445.8281,196.7949 446.0313,196.7949 Q446.3594,196.7949 446.6094,197.0605 Q446.875,197.3105 446.875,197.6543 Q446.875,197.998 446.5313,198.4043 Q446.0313,198.9824 445.2344,199.3105 Q444.1563,199.7637 442.8594,199.7637 Q441.3438,199.7637 440.1406,199.1387 Q439.1563,198.6387 438.4688,197.5762 Q437.7813,196.498 437.7813,195.2168 L437.7813,194.0605 Q437.7813,192.7324 438.3906,191.5918 Q439.0156,190.4355 440.1094,189.8262 Q441.2031,189.2012 442.4375,189.2012 Q443.1719,189.2012 443.8125,189.373 Q444.4688,189.5293 445.0156,189.8887 Z " fill="#000000"/><text fill="#000000" font-family="sans-serif" font-size="14" lengthAdjust="spacing" textLength="77" x="462.75" y="199.8105">GymFactory</text><line style="stroke:#181818;stroke-width:0.5;" x1="293" x2="677" y1="210.0137" y2="210.0137"/><line style="stroke:#181818;stroke-width:0.5;" x1="293" x2="677" y1="218.0137" y2="218.0137"/><ellipse cx="303" cy="232.8242" fill="#84BE84" rx="3" ry="3" style="stroke:#038048;stroke-width:1.0;"/><text fill="#000000" font-family="sans-serif" font-size="14" lengthAdjust="spacing" textLength="150" x="312" y="237.1211">&#171;Create&#187; GymFactory()</text><ellipse cx="303" cy="251.4453" fill="#84BE84" rx="3" ry="3" style="stroke:#038048;stroke-width:1.0;"/><text fill="#000000" font-family="sans-serif" font-size="14" lengthAdjust="spacing" textLength="347" x="312" y="255.7422">GymController createLifeGymGym(Places,Integer,URL)</text><ellipse cx="303" cy="270.0664" fill="#84BE84" rx="3" ry="3" style="stroke:#038048;stroke-width:1.0;"/><text fill="#000000" font-family="sans-serif" font-size="14" lengthAdjust="spacing" textLength="330" x="312" y="274.3633">GymController createFitinnGym(Places,Integer,URL)</text><ellipse cx="303" cy="288.6875" fill="#84BE84" rx="3" ry="3" style="stroke:#038048;stroke-width:1.0;"/><text fill="#000000" font-family="sans-serif" font-size="14" lengthAdjust="spacing" textLength="336" x="312" y="292.9844">GymController createGolemGym(Places,Integer,URL)</text><ellipse cx="303" cy="307.3086" fill="#84BE84" rx="3" ry="3" style="stroke:#038048;stroke-width:1.0;"/><text fill="#000000" font-family="sans-serif" font-size="14" lengthAdjust="spacing" textLength="360" x="312" y="311.6055">GymController createNobelGymGym(Places,Integer,URL)</text></g><!--class GymBuilder--><g id="elem_GymBuilder"><rect codeLine="8" fill="#F1F1F1" height="345.9375" id="GymBuilder" rx="2.5" ry="2.5" style="stroke:#181818;stroke-width:0.5;" width="399" x="94.5" y="396.0137"/><ellipse cx="253.25" cy="412.0137" fill="#ADD1B2" rx="11" ry="11" style="stroke:#181818;stroke-width:1.0;"/><path d="M256.0156,407.8887 Q256.1719,407.6699 256.3594,407.5605 Q256.5469,407.4512 256.7656,407.4512 Q257.1406,407.4512 257.375,407.7168 Q257.6094,407.9668 257.6094,408.5762 L257.6094,410.0293 Q257.6094,410.6387 257.375,410.9043 Q257.1406,411.1699 256.7656,411.1699 Q256.4219,411.1699 256.2188,410.9668 Q256.0156,410.7793 255.9063,410.2637 Q255.8594,409.9043 255.6719,409.7168 Q255.3438,409.3418 254.7344,409.123 Q254.125,408.9043 253.5,408.9043 Q252.7344,408.9043 252.0938,409.2324 Q251.4688,409.5605 250.9688,410.3105 Q250.4844,411.0605 250.4844,412.0918 L250.4844,413.1855 Q250.4844,414.4199 251.375,415.248 Q252.2656,416.0605 253.8594,416.0605 Q254.7969,416.0605 255.4531,415.8105 Q255.8438,415.6543 256.2656,415.2168 Q256.5313,414.9512 256.6719,414.873 Q256.8281,414.7949 257.0313,414.7949 Q257.3594,414.7949 257.6094,415.0605 Q257.875,415.3105 257.875,415.6543 Q257.875,415.998 257.5313,416.4043 Q257.0313,416.9824 256.2344,417.3105 Q255.1563,417.7637 253.8594,417.7637 Q252.3438,417.7637 251.1406,417.1387 Q250.1563,416.6387 249.4688,415.5762 Q248.7813,414.498 248.7813,413.2168 L248.7813,412.0605 Q248.7813,410.7324 249.3906,409.5918 Q250.0156,408.4355 251.1094,407.8262 Q252.2031,407.2012 253.4375,407.2012 Q254.1719,407.2012 254.8125,407.373 Q255.4688,407.5293 256.0156,407.8887 Z " fill="#000000"/><text fill="#000000" font-family="sans-serif" font-size="14" lengthAdjust="spacing" textLength="73" x="273.75" y="417.8105">GymBuilder</text><line style="stroke:#181818;stroke-width:0.5;" x1="95.5" x2="492.5" y1="428.0137" y2="428.0137"/><line style="stroke:#181818;stroke-width:0.5;" x1="95.5" x2="492.5" y1="436.0137" y2="436.0137"/><ellipse cx="105.5" cy="450.8242" fill="#84BE84" rx="3" ry="3" style="stroke:#038048;stroke-width:1.0;"/><text fill="#000000" font-family="sans-serif" font-size="14" lengthAdjust="spacing" textLength="146" x="114.5" y="455.1211">&#171;Create&#187; GymBuilder()</text><ellipse cx="105.5" cy="469.4453" fill="#84BE84" rx="3" ry="3" style="stroke:#038048;stroke-width:1.0;"/><text fill="#000000" font-family="sans-serif" font-size="14" lengthAdjust="spacing" textLength="213" x="114.5" y="473.7422">&#171;Create&#187; GymBuilder(GymModel)</text><ellipse cx="105.5" cy="488.0664" fill="#84BE84" rx="3" ry="3" style="stroke:#038048;stroke-width:1.0;"/><text fill="#000000" font-family="sans-serif" font-size="14" lengthAdjust="spacing" textLength="373" x="114.5" y="492.3633">GymBuilder addPropertiesMenu(PropertiesMenuController)</text><ellipse cx="105.5" cy="506.6875" fill="#84BE84" rx="3" ry="3" style="stroke:#038048;stroke-width:1.0;"/><text fill="#000000" font-family="sans-serif" font-size="14" lengthAdjust="spacing" textLength="178" x="114.5" y="510.9844">GymBuilder makeClickable()</text><ellipse cx="105.5" cy="525.3086" fill="#84BE84" rx="3" ry="3" style="stroke:#038048;stroke-width:1.0;"/><text fill="#000000" font-family="sans-serif" font-size="14" lengthAdjust="spacing" textLength="185" x="114.5" y="529.6055">GymBuilder makeHoverable()</text><ellipse cx="105.5" cy="543.9297" fill="#84BE84" rx="3" ry="3" style="stroke:#038048;stroke-width:1.0;"/><text fill="#000000" font-family="sans-serif" font-size="14" lengthAdjust="spacing" textLength="186" x="114.5" y="548.2266">GymBuilder makeInteractive()</text><ellipse cx="105.5" cy="562.5508" fill="#84BE84" rx="3" ry="3" style="stroke:#038048;stroke-width:1.0;"/><text fill="#000000" font-family="sans-serif" font-size="14" lengthAdjust="spacing" textLength="135" x="114.5" y="566.8477">GymController build()</text><ellipse cx="105.5" cy="581.1719" fill="#84BE84" rx="3" ry="3" style="stroke:#038048;stroke-width:1.0;"/><text fill="#000000" font-family="sans-serif" font-size="14" lengthAdjust="spacing" textLength="235" x="114.5" y="585.4688">GymBuilder addController(Controller)</text><ellipse cx="105.5" cy="599.793" fill="#84BE84" rx="3" ry="3" style="stroke:#038048;stroke-width:1.0;"/><text fill="#000000" font-family="sans-serif" font-size="14" lengthAdjust="spacing" textLength="187" x="114.5" y="604.0898">GymBuilder addModel(Model)</text><ellipse cx="105.5" cy="618.4141" fill="#84BE84" rx="3" ry="3" style="stroke:#038048;stroke-width:1.0;"/><text fill="#000000" font-family="sans-serif" font-size="14" lengthAdjust="spacing" textLength="169" x="114.5" y="622.7109">GymBuilder addView(View)</text><ellipse cx="105.5" cy="637.0352" fill="#84BE84" rx="3" ry="3" style="stroke:#038048;stroke-width:1.0;"/><text fill="#000000" font-family="sans-serif" font-size="14" lengthAdjust="spacing" textLength="241" x="114.5" y="641.332">GymBuilder addTransform(Transform)</text><ellipse cx="105.5" cy="655.6563" fill="#84BE84" rx="3" ry="3" style="stroke:#038048;stroke-width:1.0;"/><text fill="#000000" font-family="sans-serif" font-size="14" lengthAdjust="spacing" textLength="197" x="114.5" y="659.9531">GymBuilder addTexture(Image)</text><ellipse cx="105.5" cy="674.2773" fill="#84BE84" rx="3" ry="3" style="stroke:#038048;stroke-width:1.0;"/><text fill="#000000" font-family="sans-serif" font-size="14" lengthAdjust="spacing" textLength="196" x="114.5" y="678.5742">GymBuilder addTexture(String)</text><ellipse cx="105.5" cy="692.8984" fill="#84BE84" rx="3" ry="3" style="stroke:#038048;stroke-width:1.0;"/><text fill="#000000" font-family="sans-serif" font-size="14" lengthAdjust="spacing" textLength="187" x="114.5" y="697.1953">GymController getController()</text><ellipse cx="105.5" cy="711.5195" fill="#84BE84" rx="3" ry="3" style="stroke:#038048;stroke-width:1.0;"/><text fill="#000000" font-family="sans-serif" font-size="14" lengthAdjust="spacing" textLength="139" x="114.5" y="715.8164">GymModel getModel()</text><ellipse cx="105.5" cy="730.1406" fill="#84BE84" rx="3" ry="3" style="stroke:#038048;stroke-width:1.0;"/><text fill="#000000" font-family="sans-serif" font-size="14" lengthAdjust="spacing" textLength="121" x="114.5" y="734.4375">GymView getView()</text></g><!--class GymModel--><g id="elem_GymModel"><rect codeLine="28" fill="#F1F1F1" height="234.2109" id="GymModel" rx="2.5" ry="2.5" style="stroke:#181818;stroke-width:0.5;" width="347" x="138.5" y="819.0137"/><ellipse cx="274.25" cy="835.0137" fill="#ADD1B2" rx="11" ry="11" style="stroke:#181818;stroke-width:1.0;"/><path d="M277.0156,830.8887 Q277.1719,830.6699 277.3594,830.5605 Q277.5469,830.4512 277.7656,830.4512 Q278.1406,830.4512 278.375,830.7168 Q278.6094,830.9668 278.6094,831.5762 L278.6094,833.0293 Q278.6094,833.6387 278.375,833.9043 Q278.1406,834.1699 277.7656,834.1699 Q277.4219,834.1699 277.2188,833.9668 Q277.0156,833.7793 276.9063,833.2637 Q276.8594,832.9043 276.6719,832.7168 Q276.3438,832.3418 275.7344,832.123 Q275.125,831.9043 274.5,831.9043 Q273.7344,831.9043 273.0938,832.2324 Q272.4688,832.5605 271.9688,833.3105 Q271.4844,834.0605 271.4844,835.0918 L271.4844,836.1855 Q271.4844,837.4199 272.375,838.248 Q273.2656,839.0605 274.8594,839.0605 Q275.7969,839.0605 276.4531,838.8105 Q276.8438,838.6543 277.2656,838.2168 Q277.5313,837.9512 277.6719,837.873 Q277.8281,837.7949 278.0313,837.7949 Q278.3594,837.7949 278.6094,838.0605 Q278.875,838.3105 278.875,838.6543 Q278.875,838.998 278.5313,839.4043 Q278.0313,839.9824 277.2344,840.3105 Q276.1563,840.7637 274.8594,840.7637 Q273.3438,840.7637 272.1406,840.1387 Q271.1563,839.6387 270.4688,838.5762 Q269.7813,837.498 269.7813,836.2168 L269.7813,835.0605 Q269.7813,833.7324 270.3906,832.5918 Q271.0156,831.4355 272.1094,830.8262 Q273.2031,830.2012 274.4375,830.2012 Q275.1719,830.2012 275.8125,830.373 Q276.4688,830.5293 277.0156,830.8887 Z " fill="#000000"/><text fill="#000000" font-family="sans-serif" font-size="14" lengthAdjust="spacing" textLength="67" x="294.75" y="840.8105">GymModel</text><line style="stroke:#181818;stroke-width:0.5;" x1="139.5" x2="484.5" y1="851.0137" y2="851.0137"/><rect fill="none" height="6" style="stroke:#C82930;stroke-width:1.0;" width="6" x="146.5" y="862.8242"/><text fill="#000000" font-family="sans-serif" font-size="14" lengthAdjust="spacing" textLength="265" x="158.5" y="870.1211">PropertiesMenuController propertiesMenu</text><line style="stroke:#181818;stroke-width:0.5;" x1="139.5" x2="484.5" y1="877.6348" y2="877.6348"/><ellipse cx="149.5" cy="892.4453" fill="#84BE84" rx="3" ry="3" style="stroke:#038048;stroke-width:1.0;"/><text fill="#000000" font-family="sans-serif" font-size="14" lengthAdjust="spacing" textLength="140" x="158.5" y="896.7422">&#171;Create&#187; GymModel()</text><ellipse cx="149.5" cy="911.0664" fill="#84BE84" rx="3" ry="3" style="stroke:#038048;stroke-width:1.0;"/><text fill="#000000" font-family="sans-serif" font-size="14" lengthAdjust="spacing" textLength="247" x="158.5" y="915.3633">&#171;Create&#187; GymModel(Transform,Image)</text><ellipse cx="149.5" cy="929.6875" fill="#84BE84" rx="3" ry="3" style="stroke:#038048;stroke-width:1.0;"/><text fill="#000000" font-family="sans-serif" font-size="14" lengthAdjust="spacing" textLength="265" x="158.5" y="933.9844">&#171;Create&#187; GymModel(Transform,int,String)</text><ellipse cx="149.5" cy="948.3086" fill="#84BE84" rx="3" ry="3" style="stroke:#038048;stroke-width:1.0;"/><text fill="#000000" font-family="sans-serif" font-size="14" lengthAdjust="spacing" textLength="117" x="158.5" y="952.6055">String serialize(int)</text><ellipse cx="149.5" cy="966.9297" fill="#84BE84" rx="3" ry="3" style="stroke:#038048;stroke-width:1.0;"/><text fill="#000000" font-family="sans-serif" font-size="14" lengthAdjust="spacing" text-decoration="underline" textLength="135" x="158.5" y="971.2266">Property deserialize()</text><ellipse cx="149.5" cy="985.5508" fill="#84BE84" rx="3" ry="3" style="stroke:#038048;stroke-width:1.0;"/><text fill="#000000" font-family="sans-serif" font-size="14" lengthAdjust="spacing" textLength="296" x="158.5" y="989.8477">PropertiesMenuController getPropertiesMenu()</text><ellipse cx="149.5" cy="1004.1719" fill="#84BE84" rx="3" ry="3" style="stroke:#038048;stroke-width:1.0;"/><text fill="#000000" font-family="sans-serif" font-size="14" lengthAdjust="spacing" textLength="321" x="158.5" y="1008.4688">void setPropertiesMenu(PropertiesMenuController)</text><ellipse cx="149.5" cy="1022.793" fill="#84BE84" rx="3" ry="3" style="stroke:#038048;stroke-width:1.0;"/><text fill="#000000" font-family="sans-serif" font-size="14" lengthAdjust="spacing" textLength="148" x="158.5" y="1027.0898">boolean equals(Object)</text><ellipse cx="149.5" cy="1041.4141" fill="#84BE84" rx="3" ry="3" style="stroke:#038048;stroke-width:1.0;"/><text fill="#000000" font-family="sans-serif" font-size="14" lengthAdjust="spacing" textLength="94" x="158.5" y="1045.7109">int hashCode()</text></g><!--class GymView--><g id="elem_GymView"><rect codeLine="40" fill="#F1F1F1" height="141.1055" id="GymView" rx="2.5" ry="2.5" style="stroke:#181818;stroke-width:0.5;" width="224" x="579" y="865.5137"/><ellipse cx="657.75" cy="881.5137" fill="#ADD1B2" rx="11" ry="11" style="stroke:#181818;stroke-width:1.0;"/><path d="M660.5156,877.3887 Q660.6719,877.1699 660.8594,877.0605 Q661.0469,876.9512 661.2656,876.9512 Q661.6406,876.9512 661.875,877.2168 Q662.1094,877.4668 662.1094,878.0762 L662.1094,879.5293 Q662.1094,880.1387 661.875,880.4043 Q661.6406,880.6699 661.2656,880.6699 Q660.9219,880.6699 660.7188,880.4668 Q660.5156,880.2793 660.4063,879.7637 Q660.3594,879.4043 660.1719,879.2168 Q659.8438,878.8418 659.2344,878.623 Q658.625,878.4043 658,878.4043 Q657.2344,878.4043 656.5938,878.7324 Q655.9688,879.0605 655.4688,879.8105 Q654.9844,880.5605 654.9844,881.5918 L654.9844,882.6855 Q654.9844,883.9199 655.875,884.748 Q656.7656,885.5605 658.3594,885.5605 Q659.2969,885.5605 659.9531,885.3105 Q660.3438,885.1543 660.7656,884.7168 Q661.0313,884.4512 661.1719,884.373 Q661.3281,884.2949 661.5313,884.2949 Q661.8594,884.2949 662.1094,884.5605 Q662.375,884.8105 662.375,885.1543 Q662.375,885.498 662.0313,885.9043 Q661.5313,886.4824 660.7344,886.8105 Q659.6563,887.2637 658.3594,887.2637 Q656.8438,887.2637 655.6406,886.6387 Q654.6563,886.1387 653.9688,885.0762 Q653.2813,883.998 653.2813,882.7168 L653.2813,881.5605 Q653.2813,880.2324 653.8906,879.0918 Q654.5156,877.9355 655.6094,877.3262 Q656.7031,876.7012 657.9375,876.7012 Q658.6719,876.7012 659.3125,876.873 Q659.9688,877.0293 660.5156,877.3887 Z " fill="#000000"/><text fill="#000000" font-family="sans-serif" font-size="14" lengthAdjust="spacing" textLength="58" x="678.25" y="887.3105">GymView</text><line style="stroke:#181818;stroke-width:0.5;" x1="580" x2="802" y1="897.5137" y2="897.5137"/><line style="stroke:#181818;stroke-width:0.5;" x1="580" x2="802" y1="905.5137" y2="905.5137"/><ellipse cx="590" cy="920.3242" fill="#84BE84" rx="3" ry="3" style="stroke:#038048;stroke-width:1.0;"/><text fill="#000000" font-family="sans-serif" font-size="14" lengthAdjust="spacing" textLength="131" x="599" y="924.6211">&#171;Create&#187; GymView()</text><ellipse cx="590" cy="938.9453" fill="#84BE84" rx="3" ry="3" style="stroke:#038048;stroke-width:1.0;"/><text fill="#000000" font-family="sans-serif" font-size="14" lengthAdjust="spacing" textLength="198" x="599" y="943.2422">&#171;Create&#187; GymView(GymModel)</text><ellipse cx="590" cy="957.5664" fill="#84BE84" rx="3" ry="3" style="stroke:#038048;stroke-width:1.0;"/><text fill="#000000" font-family="sans-serif" font-size="14" lengthAdjust="spacing" textLength="84" x="599" y="961.8633">void zoomIn()</text><ellipse cx="590" cy="976.1875" fill="#84BE84" rx="3" ry="3" style="stroke:#038048;stroke-width:1.0;"/><text fill="#000000" font-family="sans-serif" font-size="14" lengthAdjust="spacing" textLength="96" x="599" y="980.4844">void zoomOut()</text><ellipse cx="590" cy="994.8086" fill="#84BE84" rx="3" ry="3" style="stroke:#038048;stroke-width:1.0;"/><text fill="#000000" font-family="sans-serif" font-size="14" lengthAdjust="spacing" textLength="137" x="599" y="999.1055">void showProperties()</text></g><!--class GymController--><g id="elem_GymController"><rect codeLine="47" fill="#F1F1F1" height="196.9688" id="GymController" rx="2.5" ry="2.5" style="stroke:#181818;stroke-width:0.5;" width="319" x="550.5" y="470.5137"/><ellipse cx="660.25" cy="486.5137" fill="#ADD1B2" rx="11" ry="11" style="stroke:#181818;stroke-width:1.0;"/><path d="M663.0156,482.3887 Q663.1719,482.1699 663.3594,482.0605 Q663.5469,481.9512 663.7656,481.9512 Q664.1406,481.9512 664.375,482.2168 Q664.6094,482.4668 664.6094,483.0762 L664.6094,484.5293 Q664.6094,485.1387 664.375,485.4043 Q664.1406,485.6699 663.7656,485.6699 Q663.4219,485.6699 663.2188,485.4668 Q663.0156,485.2793 662.9063,484.7637 Q662.8594,484.4043 662.6719,484.2168 Q662.3438,483.8418 661.7344,483.623 Q661.125,483.4043 660.5,483.4043 Q659.7344,483.4043 659.0938,483.7324 Q658.4688,484.0605 657.9688,484.8105 Q657.4844,485.5605 657.4844,486.5918 L657.4844,487.6855 Q657.4844,488.9199 658.375,489.748 Q659.2656,490.5605 660.8594,490.5605 Q661.7969,490.5605 662.4531,490.3105 Q662.8438,490.1543 663.2656,489.7168 Q663.5313,489.4512 663.6719,489.373 Q663.8281,489.2949 664.0313,489.2949 Q664.3594,489.2949 664.6094,489.5605 Q664.875,489.8105 664.875,490.1543 Q664.875,490.498 664.5313,490.9043 Q664.0313,491.4824 663.2344,491.8105 Q662.1563,492.2637 660.8594,492.2637 Q659.3438,492.2637 658.1406,491.6387 Q657.1563,491.1387 656.4688,490.0762 Q655.7813,488.998 655.7813,487.7168 L655.7813,486.5605 Q655.7813,485.2324 656.3906,484.0918 Q657.0156,482.9355 658.1094,482.3262 Q659.2031,481.7012 660.4375,481.7012 Q661.1719,481.7012 661.8125,481.873 Q662.4688,482.0293 663.0156,482.3887 Z " fill="#000000"/><text fill="#000000" font-family="sans-serif" font-size="14" lengthAdjust="spacing" textLength="91" x="680.75" y="492.3105">GymController</text><line style="stroke:#181818;stroke-width:0.5;" x1="551.5" x2="868.5" y1="502.5137" y2="502.5137"/><line style="stroke:#181818;stroke-width:0.5;" x1="551.5" x2="868.5" y1="510.5137" y2="510.5137"/><ellipse cx="561.5" cy="525.3242" fill="#84BE84" rx="3" ry="3" style="stroke:#038048;stroke-width:1.0;"/><text fill="#000000" font-family="sans-serif" font-size="14" lengthAdjust="spacing" textLength="231" x="570.5" y="529.6211">&#171;Create&#187; GymController(GymModel)</text><ellipse cx="561.5" cy="543.9453" fill="#84BE84" rx="3" ry="3" style="stroke:#038048;stroke-width:1.0;"/><text fill="#000000" font-family="sans-serif" font-size="14" lengthAdjust="spacing" textLength="293" x="570.5" y="548.2422">&#171;Create&#187; GymController(GymModel,GymView)</text><ellipse cx="561.5" cy="562.5664" fill="#84BE84" rx="3" ry="3" style="stroke:#038048;stroke-width:1.0;"/><text fill="#000000" font-family="sans-serif" font-size="14" lengthAdjust="spacing" textLength="131" x="570.5" y="566.8633">void makeClickable()</text><ellipse cx="561.5" cy="581.1875" fill="#84BE84" rx="3" ry="3" style="stroke:#038048;stroke-width:1.0;"/><text fill="#000000" font-family="sans-serif" font-size="14" lengthAdjust="spacing" textLength="138" x="570.5" y="585.4844">void makeHoverable()</text><ellipse cx="561.5" cy="599.8086" fill="#84BE84" rx="3" ry="3" style="stroke:#038048;stroke-width:1.0;"/><text fill="#000000" font-family="sans-serif" font-size="14" lengthAdjust="spacing" textLength="139" x="570.5" y="604.1055">void makeInteractive()</text><rect fill="#F24D5C" height="6" style="stroke:#C82930;stroke-width:1.0;" width="6" x="558.5" y="615.4297"/><text fill="#000000" font-family="sans-serif" font-size="14" lengthAdjust="spacing" textLength="191" x="570.5" y="622.7266">void handleClick(MouseEvent)</text><rect fill="#F24D5C" height="6" style="stroke:#C82930;stroke-width:1.0;" width="6" x="558.5" y="634.0508"/><text fill="#000000" font-family="sans-serif" font-size="14" lengthAdjust="spacing" textLength="228" x="570.5" y="641.3477">void handleStartHover(MouseEvent)</text><rect fill="#F24D5C" height="6" style="stroke:#C82930;stroke-width:1.0;" width="6" x="558.5" y="652.6719"/><text fill="#000000" font-family="sans-serif" font-size="14" lengthAdjust="spacing" textLength="223" x="570.5" y="659.9688">void handleEndHover(MouseEvent)</text></g><!--reverse link GymController to GymView--><g id="link_GymController_GymView"><path codeLine="58" d="M704.23,680.8237 C701.11,740.8437 697.34,813.1537 694.63,865.2837 " fill="none" id="GymController-backto-GymView" style="stroke:#181818;stroke-width:1.0;"/><polygon fill="none" points="704.91,667.8237,700.6055,673.6091,704.2904,679.8077,708.5948,674.0222,704.91,667.8237" style="stroke:#181818;stroke-width:1.0;"/></g><!--reverse link GymController to GymModel--><g id="link_GymController_GymModel"><path codeLine="59" d="M603.54,677.0037 C573.67,706.2837 540.91,737.7337 510,766.0137 C490.99,783.4037 470.63,801.4237 450.47,818.9337 " fill="none" id="GymController-backto-GymModel" style="stroke:#181818;stroke-width:1.0;"/><polygon fill="none" points="613.13,667.5837,606.0471,668.9374,604.5725,675.9961,611.6554,674.6424,613.13,667.5837" style="stroke:#181818;stroke-width:1.0;"/></g><!--reverse link GymBuilder to GymModel--><g id="link_GymBuilder_GymModel"><path codeLine="61" d="M303.13,755.2337 C304.2,776.9337 305.27,798.5837 306.28,818.9637 " fill="none" id="GymBuilder-backto-GymModel" style="stroke:#181818;stroke-width:1.0;"/><polygon fill="#181818" points="302.49,742.0937,298.7916,748.2841,303.0833,754.079,306.7818,747.8886,302.49,742.0937" style="stroke:#181818;stroke-width:1.0;"/></g><!--reverse link GymBuilder to GymView--><g id="link_GymBuilder_GymView"><path codeLine="62" d="M490.9,751.0437 C535.14,791.7137 579.49,832.4937 615.15,865.2837 " fill="none" id="GymBuilder-backto-GymView" style="stroke:#181818;stroke-width:1.0;"/><polygon fill="#181818" points="481.17,742.0937,482.8853,749.0978,490.0104,750.2083,488.2951,743.2042,481.17,742.0937" style="stroke:#181818;stroke-width:1.0;"/></g><!--reverse link GymBuilder to GymController--><g id="link_GymBuilder_GymController"><path codeLine="63" d="M507.13,569.0137 C521.57,569.0137 536,569.0137 550.44,569.0137 " fill="none" id="GymBuilder-backto-GymController" style="stroke:#181818;stroke-width:1.0;"/><polygon fill="#181818" points="493.88,569.0137,499.8844,573.0071,505.88,569.0005,499.8756,565.0071,493.88,569.0137" style="stroke:#181818;stroke-width:1.0;"/></g><!--reverse link GymController to GymBuilder--><g id="link_GymController_GymBuilder"><path codeLine="68" d="M530.11,569.0137 C518.03,569.0137 505.95,569.0137 493.88,569.0137 " fill="none" id="GymController-backto-GymBuilder" style="stroke:#181818;stroke-width:1.0;stroke-dasharray:7.0,7.0;"/><polygon fill="none" points="530.44,562.0137,550.44,569.0137,530.44,576.0137,530.44,562.0137" style="stroke:#181818;stroke-width:1.0;"/></g><!--reverse link GymFactory to GymBuilder--><g id="link_GymFactory_GymBuilder"><path codeLine="65" d="M436.54,330.3237 C424.41,350.5437 410.94,373.0137 397.25,395.8337 " fill="none" id="GymFactory-backto-GymBuilder" style="stroke:#181818;stroke-width:1.0;"/><polygon fill="#181818" points="443.32,319.0137,436.8048,322.1043,437.1519,329.3071,443.6671,326.2164,443.32,319.0137" style="stroke:#181818;stroke-width:1.0;"/></g><!--reverse link GymFactory to GymController--><g id="link_GymFactory_GymController"><path codeLine="66" d="M541.6,329.6437 C571.76,372.3237 609.1,425.1837 640.95,470.2637 " fill="none" id="GymFactory-backto-GymController" style="stroke:#181818;stroke-width:1.0;"/><polygon fill="#181818" points="534.1,319.0137,534.2911,326.2222,541.0186,328.8184,540.8276,321.6098,534.1,319.0137" style="stroke:#181818;stroke-width:1.0;"/></g><!--SRC=[fLNRSjiW47ttL_18MrbVuCb3FKdgcTocQVkEq5gcGP0Wf5Hny-y5ITObW6AdCnuFx5cMS_Q2A2T5WQZCuwpE4oLZodGTRmdLKjNnPPrVj4kqNtn1gzLQ0T5mTeO617yoYDckfT1ASWuAqSRhYct1sCqFtt52eOWsGaC6Alhv_Ifqw89f9iHfPoubXnElkP49y1bohmlgJKnICfw2iedvsYuzYUcG9Z5-n2olPGgyetS8HTBqJib7K9f1SGsYnDFj8EFDmPmym9ep-a0I3jW3VfCLg11ebIjJJ5Q1fvYDPEmo7Lnma9TnQtJYWDfV39wn_NEX7ug8OYjLZlkLnmd-w581tkGaWp1yhnKJcIij0prIqU4DLGkrp3kh9McD3MFR7uj0X-JsLDp7sI-MA5H4z3W1d6uP2FZiVLgYNlsy6nCw6ZBHhb01YX7ENW0RsDhtXIQQqTS3wngbC3XPZw0SavutxMlTAybISuq-eRCJQIQQ20HF9U45lar-0st86OveHuhTsaZ3uIcjJ97YGz7S-Ungw3MF9xDX_Y9blX5uihyjzKZQJZuFOcPOqLvZF6r3b-6eAyU4tdMAEXazEVTXwCtJ9w4tJn-3PGliY4Xv6yYCSbd0UGMsNIRmlIPADr73FkSYTJtCC1sTAxbSpfRx_o9DXzUbvNd-FxyVveDHPcKT6IEatfNc-UJx0hhtVZJIyTI29LpzZUCZ6Fu3]--></g></svg>