<?xml version="1.0" encoding="us-ascii" standalone="no"?><svg xmlns="http://www.w3.org/2000/svg" xmlns:xlink="http://www.w3.org/1999/xlink" contentStyleType="text/css" height="1118px" preserveAspectRatio="none" style="width:1868px;height:1118px;background:#FFFFFF;" version="1.1" viewBox="0 0 1868 1118" width="1868px" zoomAndPan="magnify"><defs/><g><!--cluster com--><g id="cluster_com"><path d="M8.5,6.0137 L38.5,6.0137 A3.75,3.75 0 0 1 41,8.5137 L48,30.6348 L1858.5,30.6348 A2.5,2.5 0 0 1 1861,33.1348 L1861,1108.5137 A2.5,2.5 0 0 1 1858.5,1111.0137 L8.5,1111.0137 A2.5,2.5 0 0 1 6,1108.5137 L6,8.5137 A2.5,2.5 0 0 1 8.5,6.0137 " fill="none" style="stroke:#000000;stroke-width:1.5;"/><line style="stroke:#000000;stroke-width:1.5;" x1="6" x2="48" y1="30.6348" y2="30.6348"/><text fill="#000000" font-family="sans-serif" font-size="14" font-weight="bold" lengthAdjust="spacing" textLength="29" x="10" y="23.1211">com</text></g><!--cluster gymbro--><g id="cluster_gymbro"><path d="M32.5,51.0137 L85.5,51.0137 A3.75,3.75 0 0 1 88,53.5137 L95,75.6348 L1834.5,75.6348 A2.5,2.5 0 0 1 1837,78.1348 L1837,1084.5137 A2.5,2.5 0 0 1 1834.5,1087.0137 L32.5,1087.0137 A2.5,2.5 0 0 1 30,1084.5137 L30,53.5137 A2.5,2.5 0 0 1 32.5,51.0137 " fill="none" style="stroke:#000000;stroke-width:1.5;"/><line style="stroke:#000000;stroke-width:1.5;" x1="30" x2="95" y1="75.6348" y2="75.6348"/><text fill="#000000" font-family="sans-serif" font-size="14" font-weight="bold" lengthAdjust="spacing" textLength="52" x="34" y="68.1211">gymbro</text></g><!--cluster city--><g id="cluster_city"><path d="M56.5,96.0137 L81.5,96.0137 A3.75,3.75 0 0 1 84,98.5137 L91,120.6348 L1810.5,120.6348 A2.5,2.5 0 0 1 1813,123.1348 L1813,1060.5137 A2.5,2.5 0 0 1 1810.5,1063.0137 L56.5,1063.0137 A2.5,2.5 0 0 1 54,1060.5137 L54,98.5137 A2.5,2.5 0 0 1 56.5,96.0137 " fill="none" style="stroke:#000000;stroke-width:1.5;"/><line style="stroke:#000000;stroke-width:1.5;" x1="54" x2="91" y1="120.6348" y2="120.6348"/><text fill="#000000" font-family="sans-serif" font-size="14" font-weight="bold" lengthAdjust="spacing" textLength="24" x="58" y="113.1211">city</text></g><!--cluster controller--><g id="cluster_controller"><path d="M80.5,141.0137 L150.5,141.0137 A3.75,3.75 0 0 1 153,143.5137 L160,165.6348 L1786.5,165.6348 A2.5,2.5 0 0 1 1789,168.1348 L1789,1036.5137 A2.5,2.5 0 0 1 1786.5,1039.0137 L80.5,1039.0137 A2.5,2.5 0 0 1 78,1036.5137 L78,143.5137 A2.5,2.5 0 0 1 80.5,141.0137 " fill="none" style="stroke:#000000;stroke-width:1.5;"/><line style="stroke:#000000;stroke-width:1.5;" x1="78" x2="160" y1="165.6348" y2="165.6348"/><text fill="#000000" font-family="sans-serif" font-size="14" font-weight="bold" lengthAdjust="spacing" textLength="69" x="82" y="158.1211">controller</text></g><!--class MapController--><g id="elem_MapController"><rect codeLine="1" fill="#F1F1F1" height="141.1055" id="MapController" rx="2.5" ry="2.5" style="stroke:#181818;stroke-width:0.5;" width="313" x="94.5" y="854.0137"/><ellipse cx="202.25" cy="870.0137" fill="#ADD1B2" rx="11" ry="11" style="stroke:#181818;stroke-width:1.0;"/><path d="M205.0156,865.8887 Q205.1719,865.6699 205.3594,865.5605 Q205.5469,865.4512 205.7656,865.4512 Q206.1406,865.4512 206.375,865.7168 Q206.6094,865.9668 206.6094,866.5762 L206.6094,868.0293 Q206.6094,868.6387 206.375,868.9043 Q206.1406,869.1699 205.7656,869.1699 Q205.4219,869.1699 205.2188,868.9668 Q205.0156,868.7793 204.9063,868.2637 Q204.8594,867.9043 204.6719,867.7168 Q204.3438,867.3418 203.7344,867.123 Q203.125,866.9043 202.5,866.9043 Q201.7344,866.9043 201.0938,867.2324 Q200.4688,867.5605 199.9688,868.3105 Q199.4844,869.0605 199.4844,870.0918 L199.4844,871.1855 Q199.4844,872.4199 200.375,873.248 Q201.2656,874.0605 202.8594,874.0605 Q203.7969,874.0605 204.4531,873.8105 Q204.8438,873.6543 205.2656,873.2168 Q205.5313,872.9512 205.6719,872.873 Q205.8281,872.7949 206.0313,872.7949 Q206.3594,872.7949 206.6094,873.0605 Q206.875,873.3105 206.875,873.6543 Q206.875,873.998 206.5313,874.4043 Q206.0313,874.9824 205.2344,875.3105 Q204.1563,875.7637 202.8594,875.7637 Q201.3438,875.7637 200.1406,875.1387 Q199.1563,874.6387 198.4688,873.5762 Q197.7813,872.498 197.7813,871.2168 L197.7813,870.0605 Q197.7813,868.7324 198.3906,867.5918 Q199.0156,866.4355 200.1094,865.8262 Q201.2031,865.2012 202.4375,865.2012 Q203.1719,865.2012 203.8125,865.373 Q204.4688,865.5293 205.0156,865.8887 Z " fill="#000000"/><text fill="#000000" font-family="sans-serif" font-size="14" lengthAdjust="spacing" textLength="89" x="222.75" y="875.8105">MapController</text><line style="stroke:#181818;stroke-width:0.5;" x1="95.5" x2="406.5" y1="886.0137" y2="886.0137"/><line style="stroke:#181818;stroke-width:0.5;" x1="95.5" x2="406.5" y1="894.0137" y2="894.0137"/><ellipse cx="105.5" cy="908.8242" fill="#84BE84" rx="3" ry="3" style="stroke:#038048;stroke-width:1.0;"/><text fill="#000000" font-family="sans-serif" font-size="14" lengthAdjust="spacing" textLength="287" x="114.5" y="913.1211">&#171;Create&#187; MapController(MapModel,MapView)</text><ellipse cx="105.5" cy="927.4453" fill="#84BE84" rx="3" ry="3" style="stroke:#038048;stroke-width:1.0;"/><text fill="#000000" font-family="sans-serif" font-size="14" lengthAdjust="spacing" textLength="70" x="114.5" y="931.7422">void draw()</text><ellipse cx="105.5" cy="946.0664" fill="#84BE84" rx="3" ry="3" style="stroke:#038048;stroke-width:1.0;"/><text fill="#000000" font-family="sans-serif" font-size="14" lengthAdjust="spacing" textLength="279" x="114.5" y="950.3633">void calculatePath(GymController,Vector2D)</text><ellipse cx="105.5" cy="964.6875" fill="#84BE84" rx="3" ry="3" style="stroke:#038048;stroke-width:1.0;"/><text fill="#000000" font-family="sans-serif" font-size="14" lengthAdjust="spacing" textLength="199" x="114.5" y="968.9844">List&lt;GymController&gt; getGyms()</text><ellipse cx="105.5" cy="983.3086" fill="#84BE84" rx="3" ry="3" style="stroke:#038048;stroke-width:1.0;"/><text fill="#000000" font-family="sans-serif" font-size="14" lengthAdjust="spacing" textLength="224" x="114.5" y="987.6055">void setGyms(List&lt;GymController&gt;)</text></g><!--class FavoritesController--><g id="elem_FavoritesController"><rect codeLine="8" fill="#F1F1F1" height="103.8633" id="FavoritesController" rx="2.5" ry="2.5" style="stroke:#181818;stroke-width:0.5;" width="409" x="442.5" y="872.5137"/><ellipse cx="582.25" cy="888.5137" fill="#ADD1B2" rx="11" ry="11" style="stroke:#181818;stroke-width:1.0;"/><path d="M585.0156,884.3887 Q585.1719,884.1699 585.3594,884.0605 Q585.5469,883.9512 585.7656,883.9512 Q586.1406,883.9512 586.375,884.2168 Q586.6094,884.4668 586.6094,885.0762 L586.6094,886.5293 Q586.6094,887.1387 586.375,887.4043 Q586.1406,887.6699 585.7656,887.6699 Q585.4219,887.6699 585.2188,887.4668 Q585.0156,887.2793 584.9063,886.7637 Q584.8594,886.4043 584.6719,886.2168 Q584.3438,885.8418 583.7344,885.623 Q583.125,885.4043 582.5,885.4043 Q581.7344,885.4043 581.0938,885.7324 Q580.4688,886.0605 579.9688,886.8105 Q579.4844,887.5605 579.4844,888.5918 L579.4844,889.6855 Q579.4844,890.9199 580.375,891.748 Q581.2656,892.5605 582.8594,892.5605 Q583.7969,892.5605 584.4531,892.3105 Q584.8438,892.1543 585.2656,891.7168 Q585.5313,891.4512 585.6719,891.373 Q585.8281,891.2949 586.0313,891.2949 Q586.3594,891.2949 586.6094,891.5605 Q586.875,891.8105 586.875,892.1543 Q586.875,892.498 586.5313,892.9043 Q586.0313,893.4824 585.2344,893.8105 Q584.1563,894.2637 582.8594,894.2637 Q581.3438,894.2637 580.1406,893.6387 Q579.1563,893.1387 578.4688,892.0762 Q577.7813,890.998 577.7813,889.7168 L577.7813,888.5605 Q577.7813,887.2324 578.3906,886.0918 Q579.0156,884.9355 580.1094,884.3262 Q581.2031,883.7012 582.4375,883.7012 Q583.1719,883.7012 583.8125,883.873 Q584.4688,884.0293 585.0156,884.3887 Z " fill="#000000"/><text fill="#000000" font-family="sans-serif" font-size="14" lengthAdjust="spacing" textLength="121" x="602.75" y="894.3105">FavoritesController</text><line style="stroke:#181818;stroke-width:0.5;" x1="443.5" x2="850.5" y1="904.5137" y2="904.5137"/><line style="stroke:#181818;stroke-width:0.5;" x1="443.5" x2="850.5" y1="912.5137" y2="912.5137"/><ellipse cx="453.5" cy="927.3242" fill="#84BE84" rx="3" ry="3" style="stroke:#038048;stroke-width:1.0;"/><text fill="#000000" font-family="sans-serif" font-size="14" lengthAdjust="spacing" textLength="291" x="462.5" y="931.6211">&#171;Create&#187; FavoritesController(FavoritesModel)</text><ellipse cx="453.5" cy="945.9453" fill="#84BE84" rx="3" ry="3" style="stroke:#038048;stroke-width:1.0;"/><text fill="#000000" font-family="sans-serif" font-size="14" lengthAdjust="spacing" textLength="383" x="462.5" y="950.2422">&#171;Create&#187; FavoritesController(FavoritesModel,FavoritesView)</text><ellipse cx="453.5" cy="964.5664" fill="#84BE84" rx="3" ry="3" style="stroke:#038048;stroke-width:1.0;"/><text fill="#000000" font-family="sans-serif" font-size="14" lengthAdjust="spacing" textLength="248" x="462.5" y="968.8633">GymController findGym(GymController)</text></g><!--class GymController--><g id="elem_GymController"><rect codeLine="13" fill="#F1F1F1" height="196.9688" id="GymController" rx="2.5" ry="2.5" style="stroke:#181818;stroke-width:0.5;" width="319" x="886.5" y="826.0137"/><ellipse cx="996.25" cy="842.0137" fill="#ADD1B2" rx="11" ry="11" style="stroke:#181818;stroke-width:1.0;"/><path d="M999.0156,837.8887 Q999.1719,837.6699 999.3594,837.5605 Q999.5469,837.4512 999.7656,837.4512 Q1000.1406,837.4512 1000.375,837.7168 Q1000.6094,837.9668 1000.6094,838.5762 L1000.6094,840.0293 Q1000.6094,840.6387 1000.375,840.9043 Q1000.1406,841.1699 999.7656,841.1699 Q999.4219,841.1699 999.2188,840.9668 Q999.0156,840.7793 998.9063,840.2637 Q998.8594,839.9043 998.6719,839.7168 Q998.3438,839.3418 997.7344,839.123 Q997.125,838.9043 996.5,838.9043 Q995.7344,838.9043 995.0938,839.2324 Q994.4688,839.5605 993.9688,840.3105 Q993.4844,841.0605 993.4844,842.0918 L993.4844,843.1855 Q993.4844,844.4199 994.375,845.248 Q995.2656,846.0605 996.8594,846.0605 Q997.7969,846.0605 998.4531,845.8105 Q998.8438,845.6543 999.2656,845.2168 Q999.5313,844.9512 999.6719,844.873 Q999.8281,844.7949 1000.0313,844.7949 Q1000.3594,844.7949 1000.6094,845.0605 Q1000.875,845.3105 1000.875,845.6543 Q1000.875,845.998 1000.5313,846.4043 Q1000.0313,846.9824 999.2344,847.3105 Q998.1563,847.7637 996.8594,847.7637 Q995.3438,847.7637 994.1406,847.1387 Q993.1563,846.6387 992.4688,845.5762 Q991.7813,844.498 991.7813,843.2168 L991.7813,842.0605 Q991.7813,840.7324 992.3906,839.5918 Q993.0156,838.4355 994.1094,837.8262 Q995.2031,837.2012 996.4375,837.2012 Q997.1719,837.2012 997.8125,837.373 Q998.4688,837.5293 999.0156,837.8887 Z " fill="#000000"/><text fill="#000000" font-family="sans-serif" font-size="14" lengthAdjust="spacing" textLength="91" x="1016.75" y="847.8105">GymController</text><line style="stroke:#181818;stroke-width:0.5;" x1="887.5" x2="1204.5" y1="858.0137" y2="858.0137"/><line style="stroke:#181818;stroke-width:0.5;" x1="887.5" x2="1204.5" y1="866.0137" y2="866.0137"/><ellipse cx="897.5" cy="880.8242" fill="#84BE84" rx="3" ry="3" style="stroke:#038048;stroke-width:1.0;"/><text fill="#000000" font-family="sans-serif" font-size="14" lengthAdjust="spacing" textLength="231" x="906.5" y="885.1211">&#171;Create&#187; GymController(GymModel)</text><ellipse cx="897.5" cy="899.4453" fill="#84BE84" rx="3" ry="3" style="stroke:#038048;stroke-width:1.0;"/><text fill="#000000" font-family="sans-serif" font-size="14" lengthAdjust="spacing" textLength="293" x="906.5" y="903.7422">&#171;Create&#187; GymController(GymModel,GymView)</text><ellipse cx="897.5" cy="918.0664" fill="#84BE84" rx="3" ry="3" style="stroke:#038048;stroke-width:1.0;"/><text fill="#000000" font-family="sans-serif" font-size="14" lengthAdjust="spacing" textLength="131" x="906.5" y="922.3633">void makeClickable()</text><ellipse cx="897.5" cy="936.6875" fill="#84BE84" rx="3" ry="3" style="stroke:#038048;stroke-width:1.0;"/><text fill="#000000" font-family="sans-serif" font-size="14" lengthAdjust="spacing" textLength="138" x="906.5" y="940.9844">void makeHoverable()</text><ellipse cx="897.5" cy="955.3086" fill="#84BE84" rx="3" ry="3" style="stroke:#038048;stroke-width:1.0;"/><text fill="#000000" font-family="sans-serif" font-size="14" lengthAdjust="spacing" textLength="139" x="906.5" y="959.6055">void makeInteractive()</text><rect fill="#F24D5C" height="6" style="stroke:#C82930;stroke-width:1.0;" width="6" x="894.5" y="970.9297"/><text fill="#000000" font-family="sans-serif" font-size="14" lengthAdjust="spacing" textLength="191" x="906.5" y="978.2266">void handleClick(MouseEvent)</text><rect fill="#F24D5C" height="6" style="stroke:#C82930;stroke-width:1.0;" width="6" x="894.5" y="989.5508"/><text fill="#000000" font-family="sans-serif" font-size="14" lengthAdjust="spacing" textLength="228" x="906.5" y="996.8477">void handleStartHover(MouseEvent)</text><rect fill="#F24D5C" height="6" style="stroke:#C82930;stroke-width:1.0;" width="6" x="894.5" y="1008.1719"/><text fill="#000000" font-family="sans-serif" font-size="14" lengthAdjust="spacing" textLength="223" x="906.5" y="1015.4688">void handleEndHover(MouseEvent)</text></g><!--class PropertiesMenuController--><g id="elem_PropertiesMenuController"><rect codeLine="23" fill="#F1F1F1" height="159.7266" id="PropertiesMenuController" rx="2.5" ry="2.5" style="stroke:#181818;stroke-width:0.5;" width="532" x="1241" y="844.5137"/><ellipse cx="1421.75" cy="860.5137" fill="#ADD1B2" rx="11" ry="11" style="stroke:#181818;stroke-width:1.0;"/><path d="M1424.5156,856.3887 Q1424.6719,856.1699 1424.8594,856.0605 Q1425.0469,855.9512 1425.2656,855.9512 Q1425.6406,855.9512 1425.875,856.2168 Q1426.1094,856.4668 1426.1094,857.0762 L1426.1094,858.5293 Q1426.1094,859.1387 1425.875,859.4043 Q1425.6406,859.6699 1425.2656,859.6699 Q1424.9219,859.6699 1424.7188,859.4668 Q1424.5156,859.2793 1424.4063,858.7637 Q1424.3594,858.4043 1424.1719,858.2168 Q1423.8438,857.8418 1423.2344,857.623 Q1422.625,857.4043 1422,857.4043 Q1421.2344,857.4043 1420.5938,857.7324 Q1419.9688,858.0605 1419.4688,858.8105 Q1418.9844,859.5605 1418.9844,860.5918 L1418.9844,861.6855 Q1418.9844,862.9199 1419.875,863.748 Q1420.7656,864.5605 1422.3594,864.5605 Q1423.2969,864.5605 1423.9531,864.3105 Q1424.3438,864.1543 1424.7656,863.7168 Q1425.0313,863.4512 1425.1719,863.373 Q1425.3281,863.2949 1425.5313,863.2949 Q1425.8594,863.2949 1426.1094,863.5605 Q1426.375,863.8105 1426.375,864.1543 Q1426.375,864.498 1426.0313,864.9043 Q1425.5313,865.4824 1424.7344,865.8105 Q1423.6563,866.2637 1422.3594,866.2637 Q1420.8438,866.2637 1419.6406,865.6387 Q1418.6563,865.1387 1417.9688,864.0762 Q1417.2813,862.998 1417.2813,861.7168 L1417.2813,860.5605 Q1417.2813,859.2324 1417.8906,858.0918 Q1418.5156,856.9355 1419.6094,856.3262 Q1420.7031,855.7012 1421.9375,855.7012 Q1422.6719,855.7012 1423.3125,855.873 Q1423.9688,856.0293 1424.5156,856.3887 Z " fill="#000000"/><text fill="#000000" font-family="sans-serif" font-size="14" lengthAdjust="spacing" textLength="162" x="1442.25" y="866.3105">PropertiesMenuController</text><line style="stroke:#181818;stroke-width:0.5;" x1="1242" x2="1772" y1="876.5137" y2="876.5137"/><line style="stroke:#181818;stroke-width:0.5;" x1="1242" x2="1772" y1="884.5137" y2="884.5137"/><ellipse cx="1252" cy="899.3242" fill="#84BE84" rx="3" ry="3" style="stroke:#038048;stroke-width:1.0;"/><text fill="#000000" font-family="sans-serif" font-size="14" lengthAdjust="spacing" textLength="373" x="1261" y="903.6211">&#171;Create&#187; PropertiesMenuController(PropertiesMenuModel)</text><ellipse cx="1252" cy="917.9453" fill="#84BE84" rx="3" ry="3" style="stroke:#038048;stroke-width:1.0;"/><text fill="#000000" font-family="sans-serif" font-size="14" lengthAdjust="spacing" textLength="506" x="1261" y="922.2422">&#171;Create&#187; PropertiesMenuController(PropertiesMenuModel,PropertiesMenuView)</text><ellipse cx="1252" cy="936.5664" fill="#84BE84" rx="3" ry="3" style="stroke:#038048;stroke-width:1.0;"/><text fill="#000000" font-family="sans-serif" font-size="14" lengthAdjust="spacing" textLength="225" x="1261" y="940.8633">ArrayList&lt;Property&gt; getProperties()</text><ellipse cx="1252" cy="955.1875" fill="#84BE84" rx="3" ry="3" style="stroke:#038048;stroke-width:1.0;"/><text fill="#000000" font-family="sans-serif" font-size="14" lengthAdjust="spacing" textLength="250" x="1261" y="959.4844">void setProperties(ArrayList&lt;Property&gt;)</text><ellipse cx="1252" cy="973.8086" fill="#84BE84" rx="3" ry="3" style="stroke:#038048;stroke-width:1.0;"/><text fill="#000000" font-family="sans-serif" font-size="14" lengthAdjust="spacing" textLength="166" x="1261" y="978.1055">GymController getOwner()</text><ellipse cx="1252" cy="992.4297" fill="#84BE84" rx="3" ry="3" style="stroke:#038048;stroke-width:1.0;"/><text fill="#000000" font-family="sans-serif" font-size="14" lengthAdjust="spacing" textLength="191" x="1261" y="996.7266">void setOwner(GymController)</text></g><!--class Controller--><g id="elem_Controller"><rect codeLine="31" fill="#F1F1F1" height="588.0117" id="Controller" rx="2.5" ry="2.5" style="stroke:#181818;stroke-width:0.5;" width="232" x="730" y="178.0137"/><ellipse cx="810.75" cy="194.0137" fill="#A9DCDF" rx="11" ry="11" style="stroke:#181818;stroke-width:1.0;"/><path d="M812.9375,195.7793 L808.7969,195.7793 L808.375,196.8105 L808.7969,196.8105 Q809.4063,196.8105 809.6719,197.0449 Q809.9375,197.2793 809.9375,197.6699 Q809.9375,198.0449 809.6719,198.2793 Q809.4063,198.5137 808.7969,198.5137 L806.5,198.5137 Q805.8906,198.5137 805.6406,198.2793 Q805.375,198.0449 805.375,197.6543 Q805.375,197.2793 805.6563,197.0449 Q805.9219,196.7949 806.5469,196.8105 L809.2188,190.1543 L808.1094,190.1543 Q807.5,190.1543 807.2344,189.9199 Q806.9688,189.6855 806.9688,189.2949 Q806.9688,188.9199 807.2344,188.6855 Q807.5,188.4512 808.1094,188.4512 L811.7813,188.4512 L815.1719,196.8105 Q815.7656,196.8105 815.9531,196.9512 Q816.3438,197.2168 816.3438,197.6699 Q816.3438,198.0449 816.0781,198.2793 Q815.8281,198.5137 815.2188,198.5137 L812.9219,198.5137 Q812.3125,198.5137 812.0469,198.2793 Q811.7813,198.0449 811.7813,197.6543 Q811.7813,197.2793 812.0469,197.0449 Q812.3125,196.8105 812.9219,196.8105 L813.3438,196.8105 L812.9375,195.7793 Z M812.2188,194.0762 L810.8594,190.7012 L809.4844,194.0762 L812.2188,194.0762 Z " fill="#000000"/><text fill="#000000" font-family="sans-serif" font-size="14" font-style="italic" lengthAdjust="spacing" textLength="62" x="831.25" y="199.8105">Controller</text><line style="stroke:#181818;stroke-width:0.5;" x1="731" x2="961" y1="210.0137" y2="210.0137"/><rect fill="none" height="6" style="stroke:#C82930;stroke-width:1.0;" width="6" x="738" y="221.8242"/><text fill="#000000" font-family="sans-serif" font-size="14" lengthAdjust="spacing" textLength="80" x="750" y="229.1211">Model model</text><rect fill="none" height="6" style="stroke:#C82930;stroke-width:1.0;" width="6" x="738" y="240.4453"/><text fill="#000000" font-family="sans-serif" font-size="14" lengthAdjust="spacing" textLength="60" x="750" y="247.7422">View view</text><line style="stroke:#181818;stroke-width:0.5;" x1="731" x2="961" y1="255.2559" y2="255.2559"/><polygon fill="#FFFF44" points="741,265.0664,745,269.0664,741,273.0664,737,269.0664" style="stroke:#B38D22;stroke-width:1.0;"/><text fill="#000000" font-family="sans-serif" font-size="14" lengthAdjust="spacing" textLength="206" x="750" y="274.3633">&#171;Create&#187; Controller(Model,View)</text><ellipse cx="741" cy="288.6875" fill="#84BE84" rx="3" ry="3" style="stroke:#038048;stroke-width:1.0;"/><text fill="#000000" font-family="sans-serif" font-size="14" lengthAdjust="spacing" textLength="70" x="750" y="292.9844">void draw()</text><ellipse cx="741" cy="307.3086" fill="#84BE84" rx="3" ry="3" style="stroke:#038048;stroke-width:1.0;"/><text fill="#000000" font-family="sans-serif" font-size="14" lengthAdjust="spacing" textLength="117" x="750" y="311.6055">double getHeight()</text><ellipse cx="741" cy="325.9297" fill="#84BE84" rx="3" ry="3" style="stroke:#038048;stroke-width:1.0;"/><text fill="#000000" font-family="sans-serif" font-size="14" lengthAdjust="spacing" textLength="168" x="750" y="330.2266">ImageView getImageView()</text><ellipse cx="741" cy="344.5508" fill="#84BE84" rx="3" ry="3" style="stroke:#038048;stroke-width:1.0;"/><text fill="#000000" font-family="sans-serif" font-size="14" lengthAdjust="spacing" textLength="110" x="750" y="348.8477">Model getModel()</text><ellipse cx="741" cy="363.1719" fill="#84BE84" rx="3" ry="3" style="stroke:#038048;stroke-width:1.0;"/><text fill="#000000" font-family="sans-serif" font-size="14" lengthAdjust="spacing" textLength="143" x="750" y="367.4688">Vector2D getPosition()</text><ellipse cx="741" cy="381.793" fill="#84BE84" rx="3" ry="3" style="stroke:#038048;stroke-width:1.0;"/><text fill="#000000" font-family="sans-serif" font-size="14" lengthAdjust="spacing" textLength="130" x="750" y="386.0898">double getRotation()</text><ellipse cx="741" cy="400.4141" fill="#84BE84" rx="3" ry="3" style="stroke:#038048;stroke-width:1.0;"/><text fill="#000000" font-family="sans-serif" font-size="14" lengthAdjust="spacing" textLength="128" x="750" y="404.7109">Vector2D getScale()</text><ellipse cx="741" cy="419.0352" fill="#84BE84" rx="3" ry="3" style="stroke:#038048;stroke-width:1.0;"/><text fill="#000000" font-family="sans-serif" font-size="14" lengthAdjust="spacing" textLength="120" x="750" y="423.332">Image getTexture()</text><ellipse cx="741" cy="437.6563" fill="#84BE84" rx="3" ry="3" style="stroke:#038048;stroke-width:1.0;"/><text fill="#000000" font-family="sans-serif" font-size="14" lengthAdjust="spacing" textLength="164" x="750" y="441.9531">Transform getTransform()</text><ellipse cx="741" cy="456.2773" fill="#84BE84" rx="3" ry="3" style="stroke:#038048;stroke-width:1.0;"/><text fill="#000000" font-family="sans-serif" font-size="14" lengthAdjust="spacing" textLength="92" x="750" y="460.5742">View getView()</text><ellipse cx="741" cy="474.8984" fill="#84BE84" rx="3" ry="3" style="stroke:#038048;stroke-width:1.0;"/><text fill="#000000" font-family="sans-serif" font-size="14" lengthAdjust="spacing" textLength="85" x="750" y="479.1953">double getX()</text><ellipse cx="741" cy="493.5195" fill="#84BE84" rx="3" ry="3" style="stroke:#038048;stroke-width:1.0;"/><text fill="#000000" font-family="sans-serif" font-size="14" lengthAdjust="spacing" textLength="86" x="750" y="497.8164">double getY()</text><ellipse cx="741" cy="512.1406" fill="#84BE84" rx="3" ry="3" style="stroke:#038048;stroke-width:1.0;"/><text fill="#000000" font-family="sans-serif" font-size="14" lengthAdjust="spacing" textLength="113" x="750" y="516.4375">double getWidth()</text><ellipse cx="741" cy="530.7617" fill="#84BE84" rx="3" ry="3" style="stroke:#038048;stroke-width:1.0;"/><text fill="#000000" font-family="sans-serif" font-size="14" lengthAdjust="spacing" textLength="142" x="750" y="535.0586">void setHeight(double)</text><ellipse cx="741" cy="549.3828" fill="#84BE84" rx="3" ry="3" style="stroke:#038048;stroke-width:1.0;"/><text fill="#000000" font-family="sans-serif" font-size="14" lengthAdjust="spacing" textLength="193" x="750" y="553.6797">void setImageView(ImageView)</text><ellipse cx="741" cy="568.0039" fill="#84BE84" rx="3" ry="3" style="stroke:#038048;stroke-width:1.0;"/><text fill="#000000" font-family="sans-serif" font-size="14" lengthAdjust="spacing" textLength="135" x="750" y="572.3008">void setModel(Model)</text><ellipse cx="741" cy="586.625" fill="#84BE84" rx="3" ry="3" style="stroke:#038048;stroke-width:1.0;"/><text fill="#000000" font-family="sans-serif" font-size="14" lengthAdjust="spacing" textLength="168" x="750" y="590.9219">void setPosition(Vector2D)</text><ellipse cx="741" cy="605.2461" fill="#84BE84" rx="3" ry="3" style="stroke:#038048;stroke-width:1.0;"/><text fill="#000000" font-family="sans-serif" font-size="14" lengthAdjust="spacing" textLength="155" x="750" y="609.543">void setRotation(double)</text><ellipse cx="741" cy="623.8672" fill="#84BE84" rx="3" ry="3" style="stroke:#038048;stroke-width:1.0;"/><text fill="#000000" font-family="sans-serif" font-size="14" lengthAdjust="spacing" textLength="153" x="750" y="628.1641">void setScale(Vector2D)</text><ellipse cx="741" cy="642.4883" fill="#84BE84" rx="3" ry="3" style="stroke:#038048;stroke-width:1.0;"/><text fill="#000000" font-family="sans-serif" font-size="14" lengthAdjust="spacing" textLength="145" x="750" y="646.7852">void setTexture(Image)</text><ellipse cx="741" cy="661.1094" fill="#84BE84" rx="3" ry="3" style="stroke:#038048;stroke-width:1.0;"/><text fill="#000000" font-family="sans-serif" font-size="14" lengthAdjust="spacing" textLength="144" x="750" y="665.4063">void setTexture(String)</text><ellipse cx="741" cy="679.7305" fill="#84BE84" rx="3" ry="3" style="stroke:#038048;stroke-width:1.0;"/><text fill="#000000" font-family="sans-serif" font-size="14" lengthAdjust="spacing" textLength="189" x="750" y="684.0273">void setTransform(Transform)</text><ellipse cx="741" cy="698.3516" fill="#84BE84" rx="3" ry="3" style="stroke:#038048;stroke-width:1.0;"/><text fill="#000000" font-family="sans-serif" font-size="14" lengthAdjust="spacing" textLength="117" x="750" y="702.6484">void setView(View)</text><ellipse cx="741" cy="716.9727" fill="#84BE84" rx="3" ry="3" style="stroke:#038048;stroke-width:1.0;"/><text fill="#000000" font-family="sans-serif" font-size="14" lengthAdjust="spacing" textLength="110" x="750" y="721.2695">void setX(double)</text><ellipse cx="741" cy="735.5938" fill="#84BE84" rx="3" ry="3" style="stroke:#038048;stroke-width:1.0;"/><text fill="#000000" font-family="sans-serif" font-size="14" lengthAdjust="spacing" textLength="111" x="750" y="739.8906">void setY(double)</text><ellipse cx="741" cy="754.2148" fill="#84BE84" rx="3" ry="3" style="stroke:#038048;stroke-width:1.0;"/><text fill="#000000" font-family="sans-serif" font-size="14" lengthAdjust="spacing" textLength="138" x="750" y="758.5117">void setWidth(double)</text></g><!--reverse link Controller to MapController--><g id="link_Controller_MapController"><path codeLine="63" d="M713.6,573.2637 C600.97,658.5337 442.16,778.7837 342.97,853.8837 " fill="none" id="Controller-backto-MapController" style="stroke:#181818;stroke-width:1.0;"/><polygon fill="none" points="709.69,567.4337,729.87,560.9437,718.15,578.5937,709.69,567.4337" style="stroke:#181818;stroke-width:1.0;"/></g><!--reverse link Controller to FavoritesController--><g id="link_Controller_FavoritesController"><path codeLine="64" d="M721.78,754.2137 C701.82,799.4137 683.27,841.3937 669.65,872.2437 " fill="none" id="Controller-backto-FavoritesController" style="stroke:#181818;stroke-width:1.0;"/><polygon fill="none" points="715.47,751.1937,729.95,735.7237,728.27,756.8437,715.47,751.1937" style="stroke:#181818;stroke-width:1.0;"/></g><!--reverse link Controller to GymController--><g id="link_Controller_GymController"><path codeLine="65" d="M970.25,752.8937 C981.71,778.7037 992.72,803.4937 1002.62,825.7937 " fill="none" id="Controller-backto-GymController" style="stroke:#181818;stroke-width:1.0;"/><polygon fill="none" points="963.77,755.5437,962.05,734.4237,976.56,749.8537,963.77,755.5437" style="stroke:#181818;stroke-width:1.0;"/></g><!--reverse link Controller to PropertiesMenuController--><g id="link_Controller_PropertiesMenuController"><path codeLine="66" d="M978.92,563.6037 C1099.56,645.8237 1275.69,765.8637 1390.82,844.3337 " fill="none" id="Controller-backto-PropertiesMenuController" style="stroke:#181818;stroke-width:1.0;"/><polygon fill="none" points="974.86,569.3037,962.27,552.2537,982.74,557.7337,974.86,569.3037" style="stroke:#181818;stroke-width:1.0;"/></g><!--SRC=[hLLTRziW57tthq3QYwCvUTXp56dAshNIebLBrRMF15C7rOOAhfrPM__xCCGORAAcKbuixZcNmxs73vCIAuM8g1P5M-saM106xO883bAK9PMB3NvTkmZzJJwZvN8jAGQwMg60J7Mq4JajCpruOFGmqycDO3dA9JwaBYAu97Mf1UumxDFlRJL8P0-KW91VldN9FvY2PK2lK4518seGKqSWaZnBtXBoNdlNk16I0LMdcuoaf0up3Sy-EY5pOUzJK3fwPZpNI6ZEMVs4EgDE0h8JZrKVJyhq8DZJ2h_GTSd82zwLD0tW6z5GEOLlEMYO06iwOcw9FUPvQONIZQWLlMeeXn6z1Ip1g9xEkUBvDECCm-waUAKIcDuPoklJtftAIqCYvkX7fcOXrbl-LKhScZD-v5jp5uRau4PuS6JYzBXffPy7hWloHImoEO5ufw3RHVIkiu6NSsJQGrNtrL7N66hq9_daM-M_9iQE-3kIYreVhwxk6ygAFHZmji85DReQTu6XxDeQDWC3zI-DiL4e1apmaVOl0TZ1VlvMFs5qMBE3xkaVgAK5xoNcwbd8oX1zO5MEvRdAXjKUH_7JAFxDSlrS-ZjqxDsc-CJGl1lvj3N1dLHtQdeN_4Uu9vqNqzMi6x59lIccYXYn1Sbu4J3EBZVoQTFKk9_7I55F4SmwsEDlINBUuLt-cy_F_aDUI3Fo2xcGSd2XBwHvwe5B_WC0]--></g></svg>