<?xml version="1.0" encoding="us-ascii" standalone="no"?><svg xmlns="http://www.w3.org/2000/svg" xmlns:xlink="http://www.w3.org/1999/xlink" contentStyleType="text/css" height="781px" preserveAspectRatio="none" style="width:817px;height:781px;background:#FFFFFF;" version="1.1" viewBox="0 0 817 781" width="817px" zoomAndPan="magnify"><defs/><g><!--cluster com--><g id="cluster_com"><path d="M8.5,6.0137 L38.5,6.0137 A3.75,3.75 0 0 1 41,8.5137 L48,30.6348 L807.5,30.6348 A2.5,2.5 0 0 1 810,33.1348 L810,771.5137 A2.5,2.5 0 0 1 807.5,774.0137 L8.5,774.0137 A2.5,2.5 0 0 1 6,771.5137 L6,8.5137 A2.5,2.5 0 0 1 8.5,6.0137 " fill="none" style="stroke:#000000;stroke-width:1.5;"/><line style="stroke:#000000;stroke-width:1.5;" x1="6" x2="48" y1="30.6348" y2="30.6348"/><text fill="#000000" font-family="sans-serif" font-size="14" font-weight="bold" lengthAdjust="spacing" textLength="29" x="10" y="23.1211">com</text></g><!--cluster gymbro--><g id="cluster_gymbro"><path d="M32.5,51.0137 L85.5,51.0137 A3.75,3.75 0 0 1 88,53.5137 L95,75.6348 L783.5,75.6348 A2.5,2.5 0 0 1 786,78.1348 L786,747.5137 A2.5,2.5 0 0 1 783.5,750.0137 L32.5,750.0137 A2.5,2.5 0 0 1 30,747.5137 L30,53.5137 A2.5,2.5 0 0 1 32.5,51.0137 " fill="none" style="stroke:#000000;stroke-width:1.5;"/><line style="stroke:#000000;stroke-width:1.5;" x1="30" x2="95" y1="75.6348" y2="75.6348"/><text fill="#000000" font-family="sans-serif" font-size="14" font-weight="bold" lengthAdjust="spacing" textLength="52" x="34" y="68.1211">gymbro</text></g><!--cluster city--><g id="cluster_city"><path d="M56.5,96.0137 L81.5,96.0137 A3.75,3.75 0 0 1 84,98.5137 L91,120.6348 L759.5,120.6348 A2.5,2.5 0 0 1 762,123.1348 L762,723.5137 A2.5,2.5 0 0 1 759.5,726.0137 L56.5,726.0137 A2.5,2.5 0 0 1 54,723.5137 L54,98.5137 A2.5,2.5 0 0 1 56.5,96.0137 " fill="none" style="stroke:#000000;stroke-width:1.5;"/><line style="stroke:#000000;stroke-width:1.5;" x1="54" x2="91" y1="120.6348" y2="120.6348"/><text fill="#000000" font-family="sans-serif" font-size="14" font-weight="bold" lengthAdjust="spacing" textLength="24" x="58" y="113.1211">city</text></g><!--cluster model--><g id="cluster_model"><path d="M80.5,415.0137 L124.5,415.0137 A3.75,3.75 0 0 1 127,417.5137 L134,439.6348 L455.5,439.6348 A2.5,2.5 0 0 1 458,442.1348 L458,699.5137 A2.5,2.5 0 0 1 455.5,702.0137 L80.5,702.0137 A2.5,2.5 0 0 1 78,699.5137 L78,417.5137 A2.5,2.5 0 0 1 80.5,415.0137 " fill="none" style="stroke:#000000;stroke-width:1.5;"/><line style="stroke:#000000;stroke-width:1.5;" x1="78" x2="134" y1="439.6348" y2="439.6348"/><text fill="#000000" font-family="sans-serif" font-size="14" font-weight="bold" lengthAdjust="spacing" textLength="43" x="82" y="432.1211">model</text></g><!--cluster view--><g id="cluster_view"><path d="M484.5,461.5137 L518.5,461.5137 A3.75,3.75 0 0 1 521,464.0137 L528,486.1348 L735.5,486.1348 A2.5,2.5 0 0 1 738,488.6348 L738,653.0137 A2.5,2.5 0 0 1 735.5,655.5137 L484.5,655.5137 A2.5,2.5 0 0 1 482,653.0137 L482,464.0137 A2.5,2.5 0 0 1 484.5,461.5137 " fill="none" style="stroke:#000000;stroke-width:1.5;"/><line style="stroke:#000000;stroke-width:1.5;" x1="482" x2="528" y1="486.1348" y2="486.1348"/><text fill="#000000" font-family="sans-serif" font-size="14" font-weight="bold" lengthAdjust="spacing" textLength="33" x="486" y="478.6211">view</text></g><!--cluster controller--><g id="cluster_controller"><path d="M241.5,141.0137 L311.5,141.0137 A3.75,3.75 0 0 1 314,143.5137 L321,165.6348 L588.5,165.6348 A2.5,2.5 0 0 1 591,168.1348 L591,388.5137 A2.5,2.5 0 0 1 588.5,391.0137 L241.5,391.0137 A2.5,2.5 0 0 1 239,388.5137 L239,143.5137 A2.5,2.5 0 0 1 241.5,141.0137 " fill="none" style="stroke:#000000;stroke-width:1.5;"/><line style="stroke:#000000;stroke-width:1.5;" x1="239" x2="321" y1="165.6348" y2="165.6348"/><text fill="#000000" font-family="sans-serif" font-size="14" font-weight="bold" lengthAdjust="spacing" textLength="69" x="243" y="158.1211">controller</text></g><!--class GymModel--><g id="elem_GymModel"><rect codeLine="1" fill="#F1F1F1" height="234.2109" id="GymModel" rx="2.5" ry="2.5" style="stroke:#181818;stroke-width:0.5;" width="347" x="94.5" y="452.0137"/><ellipse cx="230.25" cy="468.0137" fill="#ADD1B2" rx="11" ry="11" style="stroke:#181818;stroke-width:1.0;"/><path d="M233.0156,463.8887 Q233.1719,463.6699 233.3594,463.5605 Q233.5469,463.4512 233.7656,463.4512 Q234.1406,463.4512 234.375,463.7168 Q234.6094,463.9668 234.6094,464.5762 L234.6094,466.0293 Q234.6094,466.6387 234.375,466.9043 Q234.1406,467.1699 233.7656,467.1699 Q233.4219,467.1699 233.2188,466.9668 Q233.0156,466.7793 232.9063,466.2637 Q232.8594,465.9043 232.6719,465.7168 Q232.3438,465.3418 231.7344,465.123 Q231.125,464.9043 230.5,464.9043 Q229.7344,464.9043 229.0938,465.2324 Q228.4688,465.5605 227.9688,466.3105 Q227.4844,467.0605 227.4844,468.0918 L227.4844,469.1855 Q227.4844,470.4199 228.375,471.248 Q229.2656,472.0605 230.8594,472.0605 Q231.7969,472.0605 232.4531,471.8105 Q232.8438,471.6543 233.2656,471.2168 Q233.5313,470.9512 233.6719,470.873 Q233.8281,470.7949 234.0313,470.7949 Q234.3594,470.7949 234.6094,471.0605 Q234.875,471.3105 234.875,471.6543 Q234.875,471.998 234.5313,472.4043 Q234.0313,472.9824 233.2344,473.3105 Q232.1563,473.7637 230.8594,473.7637 Q229.3438,473.7637 228.1406,473.1387 Q227.1563,472.6387 226.4688,471.5762 Q225.7813,470.498 225.7813,469.2168 L225.7813,468.0605 Q225.7813,466.7324 226.3906,465.5918 Q227.0156,464.4355 228.1094,463.8262 Q229.2031,463.2012 230.4375,463.2012 Q231.1719,463.2012 231.8125,463.373 Q232.4688,463.5293 233.0156,463.8887 Z " fill="#000000"/><text fill="#000000" font-family="sans-serif" font-size="14" lengthAdjust="spacing" textLength="67" x="250.75" y="473.8105">GymModel</text><line style="stroke:#181818;stroke-width:0.5;" x1="95.5" x2="440.5" y1="484.0137" y2="484.0137"/><rect fill="none" height="6" style="stroke:#C82930;stroke-width:1.0;" width="6" x="102.5" y="495.8242"/><text fill="#000000" font-family="sans-serif" font-size="14" lengthAdjust="spacing" textLength="265" x="114.5" y="503.1211">PropertiesMenuController propertiesMenu</text><line style="stroke:#181818;stroke-width:0.5;" x1="95.5" x2="440.5" y1="510.6348" y2="510.6348"/><ellipse cx="105.5" cy="525.4453" fill="#84BE84" rx="3" ry="3" style="stroke:#038048;stroke-width:1.0;"/><text fill="#000000" font-family="sans-serif" font-size="14" lengthAdjust="spacing" textLength="140" x="114.5" y="529.7422">&#171;Create&#187; GymModel()</text><ellipse cx="105.5" cy="544.0664" fill="#84BE84" rx="3" ry="3" style="stroke:#038048;stroke-width:1.0;"/><text fill="#000000" font-family="sans-serif" font-size="14" lengthAdjust="spacing" textLength="247" x="114.5" y="548.3633">&#171;Create&#187; GymModel(Transform,Image)</text><ellipse cx="105.5" cy="562.6875" fill="#84BE84" rx="3" ry="3" style="stroke:#038048;stroke-width:1.0;"/><text fill="#000000" font-family="sans-serif" font-size="14" lengthAdjust="spacing" textLength="265" x="114.5" y="566.9844">&#171;Create&#187; GymModel(Transform,int,String)</text><ellipse cx="105.5" cy="581.3086" fill="#84BE84" rx="3" ry="3" style="stroke:#038048;stroke-width:1.0;"/><text fill="#000000" font-family="sans-serif" font-size="14" lengthAdjust="spacing" textLength="117" x="114.5" y="585.6055">String serialize(int)</text><ellipse cx="105.5" cy="599.9297" fill="#84BE84" rx="3" ry="3" style="stroke:#038048;stroke-width:1.0;"/><text fill="#000000" font-family="sans-serif" font-size="14" lengthAdjust="spacing" text-decoration="underline" textLength="135" x="114.5" y="604.2266">Property deserialize()</text><ellipse cx="105.5" cy="618.5508" fill="#84BE84" rx="3" ry="3" style="stroke:#038048;stroke-width:1.0;"/><text fill="#000000" font-family="sans-serif" font-size="14" lengthAdjust="spacing" textLength="296" x="114.5" y="622.8477">PropertiesMenuController getPropertiesMenu()</text><ellipse cx="105.5" cy="637.1719" fill="#84BE84" rx="3" ry="3" style="stroke:#038048;stroke-width:1.0;"/><text fill="#000000" font-family="sans-serif" font-size="14" lengthAdjust="spacing" textLength="321" x="114.5" y="641.4688">void setPropertiesMenu(PropertiesMenuController)</text><ellipse cx="105.5" cy="655.793" fill="#84BE84" rx="3" ry="3" style="stroke:#038048;stroke-width:1.0;"/><text fill="#000000" font-family="sans-serif" font-size="14" lengthAdjust="spacing" textLength="148" x="114.5" y="660.0898">boolean equals(Object)</text><ellipse cx="105.5" cy="674.4141" fill="#84BE84" rx="3" ry="3" style="stroke:#038048;stroke-width:1.0;"/><text fill="#000000" font-family="sans-serif" font-size="14" lengthAdjust="spacing" textLength="94" x="114.5" y="678.7109">int hashCode()</text></g><!--class GymView--><g id="elem_GymView"><rect codeLine="13" fill="#F1F1F1" height="141.1055" id="GymView" rx="2.5" ry="2.5" style="stroke:#181818;stroke-width:0.5;" width="224" x="498" y="498.5137"/><ellipse cx="576.75" cy="514.5137" fill="#ADD1B2" rx="11" ry="11" style="stroke:#181818;stroke-width:1.0;"/><path d="M579.5156,510.3887 Q579.6719,510.1699 579.8594,510.0605 Q580.0469,509.9512 580.2656,509.9512 Q580.6406,509.9512 580.875,510.2168 Q581.1094,510.4668 581.1094,511.0762 L581.1094,512.5293 Q581.1094,513.1387 580.875,513.4043 Q580.6406,513.6699 580.2656,513.6699 Q579.9219,513.6699 579.7188,513.4668 Q579.5156,513.2793 579.4063,512.7637 Q579.3594,512.4043 579.1719,512.2168 Q578.8438,511.8418 578.2344,511.623 Q577.625,511.4043 577,511.4043 Q576.2344,511.4043 575.5938,511.7324 Q574.9688,512.0605 574.4688,512.8105 Q573.9844,513.5605 573.9844,514.5918 L573.9844,515.6855 Q573.9844,516.9199 574.875,517.748 Q575.7656,518.5605 577.3594,518.5605 Q578.2969,518.5605 578.9531,518.3105 Q579.3438,518.1543 579.7656,517.7168 Q580.0313,517.4512 580.1719,517.373 Q580.3281,517.2949 580.5313,517.2949 Q580.8594,517.2949 581.1094,517.5605 Q581.375,517.8105 581.375,518.1543 Q581.375,518.498 581.0313,518.9043 Q580.5313,519.4824 579.7344,519.8105 Q578.6563,520.2637 577.3594,520.2637 Q575.8438,520.2637 574.6406,519.6387 Q573.6563,519.1387 572.9688,518.0762 Q572.2813,516.998 572.2813,515.7168 L572.2813,514.5605 Q572.2813,513.2324 572.8906,512.0918 Q573.5156,510.9355 574.6094,510.3262 Q575.7031,509.7012 576.9375,509.7012 Q577.6719,509.7012 578.3125,509.873 Q578.9688,510.0293 579.5156,510.3887 Z " fill="#000000"/><text fill="#000000" font-family="sans-serif" font-size="14" lengthAdjust="spacing" textLength="58" x="597.25" y="520.3105">GymView</text><line style="stroke:#181818;stroke-width:0.5;" x1="499" x2="721" y1="530.5137" y2="530.5137"/><line style="stroke:#181818;stroke-width:0.5;" x1="499" x2="721" y1="538.5137" y2="538.5137"/><ellipse cx="509" cy="553.3242" fill="#84BE84" rx="3" ry="3" style="stroke:#038048;stroke-width:1.0;"/><text fill="#000000" font-family="sans-serif" font-size="14" lengthAdjust="spacing" textLength="131" x="518" y="557.6211">&#171;Create&#187; GymView()</text><ellipse cx="509" cy="571.9453" fill="#84BE84" rx="3" ry="3" style="stroke:#038048;stroke-width:1.0;"/><text fill="#000000" font-family="sans-serif" font-size="14" lengthAdjust="spacing" textLength="198" x="518" y="576.2422">&#171;Create&#187; GymView(GymModel)</text><ellipse cx="509" cy="590.5664" fill="#84BE84" rx="3" ry="3" style="stroke:#038048;stroke-width:1.0;"/><text fill="#000000" font-family="sans-serif" font-size="14" lengthAdjust="spacing" textLength="84" x="518" y="594.8633">void zoomIn()</text><ellipse cx="509" cy="609.1875" fill="#84BE84" rx="3" ry="3" style="stroke:#038048;stroke-width:1.0;"/><text fill="#000000" font-family="sans-serif" font-size="14" lengthAdjust="spacing" textLength="96" x="518" y="613.4844">void zoomOut()</text><ellipse cx="509" cy="627.8086" fill="#84BE84" rx="3" ry="3" style="stroke:#038048;stroke-width:1.0;"/><text fill="#000000" font-family="sans-serif" font-size="14" lengthAdjust="spacing" textLength="137" x="518" y="632.1055">void showProperties()</text></g><!--class GymController--><g id="elem_GymController"><rect codeLine="20" fill="#F1F1F1" height="196.9688" id="GymController" rx="2.5" ry="2.5" style="stroke:#181818;stroke-width:0.5;" width="319" x="255.5" y="178.0137"/><ellipse cx="365.25" cy="194.0137" fill="#ADD1B2" rx="11" ry="11" style="stroke:#181818;stroke-width:1.0;"/><path d="M368.0156,189.8887 Q368.1719,189.6699 368.3594,189.5605 Q368.5469,189.4512 368.7656,189.4512 Q369.1406,189.4512 369.375,189.7168 Q369.6094,189.9668 369.6094,190.5762 L369.6094,192.0293 Q369.6094,192.6387 369.375,192.9043 Q369.1406,193.1699 368.7656,193.1699 Q368.4219,193.1699 368.2188,192.9668 Q368.0156,192.7793 367.9063,192.2637 Q367.8594,191.9043 367.6719,191.7168 Q367.3438,191.3418 366.7344,191.123 Q366.125,190.9043 365.5,190.9043 Q364.7344,190.9043 364.0938,191.2324 Q363.4688,191.5605 362.9688,192.3105 Q362.4844,193.0605 362.4844,194.0918 L362.4844,195.1855 Q362.4844,196.4199 363.375,197.248 Q364.2656,198.0605 365.8594,198.0605 Q366.7969,198.0605 367.4531,197.8105 Q367.8438,197.6543 368.2656,197.2168 Q368.5313,196.9512 368.6719,196.873 Q368.8281,196.7949 369.0313,196.7949 Q369.3594,196.7949 369.6094,197.0605 Q369.875,197.3105 369.875,197.6543 Q369.875,197.998 369.5313,198.4043 Q369.0313,198.9824 368.2344,199.3105 Q367.1563,199.7637 365.8594,199.7637 Q364.3438,199.7637 363.1406,199.1387 Q362.1563,198.6387 361.4688,197.5762 Q360.7813,196.498 360.7813,195.2168 L360.7813,194.0605 Q360.7813,192.7324 361.3906,191.5918 Q362.0156,190.4355 363.1094,189.8262 Q364.2031,189.2012 365.4375,189.2012 Q366.1719,189.2012 366.8125,189.373 Q367.4688,189.5293 368.0156,189.8887 Z " fill="#000000"/><text fill="#000000" font-family="sans-serif" font-size="14" lengthAdjust="spacing" textLength="91" x="385.75" y="199.8105">GymController</text><line style="stroke:#181818;stroke-width:0.5;" x1="256.5" x2="573.5" y1="210.0137" y2="210.0137"/><line style="stroke:#181818;stroke-width:0.5;" x1="256.5" x2="573.5" y1="218.0137" y2="218.0137"/><ellipse cx="266.5" cy="232.8242" fill="#84BE84" rx="3" ry="3" style="stroke:#038048;stroke-width:1.0;"/><text fill="#000000" font-family="sans-serif" font-size="14" lengthAdjust="spacing" textLength="231" x="275.5" y="237.1211">&#171;Create&#187; GymController(GymModel)</text><ellipse cx="266.5" cy="251.4453" fill="#84BE84" rx="3" ry="3" style="stroke:#038048;stroke-width:1.0;"/><text fill="#000000" font-family="sans-serif" font-size="14" lengthAdjust="spacing" textLength="293" x="275.5" y="255.7422">&#171;Create&#187; GymController(GymModel,GymView)</text><ellipse cx="266.5" cy="270.0664" fill="#84BE84" rx="3" ry="3" style="stroke:#038048;stroke-width:1.0;"/><text fill="#000000" font-family="sans-serif" font-size="14" lengthAdjust="spacing" textLength="131" x="275.5" y="274.3633">void makeClickable()</text><ellipse cx="266.5" cy="288.6875" fill="#84BE84" rx="3" ry="3" style="stroke:#038048;stroke-width:1.0;"/><text fill="#000000" font-family="sans-serif" font-size="14" lengthAdjust="spacing" textLength="138" x="275.5" y="292.9844">void makeHoverable()</text><ellipse cx="266.5" cy="307.3086" fill="#84BE84" rx="3" ry="3" style="stroke:#038048;stroke-width:1.0;"/><text fill="#000000" font-family="sans-serif" font-size="14" lengthAdjust="spacing" textLength="139" x="275.5" y="311.6055">void makeInteractive()</text><rect fill="#F24D5C" height="6" style="stroke:#C82930;stroke-width:1.0;" width="6" x="263.5" y="322.9297"/><text fill="#000000" font-family="sans-serif" font-size="14" lengthAdjust="spacing" textLength="191" x="275.5" y="330.2266">void handleClick(MouseEvent)</text><rect fill="#F24D5C" height="6" style="stroke:#C82930;stroke-width:1.0;" width="6" x="263.5" y="341.5508"/><text fill="#000000" font-family="sans-serif" font-size="14" lengthAdjust="spacing" textLength="228" x="275.5" y="348.8477">void handleStartHover(MouseEvent)</text><rect fill="#F24D5C" height="6" style="stroke:#C82930;stroke-width:1.0;" width="6" x="263.5" y="360.1719"/><text fill="#000000" font-family="sans-serif" font-size="14" lengthAdjust="spacing" textLength="223" x="275.5" y="367.4688">void handleEndHover(MouseEvent)</text></g><!--reverse link GymController to GymView--><g id="link_GymController_GymView"><path codeLine="31" d="M487.86,386.0637 C513.07,423.6137 540.63,464.6737 563.18,498.2637 " fill="none" id="GymController-backto-GymView" style="stroke:#181818;stroke-width:1.0;"/><polygon fill="none" points="480.47,375.0537,480.4898,382.2647,487.1538,385.02,487.134,377.8089,480.47,375.0537" style="stroke:#181818;stroke-width:1.0;"/></g><!--reverse link GymController to GymModel--><g id="link_GymController_GymModel"><path codeLine="32" d="M359.73,386.7437 C348.97,408.0137 337.65,430.3737 326.78,451.8637 " fill="none" id="GymController-backto-GymModel" style="stroke:#181818;stroke-width:1.0;"/><polygon fill="none" points="365.64,375.0537,359.365,378.6067,360.2313,385.7656,366.5063,382.2126,365.64,375.0537" style="stroke:#181818;stroke-width:1.0;"/></g><!--SRC=[fLFBReCm4Bpp5JvIDV05KIueQdD0gPIgTsEsuCRsfhOX8b7-lJPf7av2KgadpCmmpEm24zGOmb2cLISBZIdZjaibbY3Ibqxc_a2sKKBUDAv0Mmuc1zLagAn68K2JLK14psGypZHG2vC9EJZ4JmFukwRAVAAMevca5JoMSML72wkvghnsVo86DAU2Ro1sjCUtnbBBsUwGkYCbd4HUCLYd0XjolRn5NhhNN593BlwH0b40LGI-6ofCF2- -WFNXN4PIKrDdhfeptqNivWvQ3ck_WWztTHku78o7RuorXmzpEoRV8CgPYeFxUMFFgjMuFfMvaueTE_fiPtExJdWYWq0FHQFV6iTmaYuX4vmjQI4W3k1NR45VmpDb7SmiRpsHx8cQgbBiZU8S6mFJ5lpd4j0BIxNjNOSrKrLUAtPHzETPOPBSNVV_dCAVzmS0]--></g></svg>