<?xml version="1.0" encoding="us-ascii" standalone="no"?><svg xmlns="http://www.w3.org/2000/svg" xmlns:xlink="http://www.w3.org/1999/xlink" contentStyleType="text/css" height="414px" preserveAspectRatio="none" style="width:235px;height:414px;background:#FFFFFF;" version="1.1" viewBox="0 0 235 414" width="235px" zoomAndPan="magnify"><defs/><g><!--cluster com--><g id="cluster_com"><path d="M8.5,200.0137 L38.5,200.0137 A3.75,3.75 0 0 1 41,202.5137 L48,224.6348 L225.5,224.6348 A2.5,2.5 0 0 1 228,227.1348 L228,404.5137 A2.5,2.5 0 0 1 225.5,407.0137 L8.5,407.0137 A2.5,2.5 0 0 1 6,404.5137 L6,202.5137 A2.5,2.5 0 0 1 8.5,200.0137 " fill="none" style="stroke:#000000;stroke-width:1.5;"/><line style="stroke:#000000;stroke-width:1.5;" x1="6" x2="48" y1="224.6348" y2="224.6348"/><text fill="#000000" font-family="sans-serif" font-size="14" font-weight="bold" lengthAdjust="spacing" textLength="29" x="10" y="217.1211">com</text></g><!--cluster gymbro--><g id="cluster_gymbro"><path d="M32.5,245.0137 L85.5,245.0137 A3.75,3.75 0 0 1 88,247.5137 L95,269.6348 L201.5,269.6348 A2.5,2.5 0 0 1 204,272.1348 L204,380.5137 A2.5,2.5 0 0 1 201.5,383.0137 L32.5,383.0137 A2.5,2.5 0 0 1 30,380.5137 L30,247.5137 A2.5,2.5 0 0 1 32.5,245.0137 " fill="none" style="stroke:#000000;stroke-width:1.5;"/><line style="stroke:#000000;stroke-width:1.5;" x1="30" x2="95" y1="269.6348" y2="269.6348"/><text fill="#000000" font-family="sans-serif" font-size="14" font-weight="bold" lengthAdjust="spacing" textLength="52" x="34" y="262.1211">gymbro</text></g><!--cluster javafx--><g id="cluster_javafx"><path d="M28.5,6.0137 L71.5,6.0137 A3.75,3.75 0 0 1 74,8.5137 L81,30.6348 L205.5,30.6348 A2.5,2.5 0 0 1 208,33.1348 L208,173.5137 A2.5,2.5 0 0 1 205.5,176.0137 L28.5,176.0137 A2.5,2.5 0 0 1 26,173.5137 L26,8.5137 A2.5,2.5 0 0 1 28.5,6.0137 " fill="none" style="stroke:#000000;stroke-width:1.5;"/><line style="stroke:#000000;stroke-width:1.5;" x1="26" x2="81" y1="30.6348" y2="30.6348"/><text fill="#000000" font-family="sans-serif" font-size="14" font-weight="bold" lengthAdjust="spacing" textLength="42" x="30" y="23.1211">javafx</text></g><!--cluster application--><g id="cluster_application"><path d="M52.5,51.0137 L130.5,51.0137 A3.75,3.75 0 0 1 133,53.5137 L140,75.6348 L181.5,75.6348 A2.5,2.5 0 0 1 184,78.1348 L184,149.5137 A2.5,2.5 0 0 1 181.5,152.0137 L52.5,152.0137 A2.5,2.5 0 0 1 50,149.5137 L50,53.5137 A2.5,2.5 0 0 1 52.5,51.0137 " fill="none" style="stroke:#000000;stroke-width:1.5;"/><line style="stroke:#000000;stroke-width:1.5;" x1="50" x2="140" y1="75.6348" y2="75.6348"/><text fill="#000000" font-family="sans-serif" font-size="14" font-weight="bold" lengthAdjust="spacing" textLength="77" x="54" y="68.1211">application</text></g><!--class Main--><g id="elem_Main"><rect codeLine="1" fill="#F1F1F1" height="85.2422" id="Main" rx="2.5" ry="2.5" style="stroke:#181818;stroke-width:0.5;" width="141" x="46.5" y="282.0137"/><ellipse cx="97.75" cy="298.0137" fill="#ADD1B2" rx="11" ry="11" style="stroke:#181818;stroke-width:1.0;"/><path d="M100.5156,293.8887 Q100.6719,293.6699 100.8594,293.5605 Q101.0469,293.4512 101.2656,293.4512 Q101.6406,293.4512 101.875,293.7168 Q102.1094,293.9668 102.1094,294.5762 L102.1094,296.0293 Q102.1094,296.6387 101.875,296.9043 Q101.6406,297.1699 101.2656,297.1699 Q100.9219,297.1699 100.7188,296.9668 Q100.5156,296.7793 100.4063,296.2637 Q100.3594,295.9043 100.1719,295.7168 Q99.8438,295.3418 99.2344,295.123 Q98.625,294.9043 98,294.9043 Q97.2344,294.9043 96.5938,295.2324 Q95.9688,295.5605 95.4688,296.3105 Q94.9844,297.0605 94.9844,298.0918 L94.9844,299.1855 Q94.9844,300.4199 95.875,301.248 Q96.7656,302.0605 98.3594,302.0605 Q99.2969,302.0605 99.9531,301.8105 Q100.3438,301.6543 100.7656,301.2168 Q101.0313,300.9512 101.1719,300.873 Q101.3281,300.7949 101.5313,300.7949 Q101.8594,300.7949 102.1094,301.0605 Q102.375,301.3105 102.375,301.6543 Q102.375,301.998 102.0313,302.4043 Q101.5313,302.9824 100.7344,303.3105 Q99.6563,303.7637 98.3594,303.7637 Q96.8438,303.7637 95.6406,303.1387 Q94.6563,302.6387 93.9688,301.5762 Q93.2813,300.498 93.2813,299.2168 L93.2813,298.0605 Q93.2813,296.7324 93.8906,295.5918 Q94.5156,294.4355 95.6094,293.8262 Q96.7031,293.2012 97.9375,293.2012 Q98.6719,293.2012 99.3125,293.373 Q99.9688,293.5293 100.5156,293.8887 Z " fill="#000000"/><text fill="#000000" font-family="sans-serif" font-size="14" lengthAdjust="spacing" textLength="30" x="118.25" y="303.8105">Main</text><line style="stroke:#181818;stroke-width:0.5;" x1="47.5" x2="186.5" y1="314.0137" y2="314.0137"/><line style="stroke:#181818;stroke-width:0.5;" x1="47.5" x2="186.5" y1="322.0137" y2="322.0137"/><ellipse cx="57.5" cy="336.8242" fill="#84BE84" rx="3" ry="3" style="stroke:#038048;stroke-width:1.0;"/><text fill="#000000" font-family="sans-serif" font-size="14" lengthAdjust="spacing" textLength="105" x="66.5" y="341.1211">void start(Stage)</text><ellipse cx="57.5" cy="355.4453" fill="#84BE84" rx="3" ry="3" style="stroke:#038048;stroke-width:1.0;"/><text fill="#000000" font-family="sans-serif" font-size="14" lengthAdjust="spacing" text-decoration="underline" textLength="115" x="66.5" y="359.7422">void main(String[])</text></g><!--class Application--><g id="elem_Application"><rect fill="#F1F1F1" height="48" id="Application" rx="2.5" ry="2.5" style="stroke:#181818;stroke-width:0.5;" width="101" x="66.5" y="88.0137"/><ellipse cx="81.5" cy="104.0137" fill="#ADD1B2" rx="11" ry="11" style="stroke:#181818;stroke-width:1.0;"/><path d="M84.2656,99.8887 Q84.4219,99.6699 84.6094,99.5605 Q84.7969,99.4512 85.0156,99.4512 Q85.3906,99.4512 85.625,99.7168 Q85.8594,99.9668 85.8594,100.5762 L85.8594,102.0293 Q85.8594,102.6387 85.625,102.9043 Q85.3906,103.1699 85.0156,103.1699 Q84.6719,103.1699 84.4688,102.9668 Q84.2656,102.7793 84.1563,102.2637 Q84.1094,101.9043 83.9219,101.7168 Q83.5938,101.3418 82.9844,101.123 Q82.375,100.9043 81.75,100.9043 Q80.9844,100.9043 80.3438,101.2324 Q79.7188,101.5605 79.2188,102.3105 Q78.7344,103.0605 78.7344,104.0918 L78.7344,105.1855 Q78.7344,106.4199 79.625,107.248 Q80.5156,108.0605 82.1094,108.0605 Q83.0469,108.0605 83.7031,107.8105 Q84.0938,107.6543 84.5156,107.2168 Q84.7813,106.9512 84.9219,106.873 Q85.0781,106.7949 85.2813,106.7949 Q85.6094,106.7949 85.8594,107.0605 Q86.125,107.3105 86.125,107.6543 Q86.125,107.998 85.7813,108.4043 Q85.2813,108.9824 84.4844,109.3105 Q83.4063,109.7637 82.1094,109.7637 Q80.5938,109.7637 79.3906,109.1387 Q78.4063,108.6387 77.7188,107.5762 Q77.0313,106.498 77.0313,105.2168 L77.0313,104.0605 Q77.0313,102.7324 77.6406,101.5918 Q78.2656,100.4355 79.3594,99.8262 Q80.4531,99.2012 81.6875,99.2012 Q82.4219,99.2012 83.0625,99.373 Q83.7188,99.5293 84.2656,99.8887 Z " fill="#000000"/><text fill="#000000" font-family="sans-serif" font-size="14" lengthAdjust="spacing" textLength="69" x="95.5" y="109.8105">Application</text><line style="stroke:#181818;stroke-width:0.5;" x1="67.5" x2="166.5" y1="120.0137" y2="120.0137"/><line style="stroke:#181818;stroke-width:0.5;" x1="67.5" x2="166.5" y1="128.0137" y2="128.0137"/></g><!--reverse link Application to Main--><g id="link_Application_Main"><path codeLine="5" d="M117,156.4737 C117,193.2837 117,245.7137 117,281.9737 " fill="none" id="Application-backto-Main" style="stroke:#181818;stroke-width:1.0;"/><polygon fill="none" points="110,156.3437,117,136.3437,124,156.3437,110,156.3437" style="stroke:#181818;stroke-width:1.0;"/></g><!--SRC=[Iyv9B2vMICxFrKklp4qgojVpJSpCKwZcqbOeoyzCKIWkIImgqGWkIKnFrGIALGFv9Pd9jH39NA1Ie5nHPbvwTAmcLorNLc9PObg5Nc91GKvcCb1XVfwU8uAjO5EZgujk5G00]--></g></svg>