<?xml version="1.0" encoding="us-ascii" standalone="no"?><svg xmlns="http://www.w3.org/2000/svg" xmlns:xlink="http://www.w3.org/1999/xlink" contentStyleType="text/css" height="1044px" preserveAspectRatio="none" style="width:1692px;height:1044px;background:#FFFFFF;" version="1.1" viewBox="0 0 1692 1044" width="1692px" zoomAndPan="magnify"><defs/><g><!--cluster com--><g id="cluster_com"><path d="M8.5,6.0137 L38.5,6.0137 A3.75,3.75 0 0 1 41,8.5137 L48,30.6348 L1682.5,30.6348 A2.5,2.5 0 0 1 1685,33.1348 L1685,1034.5137 A2.5,2.5 0 0 1 1682.5,1037.0137 L8.5,1037.0137 A2.5,2.5 0 0 1 6,1034.5137 L6,8.5137 A2.5,2.5 0 0 1 8.5,6.0137 " fill="none" style="stroke:#000000;stroke-width:1.5;"/><line style="stroke:#000000;stroke-width:1.5;" x1="6" x2="48" y1="30.6348" y2="30.6348"/><text fill="#000000" font-family="sans-serif" font-size="14" font-weight="bold" lengthAdjust="spacing" textLength="29" x="10" y="23.1211">com</text></g><!--cluster gymbro--><g id="cluster_gymbro"><path d="M32.5,51.0137 L85.5,51.0137 A3.75,3.75 0 0 1 88,53.5137 L95,75.6348 L1658.5,75.6348 A2.5,2.5 0 0 1 1661,78.1348 L1661,1010.5137 A2.5,2.5 0 0 1 1658.5,1013.0137 L32.5,1013.0137 A2.5,2.5 0 0 1 30,1010.5137 L30,53.5137 A2.5,2.5 0 0 1 32.5,51.0137 " fill="none" style="stroke:#000000;stroke-width:1.5;"/><line style="stroke:#000000;stroke-width:1.5;" x1="30" x2="95" y1="75.6348" y2="75.6348"/><text fill="#000000" font-family="sans-serif" font-size="14" font-weight="bold" lengthAdjust="spacing" textLength="52" x="34" y="68.1211">gymbro</text></g><!--cluster city--><g id="cluster_city"><path d="M56.5,96.0137 L81.5,96.0137 A3.75,3.75 0 0 1 84,98.5137 L91,120.6348 L1634.5,120.6348 A2.5,2.5 0 0 1 1637,123.1348 L1637,986.5137 A2.5,2.5 0 0 1 1634.5,989.0137 L56.5,989.0137 A2.5,2.5 0 0 1 54,986.5137 L54,98.5137 A2.5,2.5 0 0 1 56.5,96.0137 " fill="none" style="stroke:#000000;stroke-width:1.5;"/><line style="stroke:#000000;stroke-width:1.5;" x1="54" x2="91" y1="120.6348" y2="120.6348"/><text fill="#000000" font-family="sans-serif" font-size="14" font-weight="bold" lengthAdjust="spacing" textLength="24" x="58" y="113.1211">city</text></g><!--cluster builder--><g id="cluster_builder"><path d="M80.5,141.0137 L131.5,141.0137 A3.75,3.75 0 0 1 134,143.5137 L141,165.6348 L1610.5,165.6348 A2.5,2.5 0 0 1 1613,168.1348 L1613,962.5137 A2.5,2.5 0 0 1 1610.5,965.0137 L80.5,965.0137 A2.5,2.5 0 0 1 78,962.5137 L78,143.5137 A2.5,2.5 0 0 1 80.5,141.0137 " fill="none" style="stroke:#000000;stroke-width:1.5;"/><line style="stroke:#000000;stroke-width:1.5;" x1="78" x2="141" y1="165.6348" y2="165.6348"/><text fill="#000000" font-family="sans-serif" font-size="14" font-weight="bold" lengthAdjust="spacing" textLength="50" x="82" y="158.1211">builder</text></g><!--class FavoritesBuilder--><g id="elem_FavoritesBuilder"><rect codeLine="1" fill="#F1F1F1" height="290.0742" id="FavoritesBuilder" rx="2.5" ry="2.5" style="stroke:#181818;stroke-width:0.5;" width="299" x="94.5" y="631.0137"/><ellipse cx="188.25" cy="647.0137" fill="#ADD1B2" rx="11" ry="11" style="stroke:#181818;stroke-width:1.0;"/><path d="M191.0156,642.8887 Q191.1719,642.6699 191.3594,642.5605 Q191.5469,642.4512 191.7656,642.4512 Q192.1406,642.4512 192.375,642.7168 Q192.6094,642.9668 192.6094,643.5762 L192.6094,645.0293 Q192.6094,645.6387 192.375,645.9043 Q192.1406,646.1699 191.7656,646.1699 Q191.4219,646.1699 191.2188,645.9668 Q191.0156,645.7793 190.9063,645.2637 Q190.8594,644.9043 190.6719,644.7168 Q190.3438,644.3418 189.7344,644.123 Q189.125,643.9043 188.5,643.9043 Q187.7344,643.9043 187.0938,644.2324 Q186.4688,644.5605 185.9688,645.3105 Q185.4844,646.0605 185.4844,647.0918 L185.4844,648.1855 Q185.4844,649.4199 186.375,650.248 Q187.2656,651.0605 188.8594,651.0605 Q189.7969,651.0605 190.4531,650.8105 Q190.8438,650.6543 191.2656,650.2168 Q191.5313,649.9512 191.6719,649.873 Q191.8281,649.7949 192.0313,649.7949 Q192.3594,649.7949 192.6094,650.0605 Q192.875,650.3105 192.875,650.6543 Q192.875,650.998 192.5313,651.4043 Q192.0313,651.9824 191.2344,652.3105 Q190.1563,652.7637 188.8594,652.7637 Q187.3438,652.7637 186.1406,652.1387 Q185.1563,651.6387 184.4688,650.5762 Q183.7813,649.498 183.7813,648.2168 L183.7813,647.0605 Q183.7813,645.7324 184.3906,644.5918 Q185.0156,643.4355 186.1094,642.8262 Q187.2031,642.2012 188.4375,642.2012 Q189.1719,642.2012 189.8125,642.373 Q190.4688,642.5293 191.0156,642.8887 Z " fill="#000000"/><text fill="#000000" font-family="sans-serif" font-size="14" lengthAdjust="spacing" textLength="103" x="208.75" y="652.8105">FavoritesBuilder</text><line style="stroke:#181818;stroke-width:0.5;" x1="95.5" x2="392.5" y1="663.0137" y2="663.0137"/><line style="stroke:#181818;stroke-width:0.5;" x1="95.5" x2="392.5" y1="671.0137" y2="671.0137"/><ellipse cx="105.5" cy="685.8242" fill="#84BE84" rx="3" ry="3" style="stroke:#038048;stroke-width:1.0;"/><text fill="#000000" font-family="sans-serif" font-size="14" lengthAdjust="spacing" textLength="176" x="114.5" y="690.1211">&#171;Create&#187; FavoritesBuilder()</text><ellipse cx="105.5" cy="704.4453" fill="#84BE84" rx="3" ry="3" style="stroke:#038048;stroke-width:1.0;"/><text fill="#000000" font-family="sans-serif" font-size="14" lengthAdjust="spacing" textLength="273" x="114.5" y="708.7422">&#171;Create&#187; FavoritesBuilder(FavoritesModel)</text><ellipse cx="105.5" cy="723.0664" fill="#84BE84" rx="3" ry="3" style="stroke:#038048;stroke-width:1.0;"/><text fill="#000000" font-family="sans-serif" font-size="14" lengthAdjust="spacing" textLength="261" x="114.5" y="727.3633">FavoritesBuilder addGym(GymController)</text><ellipse cx="105.5" cy="741.6875" fill="#84BE84" rx="3" ry="3" style="stroke:#038048;stroke-width:1.0;"/><text fill="#000000" font-family="sans-serif" font-size="14" lengthAdjust="spacing" textLength="165" x="114.5" y="745.9844">FavoritesController build()</text><ellipse cx="105.5" cy="760.3086" fill="#84BE84" rx="3" ry="3" style="stroke:#038048;stroke-width:1.0;"/><text fill="#000000" font-family="sans-serif" font-size="14" lengthAdjust="spacing" textLength="265" x="114.5" y="764.6055">FavoritesBuilder addController(Controller)</text><ellipse cx="105.5" cy="778.9297" fill="#84BE84" rx="3" ry="3" style="stroke:#038048;stroke-width:1.0;"/><text fill="#000000" font-family="sans-serif" font-size="14" lengthAdjust="spacing" textLength="217" x="114.5" y="783.2266">FavoritesBuilder addModel(Model)</text><ellipse cx="105.5" cy="797.5508" fill="#84BE84" rx="3" ry="3" style="stroke:#038048;stroke-width:1.0;"/><text fill="#000000" font-family="sans-serif" font-size="14" lengthAdjust="spacing" textLength="199" x="114.5" y="801.8477">FavoritesBuilder addView(View)</text><ellipse cx="105.5" cy="816.1719" fill="#84BE84" rx="3" ry="3" style="stroke:#038048;stroke-width:1.0;"/><text fill="#000000" font-family="sans-serif" font-size="14" lengthAdjust="spacing" textLength="271" x="114.5" y="820.4688">FavoritesBuilder addTransform(Transform)</text><ellipse cx="105.5" cy="834.793" fill="#84BE84" rx="3" ry="3" style="stroke:#038048;stroke-width:1.0;"/><text fill="#000000" font-family="sans-serif" font-size="14" lengthAdjust="spacing" textLength="227" x="114.5" y="839.0898">FavoritesBuilder addTexture(Image)</text><ellipse cx="105.5" cy="853.4141" fill="#84BE84" rx="3" ry="3" style="stroke:#038048;stroke-width:1.0;"/><text fill="#000000" font-family="sans-serif" font-size="14" lengthAdjust="spacing" textLength="226" x="114.5" y="857.7109">FavoritesBuilder addTexture(String)</text><ellipse cx="105.5" cy="872.0352" fill="#84BE84" rx="3" ry="3" style="stroke:#038048;stroke-width:1.0;"/><text fill="#000000" font-family="sans-serif" font-size="14" lengthAdjust="spacing" textLength="217" x="114.5" y="876.332">FavoritesController getController()</text><ellipse cx="105.5" cy="890.6563" fill="#84BE84" rx="3" ry="3" style="stroke:#038048;stroke-width:1.0;"/><text fill="#000000" font-family="sans-serif" font-size="14" lengthAdjust="spacing" textLength="169" x="114.5" y="894.9531">FavoritesModel getModel()</text><ellipse cx="105.5" cy="909.2773" fill="#84BE84" rx="3" ry="3" style="stroke:#038048;stroke-width:1.0;"/><text fill="#000000" font-family="sans-serif" font-size="14" lengthAdjust="spacing" textLength="151" x="114.5" y="913.5742">FavoritesView getView()</text></g><!--class PropertiesMenuBuilder--><g id="elem_PropertiesMenuBuilder"><rect codeLine="16" fill="#F1F1F1" height="327.3164" id="PropertiesMenuBuilder" rx="2.5" ry="2.5" style="stroke:#181818;stroke-width:0.5;" width="399" x="428.5" y="612.5137"/><ellipse cx="551.75" cy="628.5137" fill="#ADD1B2" rx="11" ry="11" style="stroke:#181818;stroke-width:1.0;"/><path d="M554.5156,624.3887 Q554.6719,624.1699 554.8594,624.0605 Q555.0469,623.9512 555.2656,623.9512 Q555.6406,623.9512 555.875,624.2168 Q556.1094,624.4668 556.1094,625.0762 L556.1094,626.5293 Q556.1094,627.1387 555.875,627.4043 Q555.6406,627.6699 555.2656,627.6699 Q554.9219,627.6699 554.7188,627.4668 Q554.5156,627.2793 554.4063,626.7637 Q554.3594,626.4043 554.1719,626.2168 Q553.8438,625.8418 553.2344,625.623 Q552.625,625.4043 552,625.4043 Q551.2344,625.4043 550.5938,625.7324 Q549.9688,626.0605 549.4688,626.8105 Q548.9844,627.5605 548.9844,628.5918 L548.9844,629.6855 Q548.9844,630.9199 549.875,631.748 Q550.7656,632.5605 552.3594,632.5605 Q553.2969,632.5605 553.9531,632.3105 Q554.3438,632.1543 554.7656,631.7168 Q555.0313,631.4512 555.1719,631.373 Q555.3281,631.2949 555.5313,631.2949 Q555.8594,631.2949 556.1094,631.5605 Q556.375,631.8105 556.375,632.1543 Q556.375,632.498 556.0313,632.9043 Q555.5313,633.4824 554.7344,633.8105 Q553.6563,634.2637 552.3594,634.2637 Q550.8438,634.2637 549.6406,633.6387 Q548.6563,633.1387 547.9688,632.0762 Q547.2813,630.998 547.2813,629.7168 L547.2813,628.5605 Q547.2813,627.2324 547.8906,626.0918 Q548.5156,624.9355 549.6094,624.3262 Q550.7031,623.7012 551.9375,623.7012 Q552.6719,623.7012 553.3125,623.873 Q553.9688,624.0293 554.5156,624.3887 Z " fill="#000000"/><text fill="#000000" font-family="sans-serif" font-size="14" lengthAdjust="spacing" textLength="144" x="572.25" y="634.3105">PropertiesMenuBuilder</text><line style="stroke:#181818;stroke-width:0.5;" x1="429.5" x2="826.5" y1="644.5137" y2="644.5137"/><line style="stroke:#181818;stroke-width:0.5;" x1="429.5" x2="826.5" y1="652.5137" y2="652.5137"/><ellipse cx="439.5" cy="667.3242" fill="#84BE84" rx="3" ry="3" style="stroke:#038048;stroke-width:1.0;"/><text fill="#000000" font-family="sans-serif" font-size="14" lengthAdjust="spacing" textLength="217" x="448.5" y="671.6211">&#171;Create&#187; PropertiesMenuBuilder()</text><ellipse cx="439.5" cy="685.9453" fill="#84BE84" rx="3" ry="3" style="stroke:#038048;stroke-width:1.0;"/><text fill="#000000" font-family="sans-serif" font-size="14" lengthAdjust="spacing" textLength="355" x="448.5" y="690.2422">&#171;Create&#187; PropertiesMenuBuilder(PropertiesMenuModel)</text><ellipse cx="439.5" cy="704.5664" fill="#84BE84" rx="3" ry="3" style="stroke:#038048;stroke-width:1.0;"/><text fill="#000000" font-family="sans-serif" font-size="14" lengthAdjust="spacing" textLength="373" x="448.5" y="708.8633">PropertiesMenuBuilder addProperties(ArrayList&lt;Property&gt;)</text><ellipse cx="439.5" cy="723.1875" fill="#84BE84" rx="3" ry="3" style="stroke:#038048;stroke-width:1.0;"/><text fill="#000000" font-family="sans-serif" font-size="14" lengthAdjust="spacing" textLength="290" x="448.5" y="727.4844">PropertiesMenuBuilder addProperty(Property)</text><ellipse cx="439.5" cy="741.8086" fill="#84BE84" rx="3" ry="3" style="stroke:#038048;stroke-width:1.0;"/><text fill="#000000" font-family="sans-serif" font-size="14" lengthAdjust="spacing" textLength="314" x="448.5" y="746.1055">PropertiesMenuBuilder addOwner(GymController)</text><ellipse cx="439.5" cy="760.4297" fill="#84BE84" rx="3" ry="3" style="stroke:#038048;stroke-width:1.0;"/><text fill="#000000" font-family="sans-serif" font-size="14" lengthAdjust="spacing" textLength="206" x="448.5" y="764.7266">PropertiesMenuController build()</text><ellipse cx="439.5" cy="779.0508" fill="#84BE84" rx="3" ry="3" style="stroke:#038048;stroke-width:1.0;"/><text fill="#000000" font-family="sans-serif" font-size="14" lengthAdjust="spacing" textLength="306" x="448.5" y="783.3477">PropertiesMenuBuilder addController(Controller)</text><ellipse cx="439.5" cy="797.6719" fill="#84BE84" rx="3" ry="3" style="stroke:#038048;stroke-width:1.0;"/><text fill="#000000" font-family="sans-serif" font-size="14" lengthAdjust="spacing" textLength="258" x="448.5" y="801.9688">PropertiesMenuBuilder addModel(Model)</text><ellipse cx="439.5" cy="816.293" fill="#84BE84" rx="3" ry="3" style="stroke:#038048;stroke-width:1.0;"/><text fill="#000000" font-family="sans-serif" font-size="14" lengthAdjust="spacing" textLength="240" x="448.5" y="820.5898">PropertiesMenuBuilder addView(View)</text><ellipse cx="439.5" cy="834.9141" fill="#84BE84" rx="3" ry="3" style="stroke:#038048;stroke-width:1.0;"/><text fill="#000000" font-family="sans-serif" font-size="14" lengthAdjust="spacing" textLength="312" x="448.5" y="839.2109">PropertiesMenuBuilder addTransform(Transform)</text><ellipse cx="439.5" cy="853.5352" fill="#84BE84" rx="3" ry="3" style="stroke:#038048;stroke-width:1.0;"/><text fill="#000000" font-family="sans-serif" font-size="14" lengthAdjust="spacing" textLength="268" x="448.5" y="857.832">PropertiesMenuBuilder addTexture(Image)</text><ellipse cx="439.5" cy="872.1563" fill="#84BE84" rx="3" ry="3" style="stroke:#038048;stroke-width:1.0;"/><text fill="#000000" font-family="sans-serif" font-size="14" lengthAdjust="spacing" textLength="267" x="448.5" y="876.4531">PropertiesMenuBuilder addTexture(String)</text><ellipse cx="439.5" cy="890.7773" fill="#84BE84" rx="3" ry="3" style="stroke:#038048;stroke-width:1.0;"/><text fill="#000000" font-family="sans-serif" font-size="14" lengthAdjust="spacing" textLength="258" x="448.5" y="895.0742">PropertiesMenuController getController()</text><ellipse cx="439.5" cy="909.3984" fill="#84BE84" rx="3" ry="3" style="stroke:#038048;stroke-width:1.0;"/><text fill="#000000" font-family="sans-serif" font-size="14" lengthAdjust="spacing" textLength="210" x="448.5" y="913.6953">PropertiesMenuModel getModel()</text><ellipse cx="439.5" cy="928.0195" fill="#84BE84" rx="3" ry="3" style="stroke:#038048;stroke-width:1.0;"/><text fill="#000000" font-family="sans-serif" font-size="14" lengthAdjust="spacing" textLength="192" x="448.5" y="932.3164">PropertiesMenuView getView()</text></g><!--class GymBuilder--><g id="elem_GymBuilder"><rect codeLine="33" fill="#F1F1F1" height="345.9375" id="GymBuilder" rx="2.5" ry="2.5" style="stroke:#181818;stroke-width:0.5;" width="399" x="862.5" y="603.0137"/><ellipse cx="1021.25" cy="619.0137" fill="#ADD1B2" rx="11" ry="11" style="stroke:#181818;stroke-width:1.0;"/><path d="M1024.0156,614.8887 Q1024.1719,614.6699 1024.3594,614.5605 Q1024.5469,614.4512 1024.7656,614.4512 Q1025.1406,614.4512 1025.375,614.7168 Q1025.6094,614.9668 1025.6094,615.5762 L1025.6094,617.0293 Q1025.6094,617.6387 1025.375,617.9043 Q1025.1406,618.1699 1024.7656,618.1699 Q1024.4219,618.1699 1024.2188,617.9668 Q1024.0156,617.7793 1023.9063,617.2637 Q1023.8594,616.9043 1023.6719,616.7168 Q1023.3438,616.3418 1022.7344,616.123 Q1022.125,615.9043 1021.5,615.9043 Q1020.7344,615.9043 1020.0938,616.2324 Q1019.4688,616.5605 1018.9688,617.3105 Q1018.4844,618.0605 1018.4844,619.0918 L1018.4844,620.1855 Q1018.4844,621.4199 1019.375,622.248 Q1020.2656,623.0605 1021.8594,623.0605 Q1022.7969,623.0605 1023.4531,622.8105 Q1023.8438,622.6543 1024.2656,622.2168 Q1024.5313,621.9512 1024.6719,621.873 Q1024.8281,621.7949 1025.0313,621.7949 Q1025.3594,621.7949 1025.6094,622.0605 Q1025.875,622.3105 1025.875,622.6543 Q1025.875,622.998 1025.5313,623.4043 Q1025.0313,623.9824 1024.2344,624.3105 Q1023.1563,624.7637 1021.8594,624.7637 Q1020.3438,624.7637 1019.1406,624.1387 Q1018.1563,623.6387 1017.4688,622.5762 Q1016.7813,621.498 1016.7813,620.2168 L1016.7813,619.0605 Q1016.7813,617.7324 1017.3906,616.5918 Q1018.0156,615.4355 1019.1094,614.8262 Q1020.2031,614.2012 1021.4375,614.2012 Q1022.1719,614.2012 1022.8125,614.373 Q1023.4688,614.5293 1024.0156,614.8887 Z " fill="#000000"/><text fill="#000000" font-family="sans-serif" font-size="14" lengthAdjust="spacing" textLength="73" x="1041.75" y="624.8105">GymBuilder</text><line style="stroke:#181818;stroke-width:0.5;" x1="863.5" x2="1260.5" y1="635.0137" y2="635.0137"/><line style="stroke:#181818;stroke-width:0.5;" x1="863.5" x2="1260.5" y1="643.0137" y2="643.0137"/><ellipse cx="873.5" cy="657.8242" fill="#84BE84" rx="3" ry="3" style="stroke:#038048;stroke-width:1.0;"/><text fill="#000000" font-family="sans-serif" font-size="14" lengthAdjust="spacing" textLength="146" x="882.5" y="662.1211">&#171;Create&#187; GymBuilder()</text><ellipse cx="873.5" cy="676.4453" fill="#84BE84" rx="3" ry="3" style="stroke:#038048;stroke-width:1.0;"/><text fill="#000000" font-family="sans-serif" font-size="14" lengthAdjust="spacing" textLength="213" x="882.5" y="680.7422">&#171;Create&#187; GymBuilder(GymModel)</text><ellipse cx="873.5" cy="695.0664" fill="#84BE84" rx="3" ry="3" style="stroke:#038048;stroke-width:1.0;"/><text fill="#000000" font-family="sans-serif" font-size="14" lengthAdjust="spacing" textLength="373" x="882.5" y="699.3633">GymBuilder addPropertiesMenu(PropertiesMenuController)</text><ellipse cx="873.5" cy="713.6875" fill="#84BE84" rx="3" ry="3" style="stroke:#038048;stroke-width:1.0;"/><text fill="#000000" font-family="sans-serif" font-size="14" lengthAdjust="spacing" textLength="178" x="882.5" y="717.9844">GymBuilder makeClickable()</text><ellipse cx="873.5" cy="732.3086" fill="#84BE84" rx="3" ry="3" style="stroke:#038048;stroke-width:1.0;"/><text fill="#000000" font-family="sans-serif" font-size="14" lengthAdjust="spacing" textLength="185" x="882.5" y="736.6055">GymBuilder makeHoverable()</text><ellipse cx="873.5" cy="750.9297" fill="#84BE84" rx="3" ry="3" style="stroke:#038048;stroke-width:1.0;"/><text fill="#000000" font-family="sans-serif" font-size="14" lengthAdjust="spacing" textLength="186" x="882.5" y="755.2266">GymBuilder makeInteractive()</text><ellipse cx="873.5" cy="769.5508" fill="#84BE84" rx="3" ry="3" style="stroke:#038048;stroke-width:1.0;"/><text fill="#000000" font-family="sans-serif" font-size="14" lengthAdjust="spacing" textLength="135" x="882.5" y="773.8477">GymController build()</text><ellipse cx="873.5" cy="788.1719" fill="#84BE84" rx="3" ry="3" style="stroke:#038048;stroke-width:1.0;"/><text fill="#000000" font-family="sans-serif" font-size="14" lengthAdjust="spacing" textLength="235" x="882.5" y="792.4688">GymBuilder addController(Controller)</text><ellipse cx="873.5" cy="806.793" fill="#84BE84" rx="3" ry="3" style="stroke:#038048;stroke-width:1.0;"/><text fill="#000000" font-family="sans-serif" font-size="14" lengthAdjust="spacing" textLength="187" x="882.5" y="811.0898">GymBuilder addModel(Model)</text><ellipse cx="873.5" cy="825.4141" fill="#84BE84" rx="3" ry="3" style="stroke:#038048;stroke-width:1.0;"/><text fill="#000000" font-family="sans-serif" font-size="14" lengthAdjust="spacing" textLength="169" x="882.5" y="829.7109">GymBuilder addView(View)</text><ellipse cx="873.5" cy="844.0352" fill="#84BE84" rx="3" ry="3" style="stroke:#038048;stroke-width:1.0;"/><text fill="#000000" font-family="sans-serif" font-size="14" lengthAdjust="spacing" textLength="241" x="882.5" y="848.332">GymBuilder addTransform(Transform)</text><ellipse cx="873.5" cy="862.6563" fill="#84BE84" rx="3" ry="3" style="stroke:#038048;stroke-width:1.0;"/><text fill="#000000" font-family="sans-serif" font-size="14" lengthAdjust="spacing" textLength="197" x="882.5" y="866.9531">GymBuilder addTexture(Image)</text><ellipse cx="873.5" cy="881.2773" fill="#84BE84" rx="3" ry="3" style="stroke:#038048;stroke-width:1.0;"/><text fill="#000000" font-family="sans-serif" font-size="14" lengthAdjust="spacing" textLength="196" x="882.5" y="885.5742">GymBuilder addTexture(String)</text><ellipse cx="873.5" cy="899.8984" fill="#84BE84" rx="3" ry="3" style="stroke:#038048;stroke-width:1.0;"/><text fill="#000000" font-family="sans-serif" font-size="14" lengthAdjust="spacing" textLength="187" x="882.5" y="904.1953">GymController getController()</text><ellipse cx="873.5" cy="918.5195" fill="#84BE84" rx="3" ry="3" style="stroke:#038048;stroke-width:1.0;"/><text fill="#000000" font-family="sans-serif" font-size="14" lengthAdjust="spacing" textLength="139" x="882.5" y="922.8164">GymModel getModel()</text><ellipse cx="873.5" cy="937.1406" fill="#84BE84" rx="3" ry="3" style="stroke:#038048;stroke-width:1.0;"/><text fill="#000000" font-family="sans-serif" font-size="14" lengthAdjust="spacing" textLength="121" x="882.5" y="941.4375">GymView getView()</text></g><!--class BuilderMVC--><g id="elem_BuilderMVC"><rect codeLine="51" fill="#F1F1F1" height="364.5586" id="BuilderMVC" rx="2.5" ry="2.5" style="stroke:#181818;stroke-width:0.5;" width="310" x="690" y="178.0137"/><ellipse cx="803.25" cy="194.0137" fill="#A9DCDF" rx="11" ry="11" style="stroke:#181818;stroke-width:1.0;"/><path d="M805.4375,195.7793 L801.2969,195.7793 L800.875,196.8105 L801.2969,196.8105 Q801.9063,196.8105 802.1719,197.0449 Q802.4375,197.2793 802.4375,197.6699 Q802.4375,198.0449 802.1719,198.2793 Q801.9063,198.5137 801.2969,198.5137 L799,198.5137 Q798.3906,198.5137 798.1406,198.2793 Q797.875,198.0449 797.875,197.6543 Q797.875,197.2793 798.1563,197.0449 Q798.4219,196.7949 799.0469,196.8105 L801.7188,190.1543 L800.6094,190.1543 Q800,190.1543 799.7344,189.9199 Q799.4688,189.6855 799.4688,189.2949 Q799.4688,188.9199 799.7344,188.6855 Q800,188.4512 800.6094,188.4512 L804.2813,188.4512 L807.6719,196.8105 Q808.2656,196.8105 808.4531,196.9512 Q808.8438,197.2168 808.8438,197.6699 Q808.8438,198.0449 808.5781,198.2793 Q808.3281,198.5137 807.7188,198.5137 L805.4219,198.5137 Q804.8125,198.5137 804.5469,198.2793 Q804.2813,198.0449 804.2813,197.6543 Q804.2813,197.2793 804.5469,197.0449 Q804.8125,196.8105 805.4219,196.8105 L805.8438,196.8105 L805.4375,195.7793 Z M804.7188,194.0762 L803.3594,190.7012 L801.9844,194.0762 L804.7188,194.0762 Z " fill="#000000"/><text fill="#000000" font-family="sans-serif" font-size="14" font-style="italic" lengthAdjust="spacing" textLength="75" x="823.75" y="199.8105">BuilderMVC</text><line style="stroke:#181818;stroke-width:0.5;" x1="691" x2="999" y1="210.0137" y2="210.0137"/><rect fill="none" height="6" style="stroke:#C82930;stroke-width:1.0;" width="6" x="698" y="221.8242"/><text fill="#000000" font-family="sans-serif" font-size="14" lengthAdjust="spacing" textLength="125" x="710" y="229.1211">Controller controller</text><rect fill="none" height="6" style="stroke:#C82930;stroke-width:1.0;" width="6" x="698" y="240.4453"/><text fill="#000000" font-family="sans-serif" font-size="14" lengthAdjust="spacing" textLength="80" x="710" y="247.7422">Model model</text><rect fill="none" height="6" style="stroke:#C82930;stroke-width:1.0;" width="6" x="698" y="259.0664"/><text fill="#000000" font-family="sans-serif" font-size="14" lengthAdjust="spacing" textLength="60" x="710" y="266.3633">View view</text><line style="stroke:#181818;stroke-width:0.5;" x1="691" x2="999" y1="273.877" y2="273.877"/><ellipse cx="701" cy="288.6875" fill="#84BE84" rx="3" ry="3" style="stroke:#038048;stroke-width:1.0;"/><text fill="#000000" font-family="sans-serif" font-size="14" lengthAdjust="spacing" textLength="284" x="710" y="292.9844">&#171;Create&#187; BuilderMVC(Model,View,Controller)</text><ellipse cx="701" cy="307.3086" fill="#84BE84" rx="3" ry="3" style="stroke:#038048;stroke-width:1.0;"/><text fill="#000000" font-family="sans-serif" font-size="14" lengthAdjust="spacing" textLength="106" x="710" y="311.6055">Controller build()</text><ellipse cx="701" cy="325.9297" fill="#84BE84" rx="3" ry="3" style="stroke:#038048;stroke-width:1.0;"/><text fill="#000000" font-family="sans-serif" font-size="14" lengthAdjust="spacing" textLength="236" x="710" y="330.2266">BuilderMVC addController(Controller)</text><ellipse cx="701" cy="344.5508" fill="#84BE84" rx="3" ry="3" style="stroke:#038048;stroke-width:1.0;"/><text fill="#000000" font-family="sans-serif" font-size="14" lengthAdjust="spacing" textLength="188" x="710" y="348.8477">BuilderMVC addModel(Model)</text><ellipse cx="701" cy="363.1719" fill="#84BE84" rx="3" ry="3" style="stroke:#038048;stroke-width:1.0;"/><text fill="#000000" font-family="sans-serif" font-size="14" lengthAdjust="spacing" textLength="170" x="710" y="367.4688">BuilderMVC addView(View)</text><ellipse cx="701" cy="381.793" fill="#84BE84" rx="3" ry="3" style="stroke:#038048;stroke-width:1.0;"/><text fill="#000000" font-family="sans-serif" font-size="14" lengthAdjust="spacing" textLength="242" x="710" y="386.0898">BuilderMVC addTransform(Transform)</text><ellipse cx="701" cy="400.4141" fill="#84BE84" rx="3" ry="3" style="stroke:#038048;stroke-width:1.0;"/><text fill="#000000" font-family="sans-serif" font-size="14" lengthAdjust="spacing" textLength="198" x="710" y="404.7109">BuilderMVC addTexture(Image)</text><ellipse cx="701" cy="419.0352" fill="#84BE84" rx="3" ry="3" style="stroke:#038048;stroke-width:1.0;"/><text fill="#000000" font-family="sans-serif" font-size="14" lengthAdjust="spacing" textLength="197" x="710" y="423.332">BuilderMVC addTexture(String)</text><ellipse cx="701" cy="437.6563" fill="#84BE84" rx="3" ry="3" style="stroke:#038048;stroke-width:1.0;"/><text fill="#000000" font-family="sans-serif" font-size="14" lengthAdjust="spacing" textLength="158" x="710" y="441.9531">Controller getController()</text><ellipse cx="701" cy="456.2773" fill="#84BE84" rx="3" ry="3" style="stroke:#038048;stroke-width:1.0;"/><text fill="#000000" font-family="sans-serif" font-size="14" lengthAdjust="spacing" textLength="183" x="710" y="460.5742">void setController(Controller)</text><ellipse cx="701" cy="474.8984" fill="#84BE84" rx="3" ry="3" style="stroke:#038048;stroke-width:1.0;"/><text fill="#000000" font-family="sans-serif" font-size="14" lengthAdjust="spacing" textLength="110" x="710" y="479.1953">Model getModel()</text><ellipse cx="701" cy="493.5195" fill="#84BE84" rx="3" ry="3" style="stroke:#038048;stroke-width:1.0;"/><text fill="#000000" font-family="sans-serif" font-size="14" lengthAdjust="spacing" textLength="135" x="710" y="497.8164">void setModel(Model)</text><ellipse cx="701" cy="512.1406" fill="#84BE84" rx="3" ry="3" style="stroke:#038048;stroke-width:1.0;"/><text fill="#000000" font-family="sans-serif" font-size="14" lengthAdjust="spacing" textLength="92" x="710" y="516.4375">View getView()</text><ellipse cx="701" cy="530.7617" fill="#84BE84" rx="3" ry="3" style="stroke:#038048;stroke-width:1.0;"/><text fill="#000000" font-family="sans-serif" font-size="14" lengthAdjust="spacing" textLength="117" x="710" y="535.0586">void setView(View)</text></g><!--class MapBuilder--><g id="elem_MapBuilder"><rect codeLine="70" fill="#F1F1F1" height="290.0742" id="MapBuilder" rx="2.5" ry="2.5" style="stroke:#181818;stroke-width:0.5;" width="300" x="1297" y="631.0137"/><ellipse cx="1407.25" cy="647.0137" fill="#ADD1B2" rx="11" ry="11" style="stroke:#181818;stroke-width:1.0;"/><path d="M1410.0156,642.8887 Q1410.1719,642.6699 1410.3594,642.5605 Q1410.5469,642.4512 1410.7656,642.4512 Q1411.1406,642.4512 1411.375,642.7168 Q1411.6094,642.9668 1411.6094,643.5762 L1411.6094,645.0293 Q1411.6094,645.6387 1411.375,645.9043 Q1411.1406,646.1699 1410.7656,646.1699 Q1410.4219,646.1699 1410.2188,645.9668 Q1410.0156,645.7793 1409.9063,645.2637 Q1409.8594,644.9043 1409.6719,644.7168 Q1409.3438,644.3418 1408.7344,644.123 Q1408.125,643.9043 1407.5,643.9043 Q1406.7344,643.9043 1406.0938,644.2324 Q1405.4688,644.5605 1404.9688,645.3105 Q1404.4844,646.0605 1404.4844,647.0918 L1404.4844,648.1855 Q1404.4844,649.4199 1405.375,650.248 Q1406.2656,651.0605 1407.8594,651.0605 Q1408.7969,651.0605 1409.4531,650.8105 Q1409.8438,650.6543 1410.2656,650.2168 Q1410.5313,649.9512 1410.6719,649.873 Q1410.8281,649.7949 1411.0313,649.7949 Q1411.3594,649.7949 1411.6094,650.0605 Q1411.875,650.3105 1411.875,650.6543 Q1411.875,650.998 1411.5313,651.4043 Q1411.0313,651.9824 1410.2344,652.3105 Q1409.1563,652.7637 1407.8594,652.7637 Q1406.3438,652.7637 1405.1406,652.1387 Q1404.1563,651.6387 1403.4688,650.5762 Q1402.7813,649.498 1402.7813,648.2168 L1402.7813,647.0605 Q1402.7813,645.7324 1403.3906,644.5918 Q1404.0156,643.4355 1405.1094,642.8262 Q1406.2031,642.2012 1407.4375,642.2012 Q1408.1719,642.2012 1408.8125,642.373 Q1409.4688,642.5293 1410.0156,642.8887 Z " fill="#000000"/><text fill="#000000" font-family="sans-serif" font-size="14" lengthAdjust="spacing" textLength="71" x="1427.75" y="652.8105">MapBuilder</text><line style="stroke:#181818;stroke-width:0.5;" x1="1298" x2="1596" y1="663.0137" y2="663.0137"/><line style="stroke:#181818;stroke-width:0.5;" x1="1298" x2="1596" y1="671.0137" y2="671.0137"/><ellipse cx="1308" cy="685.8242" fill="#84BE84" rx="3" ry="3" style="stroke:#038048;stroke-width:1.0;"/><text fill="#000000" font-family="sans-serif" font-size="14" lengthAdjust="spacing" textLength="144" x="1317" y="690.1211">&#171;Create&#187; MapBuilder()</text><ellipse cx="1308" cy="704.4453" fill="#84BE84" rx="3" ry="3" style="stroke:#038048;stroke-width:1.0;"/><text fill="#000000" font-family="sans-serif" font-size="14" lengthAdjust="spacing" textLength="209" x="1317" y="708.7422">&#171;Create&#187; MapBuilder(MapModel)</text><ellipse cx="1308" cy="723.0664" fill="#84BE84" rx="3" ry="3" style="stroke:#038048;stroke-width:1.0;"/><text fill="#000000" font-family="sans-serif" font-size="14" lengthAdjust="spacing" textLength="274" x="1317" y="727.3633">MapBuilder addGyms(List&lt;GymController&gt;)</text><ellipse cx="1308" cy="741.6875" fill="#84BE84" rx="3" ry="3" style="stroke:#038048;stroke-width:1.0;"/><text fill="#000000" font-family="sans-serif" font-size="14" lengthAdjust="spacing" textLength="133" x="1317" y="745.9844">MapController build()</text><ellipse cx="1308" cy="760.3086" fill="#84BE84" rx="3" ry="3" style="stroke:#038048;stroke-width:1.0;"/><text fill="#000000" font-family="sans-serif" font-size="14" lengthAdjust="spacing" textLength="233" x="1317" y="764.6055">MapBuilder addController(Controller)</text><ellipse cx="1308" cy="778.9297" fill="#84BE84" rx="3" ry="3" style="stroke:#038048;stroke-width:1.0;"/><text fill="#000000" font-family="sans-serif" font-size="14" lengthAdjust="spacing" textLength="185" x="1317" y="783.2266">MapBuilder addModel(Model)</text><ellipse cx="1308" cy="797.5508" fill="#84BE84" rx="3" ry="3" style="stroke:#038048;stroke-width:1.0;"/><text fill="#000000" font-family="sans-serif" font-size="14" lengthAdjust="spacing" textLength="167" x="1317" y="801.8477">MapBuilder addView(View)</text><ellipse cx="1308" cy="816.1719" fill="#84BE84" rx="3" ry="3" style="stroke:#038048;stroke-width:1.0;"/><text fill="#000000" font-family="sans-serif" font-size="14" lengthAdjust="spacing" textLength="239" x="1317" y="820.4688">MapBuilder addTransform(Transform)</text><ellipse cx="1308" cy="834.793" fill="#84BE84" rx="3" ry="3" style="stroke:#038048;stroke-width:1.0;"/><text fill="#000000" font-family="sans-serif" font-size="14" lengthAdjust="spacing" textLength="195" x="1317" y="839.0898">MapBuilder addTexture(Image)</text><ellipse cx="1308" cy="853.4141" fill="#84BE84" rx="3" ry="3" style="stroke:#038048;stroke-width:1.0;"/><text fill="#000000" font-family="sans-serif" font-size="14" lengthAdjust="spacing" textLength="194" x="1317" y="857.7109">MapBuilder addTexture(String)</text><ellipse cx="1308" cy="872.0352" fill="#84BE84" rx="3" ry="3" style="stroke:#038048;stroke-width:1.0;"/><text fill="#000000" font-family="sans-serif" font-size="14" lengthAdjust="spacing" textLength="185" x="1317" y="876.332">MapController getController()</text><ellipse cx="1308" cy="890.6563" fill="#84BE84" rx="3" ry="3" style="stroke:#038048;stroke-width:1.0;"/><text fill="#000000" font-family="sans-serif" font-size="14" lengthAdjust="spacing" textLength="137" x="1317" y="894.9531">MapModel getModel()</text><ellipse cx="1308" cy="909.2773" fill="#84BE84" rx="3" ry="3" style="stroke:#038048;stroke-width:1.0;"/><text fill="#000000" font-family="sans-serif" font-size="14" lengthAdjust="spacing" textLength="119" x="1317" y="913.5742">MapView getView()</text></g><!--reverse link BuilderMVC to FavoritesBuilder--><g id="link_BuilderMVC_FavoritesBuilder"><path codeLine="86" d="M671.98,442.9637 C589.44,485.4437 491.41,541.3737 411,603.0137 C399.77,611.6237 388.57,620.9737 377.61,630.7337 " fill="none" id="BuilderMVC-backto-FavoritesBuilder" style="stroke:#181818;stroke-width:1.0;"/><polygon fill="none" points="668.88,436.6837,689.88,433.8337,675.24,449.1537,668.88,436.6837" style="stroke:#181818;stroke-width:1.0;"/></g><!--reverse link BuilderMVC to GymBuilder--><g id="link_BuilderMVC_GymBuilder"><path codeLine="87" d="M949.64,560.9137 C957.01,574.9537 964.4,589.0337 971.67,602.8937 " fill="none" id="BuilderMVC-backto-GymBuilder" style="stroke:#181818;stroke-width:1.0;"/><polygon fill="none" points="943.43,564.1437,940.34,543.1837,955.83,557.6337,943.43,564.1437" style="stroke:#181818;stroke-width:1.0;"/></g><!--reverse link BuilderMVC to MapBuilder--><g id="link_BuilderMVC_MapBuilder"><path codeLine="88" d="M1017.94,443.0737 C1100.46,485.5737 1198.49,541.4937 1279,603.0137 C1290.28,611.6337 1301.52,620.9937 1312.54,630.7537 " fill="none" id="BuilderMVC-backto-MapBuilder" style="stroke:#181818;stroke-width:1.0;"/><polygon fill="none" points="1014.68,449.2637,1000.04,433.9337,1021.04,436.7937,1014.68,449.2637" style="stroke:#181818;stroke-width:1.0;"/></g><!--reverse link BuilderMVC to PropertiesMenuBuilder--><g id="link_BuilderMVC_PropertiesMenuBuilder"><path codeLine="89" d="M740.3,561.0237 C731.29,578.1837 722.25,595.4137 713.42,612.2337 " fill="none" id="BuilderMVC-backto-PropertiesMenuBuilder" style="stroke:#181818;stroke-width:1.0;"/><polygon fill="none" points="734.17,557.6337,749.66,543.1837,746.57,564.1437,734.17,557.6337" style="stroke:#181818;stroke-width:1.0;"/></g><!--SRC=[fLR1Zjem4BtdAt8qAl052AcBj2rIKIkrucuI5rcRnCWneL6x_xvs0h5duWbK78Z2lEVnpBmN9rd1wphDLBayjkL1gsKcJRiyd6MH2xryvOtIqeZwfG-aVvDFwMgrqO8RiLwd66UpE_WGsAbS58uzseBd-PUsPFQtKPNHgYY41aGVJhiw6PN64ncHAY1t1R79ilPIN9YxK8HVcbVrRwLBDjoHLF77dBLWsv8VnJtIJwDbTQI6S1Gcw1ImkdOSeUyEOAuH1tLTpPBt99kqmW-jJa8RQPEAwapu8Kh2feYJO7JG8RwjdOq7s6UjUVjDrcPr3RRhHvQsjptRIVRtIsNB6zaHygEU95EInYHN87UIF61HaaNubEPZizvbUiUISnhRDc81w5r8-4y3MmK9rte4MpL0xEqm_Y0LSAAhYb4DeuKbVnERGcPl_5085W6_gaPe2jnMneAPaSq0Hoq8AoLz1sd8R1043eCGOIj4mbwAmzv0iBMnQsx2GAlOwCWV_50RDxHqsYZNQdRxZJNA8WqspuPR6-ytBTtL_kisQ-m56iZdwkSvTxmv77vKkA28AU4W3Ga7GI0SX0ZX40aB5uUzS9EgDKhcQGt2iBE8fhSrg4sai-S57Tyx77RyH1mE7i67Gu3Osw6S85N_ALEpxjq4VBo-CgFQmmpqX00D3GM2G7i84TeZ4jO-3dljOMjZ-My3WmBRwEYXJHvuJ5V_5ek7ls6VJkWFhATJ-J4-dIhwIau-0000]--></g></svg>