<?xml version="1.0" encoding="us-ascii" standalone="no"?><svg xmlns="http://www.w3.org/2000/svg" xmlns:xlink="http://www.w3.org/1999/xlink" contentStyleType="text/css" height="683px" preserveAspectRatio="none" style="width:1130px;height:683px;background:#FFFFFF;" version="1.1" viewBox="0 0 1130 683" width="1130px" zoomAndPan="magnify"><defs/><g><!--cluster com--><g id="cluster_com"><path d="M8.5,200.0137 L38.5,200.0137 A3.75,3.75 0 0 1 41,202.5137 L48,224.6348 L1120.5,224.6348 A2.5,2.5 0 0 1 1123,227.1348 L1123,673.5137 A2.5,2.5 0 0 1 1120.5,676.0137 L8.5,676.0137 A2.5,2.5 0 0 1 6,673.5137 L6,202.5137 A2.5,2.5 0 0 1 8.5,200.0137 " fill="none" style="stroke:#000000;stroke-width:1.5;"/><line style="stroke:#000000;stroke-width:1.5;" x1="6" x2="48" y1="224.6348" y2="224.6348"/><text fill="#000000" font-family="sans-serif" font-size="14" font-weight="bold" lengthAdjust="spacing" textLength="29" x="10" y="217.1211">com</text></g><!--cluster gymbro--><g id="cluster_gymbro"><path d="M32.5,245.0137 L85.5,245.0137 A3.75,3.75 0 0 1 88,247.5137 L95,269.6348 L1096.5,269.6348 A2.5,2.5 0 0 1 1099,272.1348 L1099,649.5137 A2.5,2.5 0 0 1 1096.5,652.0137 L32.5,652.0137 A2.5,2.5 0 0 1 30,649.5137 L30,247.5137 A2.5,2.5 0 0 1 32.5,245.0137 " fill="none" style="stroke:#000000;stroke-width:1.5;"/><line style="stroke:#000000;stroke-width:1.5;" x1="30" x2="95" y1="269.6348" y2="269.6348"/><text fill="#000000" font-family="sans-serif" font-size="14" font-weight="bold" lengthAdjust="spacing" textLength="52" x="34" y="262.1211">gymbro</text></g><!--cluster managers--><g id="cluster_managers"><path d="M56.5,290.0137 L126.5,290.0137 A3.75,3.75 0 0 1 129,292.5137 L136,314.6348 L1072.5,314.6348 A2.5,2.5 0 0 1 1075,317.1348 L1075,625.5137 A2.5,2.5 0 0 1 1072.5,628.0137 L56.5,628.0137 A2.5,2.5 0 0 1 54,625.5137 L54,292.5137 A2.5,2.5 0 0 1 56.5,290.0137 " fill="none" style="stroke:#000000;stroke-width:1.5;"/><line style="stroke:#000000;stroke-width:1.5;" x1="54" x2="136" y1="314.6348" y2="314.6348"/><text fill="#000000" font-family="sans-serif" font-size="14" font-weight="bold" lengthAdjust="spacing" textLength="69" x="58" y="307.1211">managers</text></g><!--cluster event--><g id="cluster_event"><path d="M80.5,335.0137 L122.5,335.0137 A3.75,3.75 0 0 1 125,337.5137 L132,359.6348 L1048.5,359.6348 A2.5,2.5 0 0 1 1051,362.1348 L1051,601.5137 A2.5,2.5 0 0 1 1048.5,604.0137 L80.5,604.0137 A2.5,2.5 0 0 1 78,601.5137 L78,337.5137 A2.5,2.5 0 0 1 80.5,335.0137 " fill="none" style="stroke:#000000;stroke-width:1.5;"/><line style="stroke:#000000;stroke-width:1.5;" x1="78" x2="132" y1="359.6348" y2="359.6348"/><text fill="#000000" font-family="sans-serif" font-size="14" font-weight="bold" lengthAdjust="spacing" textLength="41" x="82" y="352.1211">event</text></g><!--cluster javafx--><g id="cluster_javafx"><path d="M480.5,6.0137 L523.5,6.0137 A3.75,3.75 0 0 1 526,8.5137 L533,30.6348 L623.5,30.6348 A2.5,2.5 0 0 1 626,33.1348 L626,173.5137 A2.5,2.5 0 0 1 623.5,176.0137 L480.5,176.0137 A2.5,2.5 0 0 1 478,173.5137 L478,8.5137 A2.5,2.5 0 0 1 480.5,6.0137 " fill="none" style="stroke:#000000;stroke-width:1.5;"/><line style="stroke:#000000;stroke-width:1.5;" x1="478" x2="533" y1="30.6348" y2="30.6348"/><text fill="#000000" font-family="sans-serif" font-size="14" font-weight="bold" lengthAdjust="spacing" textLength="42" x="482" y="23.1211">javafx</text></g><!--cluster event--><g id="cluster_event"><path d="M504.5,51.0137 L546.5,51.0137 A3.75,3.75 0 0 1 549,53.5137 L556,75.6348 L599.5,75.6348 A2.5,2.5 0 0 1 602,78.1348 L602,149.5137 A2.5,2.5 0 0 1 599.5,152.0137 L504.5,152.0137 A2.5,2.5 0 0 1 502,149.5137 L502,53.5137 A2.5,2.5 0 0 1 504.5,51.0137 " fill="none" style="stroke:#000000;stroke-width:1.5;"/><line style="stroke:#000000;stroke-width:1.5;" x1="502" x2="556" y1="75.6348" y2="75.6348"/><text fill="#000000" font-family="sans-serif" font-size="14" font-weight="bold" lengthAdjust="spacing" textLength="41" x="506" y="68.1211">event</text></g><!--class EventManager--><g id="elem_EventManager"><rect codeLine="1" fill="#F1F1F1" height="215.5898" id="EventManager" rx="2.5" ry="2.5" style="stroke:#181818;stroke-width:0.5;" width="478" x="557" y="372.0137"/><ellipse cx="745.75" cy="388.0137" fill="#ADD1B2" rx="11" ry="11" style="stroke:#181818;stroke-width:1.0;"/><path d="M748.5156,383.8887 Q748.6719,383.6699 748.8594,383.5605 Q749.0469,383.4512 749.2656,383.4512 Q749.6406,383.4512 749.875,383.7168 Q750.1094,383.9668 750.1094,384.5762 L750.1094,386.0293 Q750.1094,386.6387 749.875,386.9043 Q749.6406,387.1699 749.2656,387.1699 Q748.9219,387.1699 748.7188,386.9668 Q748.5156,386.7793 748.4063,386.2637 Q748.3594,385.9043 748.1719,385.7168 Q747.8438,385.3418 747.2344,385.123 Q746.625,384.9043 746,384.9043 Q745.2344,384.9043 744.5938,385.2324 Q743.9688,385.5605 743.4688,386.3105 Q742.9844,387.0605 742.9844,388.0918 L742.9844,389.1855 Q742.9844,390.4199 743.875,391.248 Q744.7656,392.0605 746.3594,392.0605 Q747.2969,392.0605 747.9531,391.8105 Q748.3438,391.6543 748.7656,391.2168 Q749.0313,390.9512 749.1719,390.873 Q749.3281,390.7949 749.5313,390.7949 Q749.8594,390.7949 750.1094,391.0605 Q750.375,391.3105 750.375,391.6543 Q750.375,391.998 750.0313,392.4043 Q749.5313,392.9824 748.7344,393.3105 Q747.6563,393.7637 746.3594,393.7637 Q744.8438,393.7637 743.6406,393.1387 Q742.6563,392.6387 741.9688,391.5762 Q741.2813,390.498 741.2813,389.2168 L741.2813,388.0605 Q741.2813,386.7324 741.8906,385.5918 Q742.5156,384.4355 743.6094,383.8262 Q744.7031,383.2012 745.9375,383.2012 Q746.6719,383.2012 747.3125,383.373 Q747.9688,383.5293 748.5156,383.8887 Z " fill="#000000"/><text fill="#000000" font-family="sans-serif" font-size="14" lengthAdjust="spacing" textLength="92" x="766.25" y="393.8105">EventManager</text><line style="stroke:#181818;stroke-width:0.5;" x1="558" x2="1034" y1="404.0137" y2="404.0137"/><rect fill="none" height="6" style="stroke:#C82930;stroke-width:1.0;" width="6" x="565" y="415.8242"/><text fill="#000000" font-family="sans-serif" font-size="14" lengthAdjust="spacing" textLength="82" x="577" y="423.1211">Scene owner</text><rect fill="none" height="6" style="stroke:#C82930;stroke-width:1.0;" width="6" x="565" y="434.4453"/><text fill="#000000" font-family="sans-serif" font-size="14" lengthAdjust="spacing" textLength="269" x="577" y="441.7422">HashMap&lt;String,EventEntry&lt;T&gt;&gt; handlers</text><line style="stroke:#181818;stroke-width:0.5;" x1="558" x2="1034" y1="449.2559" y2="449.2559"/><ellipse cx="568" cy="464.0664" fill="#84BE84" rx="3" ry="3" style="stroke:#038048;stroke-width:1.0;"/><text fill="#000000" font-family="sans-serif" font-size="14" lengthAdjust="spacing" textLength="205" x="577" y="468.3633">&#171;Create&#187; EventManager(Scene)</text><ellipse cx="568" cy="482.6875" fill="#84BE84" rx="3" ry="3" style="stroke:#038048;stroke-width:1.0;"/><text fill="#000000" font-family="sans-serif" font-size="14" lengthAdjust="spacing" textLength="452" x="577" y="486.9844">void addEvent(String,EventType&lt;? super T&gt;,EventHandler&lt;? super T&gt;)</text><rect fill="#F24D5C" height="6" style="stroke:#C82930;stroke-width:1.0;" width="6" x="565" y="498.3086"/><text fill="#000000" font-family="sans-serif" font-size="14" lengthAdjust="spacing" textLength="250" x="577" y="505.6055">void removeEventEntry(EventEntry&lt;T&gt;)</text><ellipse cx="568" cy="519.9297" fill="#84BE84" rx="3" ry="3" style="stroke:#038048;stroke-width:1.0;"/><text fill="#000000" font-family="sans-serif" font-size="14" lengthAdjust="spacing" textLength="160" x="577" y="524.2266">void removeEvent(String)</text><ellipse cx="568" cy="538.5508" fill="#84BE84" rx="3" ry="3" style="stroke:#038048;stroke-width:1.0;"/><text fill="#000000" font-family="sans-serif" font-size="14" lengthAdjust="spacing" textLength="285" x="577" y="542.8477">void removeEvent(EventHandler&lt;? super T&gt;)</text><ellipse cx="568" cy="557.1719" fill="#84BE84" rx="3" ry="3" style="stroke:#038048;stroke-width:1.0;"/><text fill="#000000" font-family="sans-serif" font-size="14" lengthAdjust="spacing" textLength="268" x="577" y="561.4688">Map&lt;String,EventEntry&lt;T&gt;&gt; getHandlers()</text><ellipse cx="568" cy="575.793" fill="#84BE84" rx="3" ry="3" style="stroke:#038048;stroke-width:1.0;"/><text fill="#000000" font-family="sans-serif" font-size="14" lengthAdjust="spacing" textLength="115" x="577" y="580.0898">Scene getOwner()</text></g><!--class EventEntry--><g id="elem_EventEntry"><rect codeLine="12" fill="#F1F1F1" height="178.3477" id="EventEntry" rx="2.5" ry="2.5" style="stroke:#181818;stroke-width:0.5;" width="427" x="94.5" y="391.0137"/><ellipse cx="269.25" cy="407.0137" fill="#ADD1B2" rx="11" ry="11" style="stroke:#181818;stroke-width:1.0;"/><path d="M272.0156,402.8887 Q272.1719,402.6699 272.3594,402.5605 Q272.5469,402.4512 272.7656,402.4512 Q273.1406,402.4512 273.375,402.7168 Q273.6094,402.9668 273.6094,403.5762 L273.6094,405.0293 Q273.6094,405.6387 273.375,405.9043 Q273.1406,406.1699 272.7656,406.1699 Q272.4219,406.1699 272.2188,405.9668 Q272.0156,405.7793 271.9063,405.2637 Q271.8594,404.9043 271.6719,404.7168 Q271.3438,404.3418 270.7344,404.123 Q270.125,403.9043 269.5,403.9043 Q268.7344,403.9043 268.0938,404.2324 Q267.4688,404.5605 266.9688,405.3105 Q266.4844,406.0605 266.4844,407.0918 L266.4844,408.1855 Q266.4844,409.4199 267.375,410.248 Q268.2656,411.0605 269.8594,411.0605 Q270.7969,411.0605 271.4531,410.8105 Q271.8438,410.6543 272.2656,410.2168 Q272.5313,409.9512 272.6719,409.873 Q272.8281,409.7949 273.0313,409.7949 Q273.3594,409.7949 273.6094,410.0605 Q273.875,410.3105 273.875,410.6543 Q273.875,410.998 273.5313,411.4043 Q273.0313,411.9824 272.2344,412.3105 Q271.1563,412.7637 269.8594,412.7637 Q268.3438,412.7637 267.1406,412.1387 Q266.1563,411.6387 265.4688,410.5762 Q264.7813,409.498 264.7813,408.2168 L264.7813,407.0605 Q264.7813,405.7324 265.3906,404.5918 Q266.0156,403.4355 267.1094,402.8262 Q268.2031,402.2012 269.4375,402.2012 Q270.1719,402.2012 270.8125,402.373 Q271.4688,402.5293 272.0156,402.8887 Z " fill="#000000"/><text fill="#000000" font-family="sans-serif" font-size="14" lengthAdjust="spacing" textLength="69" x="289.75" y="412.8105">EventEntry</text><line style="stroke:#181818;stroke-width:0.5;" x1="95.5" x2="520.5" y1="423.0137" y2="423.0137"/><rect fill="none" height="6" style="stroke:#C82930;stroke-width:1.0;" width="6" x="102.5" y="434.8242"/><text fill="#000000" font-family="sans-serif" font-size="14" lengthAdjust="spacing" textLength="132" x="114.5" y="442.1211">EventType&lt;T&gt; event</text><rect fill="none" height="6" style="stroke:#C82930;stroke-width:1.0;" width="6" x="102.5" y="453.4453"/><text fill="#000000" font-family="sans-serif" font-size="14" lengthAdjust="spacing" textLength="214" x="114.5" y="460.7422">EventHandler&lt;? super T&gt; handler</text><line style="stroke:#181818;stroke-width:0.5;" x1="95.5" x2="520.5" y1="468.2559" y2="468.2559"/><ellipse cx="105.5" cy="483.0664" fill="#84BE84" rx="3" ry="3" style="stroke:#038048;stroke-width:1.0;"/><text fill="#000000" font-family="sans-serif" font-size="14" lengthAdjust="spacing" textLength="401" x="114.5" y="487.3633">&#171;Create&#187; EventEntry(EventType&lt;T&gt;,EventHandler&lt;? super T&gt;)</text><ellipse cx="105.5" cy="501.6875" fill="#84BE84" rx="3" ry="3" style="stroke:#038048;stroke-width:1.0;"/><text fill="#000000" font-family="sans-serif" font-size="14" lengthAdjust="spacing" textLength="163" x="114.5" y="505.9844">EventType&lt;T&gt; getEvent()</text><ellipse cx="105.5" cy="520.3086" fill="#84BE84" rx="3" ry="3" style="stroke:#038048;stroke-width:1.0;"/><text fill="#000000" font-family="sans-serif" font-size="14" lengthAdjust="spacing" textLength="188" x="114.5" y="524.6055">void setEvent(EventType&lt;T&gt;)</text><ellipse cx="105.5" cy="538.9297" fill="#84BE84" rx="3" ry="3" style="stroke:#038048;stroke-width:1.0;"/><text fill="#000000" font-family="sans-serif" font-size="14" lengthAdjust="spacing" textLength="245" x="114.5" y="543.2266">EventHandler&lt;? super T&gt; getHandler()</text><ellipse cx="105.5" cy="557.5508" fill="#84BE84" rx="3" ry="3" style="stroke:#038048;stroke-width:1.0;"/><text fill="#000000" font-family="sans-serif" font-size="14" lengthAdjust="spacing" textLength="270" x="114.5" y="561.8477">void setHandler(EventHandler&lt;? super T&gt;)</text></g><!--class Event--><g id="elem_Event"><rect fill="#F1F1F1" height="48" id="Event" rx="2.5" ry="2.5" style="stroke:#181818;stroke-width:0.5;" width="68" x="518" y="88.0137"/><ellipse cx="533" cy="104.0137" fill="#ADD1B2" rx="11" ry="11" style="stroke:#181818;stroke-width:1.0;"/><path d="M535.7656,99.8887 Q535.9219,99.6699 536.1094,99.5605 Q536.2969,99.4512 536.5156,99.4512 Q536.8906,99.4512 537.125,99.7168 Q537.3594,99.9668 537.3594,100.5762 L537.3594,102.0293 Q537.3594,102.6387 537.125,102.9043 Q536.8906,103.1699 536.5156,103.1699 Q536.1719,103.1699 535.9688,102.9668 Q535.7656,102.7793 535.6563,102.2637 Q535.6094,101.9043 535.4219,101.7168 Q535.0938,101.3418 534.4844,101.123 Q533.875,100.9043 533.25,100.9043 Q532.4844,100.9043 531.8438,101.2324 Q531.2188,101.5605 530.7188,102.3105 Q530.2344,103.0605 530.2344,104.0918 L530.2344,105.1855 Q530.2344,106.4199 531.125,107.248 Q532.0156,108.0605 533.6094,108.0605 Q534.5469,108.0605 535.2031,107.8105 Q535.5938,107.6543 536.0156,107.2168 Q536.2813,106.9512 536.4219,106.873 Q536.5781,106.7949 536.7813,106.7949 Q537.1094,106.7949 537.3594,107.0605 Q537.625,107.3105 537.625,107.6543 Q537.625,107.998 537.2813,108.4043 Q536.7813,108.9824 535.9844,109.3105 Q534.9063,109.7637 533.6094,109.7637 Q532.0938,109.7637 530.8906,109.1387 Q529.9063,108.6387 529.2188,107.5762 Q528.5313,106.498 528.5313,105.2168 L528.5313,104.0605 Q528.5313,102.7324 529.1406,101.5918 Q529.7656,100.4355 530.8594,99.8262 Q531.9531,99.2012 533.1875,99.2012 Q533.9219,99.2012 534.5625,99.373 Q535.2188,99.5293 535.7656,99.8887 Z " fill="#000000"/><text fill="#000000" font-family="sans-serif" font-size="14" lengthAdjust="spacing" textLength="36" x="547" y="109.8105">Event</text><line style="stroke:#181818;stroke-width:0.5;" x1="519" x2="585" y1="120.0137" y2="120.0137"/><line style="stroke:#181818;stroke-width:0.5;" x1="519" x2="585" y1="128.0137" y2="128.0137"/></g><!--reverse link Event to EventManager--><g id="link_Event_EventManager"><path codeLine="22" d="M578.75,153.1437 C613.54,205.3337 675.65,298.4837 724.57,371.8637 " fill="none" id="Event-backto-EventManager" style="stroke:#181818;stroke-width:1.0;"/><polygon fill="none" points="572.72,156.7137,567.45,136.1837,584.37,148.9437,572.72,156.7137" style="stroke:#181818;stroke-width:1.0;"/></g><!--reverse link Event to EventEntry--><g id="link_Event_EventEntry"><path codeLine="23" d="M525.23,153.1637 C487.34,210.0037 417.06,315.4137 366.7,390.9637 " fill="none" id="Event-backto-EventEntry" style="stroke:#181818;stroke-width:1.0;"/><polygon fill="none" points="519.63,148.9437,536.55,136.1837,531.28,156.7137,519.63,148.9437" style="stroke:#181818;stroke-width:1.0;"/></g><!--SRC=[dP91ReCm44NtFiKiYH8uWKKNLQHieYp21IOm9Qc2ZMnAWzhSlSQEmQXGHTqW-VlFd-ydyYjg3RciahAhJaec5GeiIUc4MX9Diks_UwV15ulXc9CWa9-2b3djK9_tMFDZeowYt5ZtLZIgurcQmXb5SJLPR0sSloh2XemQHaOsRcKChRmKW4LXRwCmB-jguY-WFsfJ8KkTk7FHWRuoTMo8eagsD5Q99gs6NO7jiMxsQd7R6fOVNf8VqL7lTD2CUkYv6UdEycV0sqIBVIIHfM0TNlpTpNEVmHu0UOHj_dZWPAbfxuWCcBHNGjymDzDhn389yTfYapjZxzZYsora0_mxZf_yS_yxRd6n7m00]--></g></svg>