<?xml version="1.0" encoding="us-ascii" standalone="no"?><svg xmlns="http://www.w3.org/2000/svg" xmlns:xlink="http://www.w3.org/1999/xlink" contentStyleType="text/css" height="1174px" preserveAspectRatio="none" style="width:2120px;height:1174px;background:#FFFFFF;" version="1.1" viewBox="0 0 2120 1174" width="2120px" zoomAndPan="magnify"><defs/><g><!--cluster com--><g id="cluster_com"><path d="M8.5,6.0137 L38.5,6.0137 A3.75,3.75 0 0 1 41,8.5137 L48,30.6348 L2110.5,30.6348 A2.5,2.5 0 0 1 2113,33.1348 L2113,1164.5137 A2.5,2.5 0 0 1 2110.5,1167.0137 L8.5,1167.0137 A2.5,2.5 0 0 1 6,1164.5137 L6,8.5137 A2.5,2.5 0 0 1 8.5,6.0137 " fill="none" style="stroke:#000000;stroke-width:1.5;"/><line style="stroke:#000000;stroke-width:1.5;" x1="6" x2="48" y1="30.6348" y2="30.6348"/><text fill="#000000" font-family="sans-serif" font-size="14" font-weight="bold" lengthAdjust="spacing" textLength="29" x="10" y="23.1211">com</text></g><!--cluster gymbro--><g id="cluster_gymbro"><path d="M32.5,51.0137 L85.5,51.0137 A3.75,3.75 0 0 1 88,53.5137 L95,75.6348 L2086.5,75.6348 A2.5,2.5 0 0 1 2089,78.1348 L2089,1140.5137 A2.5,2.5 0 0 1 2086.5,1143.0137 L32.5,1143.0137 A2.5,2.5 0 0 1 30,1140.5137 L30,53.5137 A2.5,2.5 0 0 1 32.5,51.0137 " fill="none" style="stroke:#000000;stroke-width:1.5;"/><line style="stroke:#000000;stroke-width:1.5;" x1="30" x2="95" y1="75.6348" y2="75.6348"/><text fill="#000000" font-family="sans-serif" font-size="14" font-weight="bold" lengthAdjust="spacing" textLength="52" x="34" y="68.1211">gymbro</text></g><!--cluster city--><g id="cluster_city"><path d="M56.5,96.0137 L81.5,96.0137 A3.75,3.75 0 0 1 84,98.5137 L91,120.6348 L2062.5,120.6348 A2.5,2.5 0 0 1 2065,123.1348 L2065,1116.5137 A2.5,2.5 0 0 1 2062.5,1119.0137 L56.5,1119.0137 A2.5,2.5 0 0 1 54,1116.5137 L54,98.5137 A2.5,2.5 0 0 1 56.5,96.0137 " fill="none" style="stroke:#000000;stroke-width:1.5;"/><line style="stroke:#000000;stroke-width:1.5;" x1="54" x2="91" y1="120.6348" y2="120.6348"/><text fill="#000000" font-family="sans-serif" font-size="14" font-weight="bold" lengthAdjust="spacing" textLength="24" x="58" y="113.1211">city</text></g><!--cluster model--><g id="cluster_model"><path d="M80.5,141.0137 L124.5,141.0137 A3.75,3.75 0 0 1 127,143.5137 L134,165.6348 L2038.5,165.6348 A2.5,2.5 0 0 1 2041,168.1348 L2041,1092.5137 A2.5,2.5 0 0 1 2038.5,1095.0137 L80.5,1095.0137 A2.5,2.5 0 0 1 78,1092.5137 L78,143.5137 A2.5,2.5 0 0 1 80.5,141.0137 " fill="none" style="stroke:#000000;stroke-width:1.5;"/><line style="stroke:#000000;stroke-width:1.5;" x1="78" x2="134" y1="165.6348" y2="165.6348"/><text fill="#000000" font-family="sans-serif" font-size="14" font-weight="bold" lengthAdjust="spacing" textLength="43" x="82" y="158.1211">model</text></g><!--class GymModel--><g id="elem_GymModel"><rect codeLine="1" fill="#F1F1F1" height="234.2109" id="GymModel" rx="2.5" ry="2.5" style="stroke:#181818;stroke-width:0.5;" width="347" x="94.5" y="817.0137"/><ellipse cx="230.25" cy="833.0137" fill="#ADD1B2" rx="11" ry="11" style="stroke:#181818;stroke-width:1.0;"/><path d="M233.0156,828.8887 Q233.1719,828.6699 233.3594,828.5605 Q233.5469,828.4512 233.7656,828.4512 Q234.1406,828.4512 234.375,828.7168 Q234.6094,828.9668 234.6094,829.5762 L234.6094,831.0293 Q234.6094,831.6387 234.375,831.9043 Q234.1406,832.1699 233.7656,832.1699 Q233.4219,832.1699 233.2188,831.9668 Q233.0156,831.7793 232.9063,831.2637 Q232.8594,830.9043 232.6719,830.7168 Q232.3438,830.3418 231.7344,830.123 Q231.125,829.9043 230.5,829.9043 Q229.7344,829.9043 229.0938,830.2324 Q228.4688,830.5605 227.9688,831.3105 Q227.4844,832.0605 227.4844,833.0918 L227.4844,834.1855 Q227.4844,835.4199 228.375,836.248 Q229.2656,837.0605 230.8594,837.0605 Q231.7969,837.0605 232.4531,836.8105 Q232.8438,836.6543 233.2656,836.2168 Q233.5313,835.9512 233.6719,835.873 Q233.8281,835.7949 234.0313,835.7949 Q234.3594,835.7949 234.6094,836.0605 Q234.875,836.3105 234.875,836.6543 Q234.875,836.998 234.5313,837.4043 Q234.0313,837.9824 233.2344,838.3105 Q232.1563,838.7637 230.8594,838.7637 Q229.3438,838.7637 228.1406,838.1387 Q227.1563,837.6387 226.4688,836.5762 Q225.7813,835.498 225.7813,834.2168 L225.7813,833.0605 Q225.7813,831.7324 226.3906,830.5918 Q227.0156,829.4355 228.1094,828.8262 Q229.2031,828.2012 230.4375,828.2012 Q231.1719,828.2012 231.8125,828.373 Q232.4688,828.5293 233.0156,828.8887 Z " fill="#000000"/><text fill="#000000" font-family="sans-serif" font-size="14" lengthAdjust="spacing" textLength="67" x="250.75" y="838.8105">GymModel</text><line style="stroke:#181818;stroke-width:0.5;" x1="95.5" x2="440.5" y1="849.0137" y2="849.0137"/><rect fill="none" height="6" style="stroke:#C82930;stroke-width:1.0;" width="6" x="102.5" y="860.8242"/><text fill="#000000" font-family="sans-serif" font-size="14" lengthAdjust="spacing" textLength="265" x="114.5" y="868.1211">PropertiesMenuController propertiesMenu</text><line style="stroke:#181818;stroke-width:0.5;" x1="95.5" x2="440.5" y1="875.6348" y2="875.6348"/><ellipse cx="105.5" cy="890.4453" fill="#84BE84" rx="3" ry="3" style="stroke:#038048;stroke-width:1.0;"/><text fill="#000000" font-family="sans-serif" font-size="14" lengthAdjust="spacing" textLength="140" x="114.5" y="894.7422">&#171;Create&#187; GymModel()</text><ellipse cx="105.5" cy="909.0664" fill="#84BE84" rx="3" ry="3" style="stroke:#038048;stroke-width:1.0;"/><text fill="#000000" font-family="sans-serif" font-size="14" lengthAdjust="spacing" textLength="247" x="114.5" y="913.3633">&#171;Create&#187; GymModel(Transform,Image)</text><ellipse cx="105.5" cy="927.6875" fill="#84BE84" rx="3" ry="3" style="stroke:#038048;stroke-width:1.0;"/><text fill="#000000" font-family="sans-serif" font-size="14" lengthAdjust="spacing" textLength="265" x="114.5" y="931.9844">&#171;Create&#187; GymModel(Transform,int,String)</text><ellipse cx="105.5" cy="946.3086" fill="#84BE84" rx="3" ry="3" style="stroke:#038048;stroke-width:1.0;"/><text fill="#000000" font-family="sans-serif" font-size="14" lengthAdjust="spacing" textLength="117" x="114.5" y="950.6055">String serialize(int)</text><ellipse cx="105.5" cy="964.9297" fill="#84BE84" rx="3" ry="3" style="stroke:#038048;stroke-width:1.0;"/><text fill="#000000" font-family="sans-serif" font-size="14" lengthAdjust="spacing" text-decoration="underline" textLength="135" x="114.5" y="969.2266">Property deserialize()</text><ellipse cx="105.5" cy="983.5508" fill="#84BE84" rx="3" ry="3" style="stroke:#038048;stroke-width:1.0;"/><text fill="#000000" font-family="sans-serif" font-size="14" lengthAdjust="spacing" textLength="296" x="114.5" y="987.8477">PropertiesMenuController getPropertiesMenu()</text><ellipse cx="105.5" cy="1002.1719" fill="#84BE84" rx="3" ry="3" style="stroke:#038048;stroke-width:1.0;"/><text fill="#000000" font-family="sans-serif" font-size="14" lengthAdjust="spacing" textLength="321" x="114.5" y="1006.4688">void setPropertiesMenu(PropertiesMenuController)</text><ellipse cx="105.5" cy="1020.793" fill="#84BE84" rx="3" ry="3" style="stroke:#038048;stroke-width:1.0;"/><text fill="#000000" font-family="sans-serif" font-size="14" lengthAdjust="spacing" textLength="148" x="114.5" y="1025.0898">boolean equals(Object)</text><ellipse cx="105.5" cy="1039.4141" fill="#84BE84" rx="3" ry="3" style="stroke:#038048;stroke-width:1.0;"/><text fill="#000000" font-family="sans-serif" font-size="14" lengthAdjust="spacing" textLength="94" x="114.5" y="1043.7109">int hashCode()</text></g><!--class Model--><g id="elem_Model"><rect codeLine="13" fill="#F1F1F1" height="550.7695" id="Model" rx="2.5" ry="2.5" style="stroke:#181818;stroke-width:0.5;" width="244" x="818" y="178.0137"/><ellipse cx="916.25" cy="194.0137" fill="#A9DCDF" rx="11" ry="11" style="stroke:#181818;stroke-width:1.0;"/><path d="M918.4375,195.7793 L914.2969,195.7793 L913.875,196.8105 L914.2969,196.8105 Q914.9063,196.8105 915.1719,197.0449 Q915.4375,197.2793 915.4375,197.6699 Q915.4375,198.0449 915.1719,198.2793 Q914.9063,198.5137 914.2969,198.5137 L912,198.5137 Q911.3906,198.5137 911.1406,198.2793 Q910.875,198.0449 910.875,197.6543 Q910.875,197.2793 911.1563,197.0449 Q911.4219,196.7949 912.0469,196.8105 L914.7188,190.1543 L913.6094,190.1543 Q913,190.1543 912.7344,189.9199 Q912.4688,189.6855 912.4688,189.2949 Q912.4688,188.9199 912.7344,188.6855 Q913,188.4512 913.6094,188.4512 L917.2813,188.4512 L920.6719,196.8105 Q921.2656,196.8105 921.4531,196.9512 Q921.8438,197.2168 921.8438,197.6699 Q921.8438,198.0449 921.5781,198.2793 Q921.3281,198.5137 920.7188,198.5137 L918.4219,198.5137 Q917.8125,198.5137 917.5469,198.2793 Q917.2813,198.0449 917.2813,197.6543 Q917.2813,197.2793 917.5469,197.0449 Q917.8125,196.8105 918.4219,196.8105 L918.8438,196.8105 L918.4375,195.7793 Z M917.7188,194.0762 L916.3594,190.7012 L914.9844,194.0762 L917.7188,194.0762 Z " fill="#000000"/><text fill="#000000" font-family="sans-serif" font-size="14" font-style="italic" lengthAdjust="spacing" textLength="39" x="936.75" y="199.8105">Model</text><line style="stroke:#181818;stroke-width:0.5;" x1="819" x2="1061" y1="210.0137" y2="210.0137"/><polygon fill="none" points="829,220.8242,825,226.8242,833,226.8242" style="stroke:#1963A0;stroke-width:1.0;"/><text fill="#000000" font-family="sans-serif" font-size="14" lengthAdjust="spacing" textLength="138" x="838" y="229.1211">ImageView imageView</text><polygon fill="none" points="829,239.4453,825,245.4453,833,245.4453" style="stroke:#1963A0;stroke-width:1.0;"/><text fill="#000000" font-family="sans-serif" font-size="14" lengthAdjust="spacing" textLength="129" x="838" y="247.7422">Transform transform</text><polygon fill="none" points="829,258.0664,825,264.0664,833,264.0664" style="stroke:#1963A0;stroke-width:1.0;"/><text fill="#000000" font-family="sans-serif" font-size="14" lengthAdjust="spacing" textLength="85" x="838" y="266.3633">Image texture</text><line style="stroke:#181818;stroke-width:0.5;" x1="819" x2="1061" y1="273.877" y2="273.877"/><polygon fill="#FFFF44" points="829,283.6875,833,287.6875,829,291.6875,825,287.6875" style="stroke:#B38D22;stroke-width:1.0;"/><text fill="#000000" font-family="sans-serif" font-size="14" lengthAdjust="spacing" textLength="111" x="838" y="292.9844">&#171;Create&#187; Model()</text><polygon fill="#FFFF44" points="829,302.3086,833,306.3086,829,310.3086,825,306.3086" style="stroke:#B38D22;stroke-width:1.0;"/><text fill="#000000" font-family="sans-serif" font-size="14" lengthAdjust="spacing" textLength="218" x="838" y="311.6055">&#171;Create&#187; Model(Transform,Image)</text><polygon fill="#FFFF44" points="829,320.9297,833,324.9297,829,328.9297,825,324.9297" style="stroke:#B38D22;stroke-width:1.0;"/><text fill="#000000" font-family="sans-serif" font-size="14" lengthAdjust="spacing" textLength="217" x="838" y="330.2266">&#171;Create&#187; Model(Transform,String)</text><ellipse cx="829" cy="344.5508" fill="#84BE84" rx="3" ry="3" style="stroke:#038048;stroke-width:1.0;"/><text fill="#000000" font-family="sans-serif" font-size="14" lengthAdjust="spacing" textLength="117" x="838" y="348.8477">double getHeight()</text><ellipse cx="829" cy="363.1719" fill="#84BE84" rx="3" ry="3" style="stroke:#038048;stroke-width:1.0;"/><text fill="#000000" font-family="sans-serif" font-size="14" lengthAdjust="spacing" textLength="168" x="838" y="367.4688">ImageView getImageView()</text><ellipse cx="829" cy="381.793" fill="#84BE84" rx="3" ry="3" style="stroke:#038048;stroke-width:1.0;"/><text fill="#000000" font-family="sans-serif" font-size="14" lengthAdjust="spacing" textLength="143" x="838" y="386.0898">Vector2D getPosition()</text><ellipse cx="829" cy="400.4141" fill="#84BE84" rx="3" ry="3" style="stroke:#038048;stroke-width:1.0;"/><text fill="#000000" font-family="sans-serif" font-size="14" lengthAdjust="spacing" textLength="130" x="838" y="404.7109">double getRotation()</text><ellipse cx="829" cy="419.0352" fill="#84BE84" rx="3" ry="3" style="stroke:#038048;stroke-width:1.0;"/><text fill="#000000" font-family="sans-serif" font-size="14" lengthAdjust="spacing" textLength="128" x="838" y="423.332">Vector2D getScale()</text><ellipse cx="829" cy="437.6563" fill="#84BE84" rx="3" ry="3" style="stroke:#038048;stroke-width:1.0;"/><text fill="#000000" font-family="sans-serif" font-size="14" lengthAdjust="spacing" textLength="120" x="838" y="441.9531">Image getTexture()</text><ellipse cx="829" cy="456.2773" fill="#84BE84" rx="3" ry="3" style="stroke:#038048;stroke-width:1.0;"/><text fill="#000000" font-family="sans-serif" font-size="14" lengthAdjust="spacing" textLength="164" x="838" y="460.5742">Transform getTransform()</text><ellipse cx="829" cy="474.8984" fill="#84BE84" rx="3" ry="3" style="stroke:#038048;stroke-width:1.0;"/><text fill="#000000" font-family="sans-serif" font-size="14" lengthAdjust="spacing" textLength="85" x="838" y="479.1953">double getX()</text><ellipse cx="829" cy="493.5195" fill="#84BE84" rx="3" ry="3" style="stroke:#038048;stroke-width:1.0;"/><text fill="#000000" font-family="sans-serif" font-size="14" lengthAdjust="spacing" textLength="86" x="838" y="497.8164">double getY()</text><ellipse cx="829" cy="512.1406" fill="#84BE84" rx="3" ry="3" style="stroke:#038048;stroke-width:1.0;"/><text fill="#000000" font-family="sans-serif" font-size="14" lengthAdjust="spacing" textLength="113" x="838" y="516.4375">double getWidth()</text><ellipse cx="829" cy="530.7617" fill="#84BE84" rx="3" ry="3" style="stroke:#038048;stroke-width:1.0;"/><text fill="#000000" font-family="sans-serif" font-size="14" lengthAdjust="spacing" textLength="142" x="838" y="535.0586">void setHeight(double)</text><ellipse cx="829" cy="549.3828" fill="#84BE84" rx="3" ry="3" style="stroke:#038048;stroke-width:1.0;"/><text fill="#000000" font-family="sans-serif" font-size="14" lengthAdjust="spacing" textLength="193" x="838" y="553.6797">void setImageView(ImageView)</text><ellipse cx="829" cy="568.0039" fill="#84BE84" rx="3" ry="3" style="stroke:#038048;stroke-width:1.0;"/><text fill="#000000" font-family="sans-serif" font-size="14" lengthAdjust="spacing" textLength="168" x="838" y="572.3008">void setPosition(Vector2D)</text><ellipse cx="829" cy="586.625" fill="#84BE84" rx="3" ry="3" style="stroke:#038048;stroke-width:1.0;"/><text fill="#000000" font-family="sans-serif" font-size="14" lengthAdjust="spacing" textLength="155" x="838" y="590.9219">void setRotation(double)</text><ellipse cx="829" cy="605.2461" fill="#84BE84" rx="3" ry="3" style="stroke:#038048;stroke-width:1.0;"/><text fill="#000000" font-family="sans-serif" font-size="14" lengthAdjust="spacing" textLength="153" x="838" y="609.543">void setScale(Vector2D)</text><ellipse cx="829" cy="623.8672" fill="#84BE84" rx="3" ry="3" style="stroke:#038048;stroke-width:1.0;"/><text fill="#000000" font-family="sans-serif" font-size="14" lengthAdjust="spacing" textLength="145" x="838" y="628.1641">void setTexture(Image)</text><ellipse cx="829" cy="642.4883" fill="#84BE84" rx="3" ry="3" style="stroke:#038048;stroke-width:1.0;"/><text fill="#000000" font-family="sans-serif" font-size="14" lengthAdjust="spacing" textLength="144" x="838" y="646.7852">void setTexture(String)</text><ellipse cx="829" cy="661.1094" fill="#84BE84" rx="3" ry="3" style="stroke:#038048;stroke-width:1.0;"/><text fill="#000000" font-family="sans-serif" font-size="14" lengthAdjust="spacing" textLength="189" x="838" y="665.4063">void setTransform(Transform)</text><ellipse cx="829" cy="679.7305" fill="#84BE84" rx="3" ry="3" style="stroke:#038048;stroke-width:1.0;"/><text fill="#000000" font-family="sans-serif" font-size="14" lengthAdjust="spacing" textLength="110" x="838" y="684.0273">void setX(double)</text><ellipse cx="829" cy="698.3516" fill="#84BE84" rx="3" ry="3" style="stroke:#038048;stroke-width:1.0;"/><text fill="#000000" font-family="sans-serif" font-size="14" lengthAdjust="spacing" textLength="111" x="838" y="702.6484">void setY(double)</text><ellipse cx="829" cy="716.9727" fill="#84BE84" rx="3" ry="3" style="stroke:#038048;stroke-width:1.0;"/><text fill="#000000" font-family="sans-serif" font-size="14" lengthAdjust="spacing" textLength="138" x="838" y="721.2695">void setWidth(double)</text></g><!--class MapModel--><g id="elem_MapModel"><rect codeLine="42" fill="#F1F1F1" height="196.9688" id="MapModel" rx="2.5" ry="2.5" style="stroke:#181818;stroke-width:0.5;" width="438" x="477" y="835.5137"/><ellipse cx="659.25" cy="851.5137" fill="#ADD1B2" rx="11" ry="11" style="stroke:#181818;stroke-width:1.0;"/><path d="M662.0156,847.3887 Q662.1719,847.1699 662.3594,847.0605 Q662.5469,846.9512 662.7656,846.9512 Q663.1406,846.9512 663.375,847.2168 Q663.6094,847.4668 663.6094,848.0762 L663.6094,849.5293 Q663.6094,850.1387 663.375,850.4043 Q663.1406,850.6699 662.7656,850.6699 Q662.4219,850.6699 662.2188,850.4668 Q662.0156,850.2793 661.9063,849.7637 Q661.8594,849.4043 661.6719,849.2168 Q661.3438,848.8418 660.7344,848.623 Q660.125,848.4043 659.5,848.4043 Q658.7344,848.4043 658.0938,848.7324 Q657.4688,849.0605 656.9688,849.8105 Q656.4844,850.5605 656.4844,851.5918 L656.4844,852.6855 Q656.4844,853.9199 657.375,854.748 Q658.2656,855.5605 659.8594,855.5605 Q660.7969,855.5605 661.4531,855.3105 Q661.8438,855.1543 662.2656,854.7168 Q662.5313,854.4512 662.6719,854.373 Q662.8281,854.2949 663.0313,854.2949 Q663.3594,854.2949 663.6094,854.5605 Q663.875,854.8105 663.875,855.1543 Q663.875,855.498 663.5313,855.9043 Q663.0313,856.4824 662.2344,856.8105 Q661.1563,857.2637 659.8594,857.2637 Q658.3438,857.2637 657.1406,856.6387 Q656.1563,856.1387 655.4688,855.0762 Q654.7813,853.998 654.7813,852.7168 L654.7813,851.5605 Q654.7813,850.2324 655.3906,849.0918 Q656.0156,847.9355 657.1094,847.3262 Q658.2031,846.7012 659.4375,846.7012 Q660.1719,846.7012 660.8125,846.873 Q661.4688,847.0293 662.0156,847.3887 Z " fill="#000000"/><text fill="#000000" font-family="sans-serif" font-size="14" lengthAdjust="spacing" textLength="65" x="679.75" y="857.3105">MapModel</text><line style="stroke:#181818;stroke-width:0.5;" x1="478" x2="914" y1="867.5137" y2="867.5137"/><rect fill="none" height="6" style="stroke:#C82930;stroke-width:1.0;" width="6" x="485" y="879.3242"/><text fill="#000000" font-family="sans-serif" font-size="14" lengthAdjust="spacing" textLength="200" x="497" y="886.6211">ArrayList&lt;GymController&gt; gyms</text><line style="stroke:#181818;stroke-width:0.5;" x1="478" x2="914" y1="894.1348" y2="894.1348"/><ellipse cx="488" cy="908.9453" fill="#84BE84" rx="3" ry="3" style="stroke:#038048;stroke-width:1.0;"/><text fill="#000000" font-family="sans-serif" font-size="14" lengthAdjust="spacing" textLength="138" x="497" y="913.2422">&#171;Create&#187; MapModel()</text><ellipse cx="488" cy="927.5664" fill="#84BE84" rx="3" ry="3" style="stroke:#038048;stroke-width:1.0;"/><text fill="#000000" font-family="sans-serif" font-size="14" lengthAdjust="spacing" textLength="412" x="497" y="931.8633">&#171;Create&#187; MapModel(ArrayList&lt;GymController&gt;,Transform,Image)</text><ellipse cx="488" cy="946.1875" fill="#84BE84" rx="3" ry="3" style="stroke:#038048;stroke-width:1.0;"/><text fill="#000000" font-family="sans-serif" font-size="14" lengthAdjust="spacing" textLength="377" x="497" y="950.4844">&#171;Create&#187; MapModel(List&lt;GymController&gt;,Transform,String)</text><ellipse cx="488" cy="964.8086" fill="#84BE84" rx="3" ry="3" style="stroke:#038048;stroke-width:1.0;"/><text fill="#000000" font-family="sans-serif" font-size="14" lengthAdjust="spacing" textLength="117" x="497" y="969.1055">String serialize(int)</text><ellipse cx="488" cy="983.4297" fill="#84BE84" rx="3" ry="3" style="stroke:#038048;stroke-width:1.0;"/><text fill="#000000" font-family="sans-serif" font-size="14" lengthAdjust="spacing" text-decoration="underline" textLength="135" x="497" y="987.7266">Property deserialize()</text><ellipse cx="488" cy="1002.0508" fill="#84BE84" rx="3" ry="3" style="stroke:#038048;stroke-width:1.0;"/><text fill="#000000" font-family="sans-serif" font-size="14" lengthAdjust="spacing" textLength="199" x="497" y="1006.3477">List&lt;GymController&gt; getGyms()</text><ellipse cx="488" cy="1020.6719" fill="#84BE84" rx="3" ry="3" style="stroke:#038048;stroke-width:1.0;"/><text fill="#000000" font-family="sans-serif" font-size="14" lengthAdjust="spacing" textLength="258" x="497" y="1024.9688">void setGyms(ArrayList&lt;GymController&gt;)</text></g><!--class FavoritesModel--><g id="elem_FavoritesModel"><rect codeLine="52" fill="#F1F1F1" height="234.2109" id="FavoritesModel" rx="2.5" ry="2.5" style="stroke:#181818;stroke-width:0.5;" width="470" x="950" y="817.0137"/><ellipse cx="1132.25" cy="833.0137" fill="#ADD1B2" rx="11" ry="11" style="stroke:#181818;stroke-width:1.0;"/><path d="M1135.0156,828.8887 Q1135.1719,828.6699 1135.3594,828.5605 Q1135.5469,828.4512 1135.7656,828.4512 Q1136.1406,828.4512 1136.375,828.7168 Q1136.6094,828.9668 1136.6094,829.5762 L1136.6094,831.0293 Q1136.6094,831.6387 1136.375,831.9043 Q1136.1406,832.1699 1135.7656,832.1699 Q1135.4219,832.1699 1135.2188,831.9668 Q1135.0156,831.7793 1134.9063,831.2637 Q1134.8594,830.9043 1134.6719,830.7168 Q1134.3438,830.3418 1133.7344,830.123 Q1133.125,829.9043 1132.5,829.9043 Q1131.7344,829.9043 1131.0938,830.2324 Q1130.4688,830.5605 1129.9688,831.3105 Q1129.4844,832.0605 1129.4844,833.0918 L1129.4844,834.1855 Q1129.4844,835.4199 1130.375,836.248 Q1131.2656,837.0605 1132.8594,837.0605 Q1133.7969,837.0605 1134.4531,836.8105 Q1134.8438,836.6543 1135.2656,836.2168 Q1135.5313,835.9512 1135.6719,835.873 Q1135.8281,835.7949 1136.0313,835.7949 Q1136.3594,835.7949 1136.6094,836.0605 Q1136.875,836.3105 1136.875,836.6543 Q1136.875,836.998 1136.5313,837.4043 Q1136.0313,837.9824 1135.2344,838.3105 Q1134.1563,838.7637 1132.8594,838.7637 Q1131.3438,838.7637 1130.1406,838.1387 Q1129.1563,837.6387 1128.4688,836.5762 Q1127.7813,835.498 1127.7813,834.2168 L1127.7813,833.0605 Q1127.7813,831.7324 1128.3906,830.5918 Q1129.0156,829.4355 1130.1094,828.8262 Q1131.2031,828.2012 1132.4375,828.2012 Q1133.1719,828.2012 1133.8125,828.373 Q1134.4688,828.5293 1135.0156,828.8887 Z " fill="#000000"/><text fill="#000000" font-family="sans-serif" font-size="14" lengthAdjust="spacing" textLength="97" x="1152.75" y="838.8105">FavoritesModel</text><line style="stroke:#181818;stroke-width:0.5;" x1="951" x2="1419" y1="849.0137" y2="849.0137"/><rect fill="none" height="6" style="stroke:#C82930;stroke-width:1.0;" width="6" x="958" y="860.8242"/><text fill="#000000" font-family="sans-serif" font-size="14" lengthAdjust="spacing" textLength="221" x="970" y="868.1211">ArrayList&lt;GymController&gt; favorites</text><line style="stroke:#181818;stroke-width:0.5;" x1="951" x2="1419" y1="875.6348" y2="875.6348"/><ellipse cx="961" cy="890.4453" fill="#84BE84" rx="3" ry="3" style="stroke:#038048;stroke-width:1.0;"/><text fill="#000000" font-family="sans-serif" font-size="14" lengthAdjust="spacing" textLength="170" x="970" y="894.7422">&#171;Create&#187; FavoritesModel()</text><ellipse cx="961" cy="909.0664" fill="#84BE84" rx="3" ry="3" style="stroke:#038048;stroke-width:1.0;"/><text fill="#000000" font-family="sans-serif" font-size="14" lengthAdjust="spacing" textLength="277" x="970" y="913.3633">&#171;Create&#187; FavoritesModel(Transform,Image)</text><ellipse cx="961" cy="927.6875" fill="#84BE84" rx="3" ry="3" style="stroke:#038048;stroke-width:1.0;"/><text fill="#000000" font-family="sans-serif" font-size="14" lengthAdjust="spacing" textLength="276" x="970" y="931.9844">&#171;Create&#187; FavoritesModel(Transform,String)</text><ellipse cx="961" cy="946.3086" fill="#84BE84" rx="3" ry="3" style="stroke:#038048;stroke-width:1.0;"/><text fill="#000000" font-family="sans-serif" font-size="14" lengthAdjust="spacing" textLength="444" x="970" y="950.6055">&#171;Create&#187; FavoritesModel(Transform,Image,ArrayList&lt;GymController&gt;)</text><ellipse cx="961" cy="964.9297" fill="#84BE84" rx="3" ry="3" style="stroke:#038048;stroke-width:1.0;"/><text fill="#000000" font-family="sans-serif" font-size="14" lengthAdjust="spacing" textLength="443" x="970" y="969.2266">&#171;Create&#187; FavoritesModel(Transform,String,ArrayList&lt;GymController&gt;)</text><ellipse cx="961" cy="983.5508" fill="#84BE84" rx="3" ry="3" style="stroke:#038048;stroke-width:1.0;"/><text fill="#000000" font-family="sans-serif" font-size="14" lengthAdjust="spacing" textLength="117" x="970" y="987.8477">String serialize(int)</text><ellipse cx="961" cy="1002.1719" fill="#84BE84" rx="3" ry="3" style="stroke:#038048;stroke-width:1.0;"/><text fill="#000000" font-family="sans-serif" font-size="14" lengthAdjust="spacing" text-decoration="underline" textLength="178" x="970" y="1006.4688">FavoritesModel deserialize()</text><ellipse cx="961" cy="1020.793" fill="#84BE84" rx="3" ry="3" style="stroke:#038048;stroke-width:1.0;"/><text fill="#000000" font-family="sans-serif" font-size="14" lengthAdjust="spacing" textLength="256" x="970" y="1025.0898">ArrayList&lt;GymController&gt; getFavorites()</text><ellipse cx="961" cy="1039.4141" fill="#84BE84" rx="3" ry="3" style="stroke:#038048;stroke-width:1.0;"/><text fill="#000000" font-family="sans-serif" font-size="14" lengthAdjust="spacing" textLength="281" x="970" y="1043.7109">void setFavorites(ArrayList&lt;GymController&gt;)</text></g><!--class PropertiesMenuModel--><g id="elem_PropertiesMenuModel"><rect codeLine="64" fill="#F1F1F1" height="290.0742" id="PropertiesMenuModel" rx="2.5" ry="2.5" style="stroke:#181818;stroke-width:0.5;" width="569" x="1455.5" y="789.0137"/><ellipse cx="1666.75" cy="805.0137" fill="#ADD1B2" rx="11" ry="11" style="stroke:#181818;stroke-width:1.0;"/><path d="M1669.5156,800.8887 Q1669.6719,800.6699 1669.8594,800.5605 Q1670.0469,800.4512 1670.2656,800.4512 Q1670.6406,800.4512 1670.875,800.7168 Q1671.1094,800.9668 1671.1094,801.5762 L1671.1094,803.0293 Q1671.1094,803.6387 1670.875,803.9043 Q1670.6406,804.1699 1670.2656,804.1699 Q1669.9219,804.1699 1669.7188,803.9668 Q1669.5156,803.7793 1669.4063,803.2637 Q1669.3594,802.9043 1669.1719,802.7168 Q1668.8438,802.3418 1668.2344,802.123 Q1667.625,801.9043 1667,801.9043 Q1666.2344,801.9043 1665.5938,802.2324 Q1664.9688,802.5605 1664.4688,803.3105 Q1663.9844,804.0605 1663.9844,805.0918 L1663.9844,806.1855 Q1663.9844,807.4199 1664.875,808.248 Q1665.7656,809.0605 1667.3594,809.0605 Q1668.2969,809.0605 1668.9531,808.8105 Q1669.3438,808.6543 1669.7656,808.2168 Q1670.0313,807.9512 1670.1719,807.873 Q1670.3281,807.7949 1670.5313,807.7949 Q1670.8594,807.7949 1671.1094,808.0605 Q1671.375,808.3105 1671.375,808.6543 Q1671.375,808.998 1671.0313,809.4043 Q1670.5313,809.9824 1669.7344,810.3105 Q1668.6563,810.7637 1667.3594,810.7637 Q1665.8438,810.7637 1664.6406,810.1387 Q1663.6563,809.6387 1662.9688,808.5762 Q1662.2813,807.498 1662.2813,806.2168 L1662.2813,805.0605 Q1662.2813,803.7324 1662.8906,802.5918 Q1663.5156,801.4355 1664.6094,800.8262 Q1665.7031,800.2012 1666.9375,800.2012 Q1667.6719,800.2012 1668.3125,800.373 Q1668.9688,800.5293 1669.5156,800.8887 Z " fill="#000000"/><text fill="#000000" font-family="sans-serif" font-size="14" lengthAdjust="spacing" textLength="138" x="1687.25" y="810.8105">PropertiesMenuModel</text><line style="stroke:#181818;stroke-width:0.5;" x1="1456.5" x2="2023.5" y1="821.0137" y2="821.0137"/><rect fill="none" height="6" style="stroke:#C82930;stroke-width:1.0;" width="6" x="1463.5" y="832.8242"/><text fill="#000000" font-family="sans-serif" font-size="14" lengthAdjust="spacing" textLength="194" x="1475.5" y="840.1211">ArrayList&lt;Property&gt; properties</text><rect fill="none" height="6" style="stroke:#C82930;stroke-width:1.0;" width="6" x="1463.5" y="851.4453"/><text fill="#000000" font-family="sans-serif" font-size="14" lengthAdjust="spacing" textLength="133" x="1475.5" y="858.7422">GymController owner</text><line style="stroke:#181818;stroke-width:0.5;" x1="1456.5" x2="2023.5" y1="866.2559" y2="866.2559"/><ellipse cx="1466.5" cy="881.0664" fill="#84BE84" rx="3" ry="3" style="stroke:#038048;stroke-width:1.0;"/><text fill="#000000" font-family="sans-serif" font-size="14" lengthAdjust="spacing" textLength="211" x="1475.5" y="885.3633">&#171;Create&#187; PropertiesMenuModel()</text><ellipse cx="1466.5" cy="899.6875" fill="#84BE84" rx="3" ry="3" style="stroke:#038048;stroke-width:1.0;"/><text fill="#000000" font-family="sans-serif" font-size="14" lengthAdjust="spacing" textLength="543" x="1475.5" y="903.9844">&#171;Create&#187; PropertiesMenuModel(ArrayList&lt;Property&gt;,Transform,Image,GymController)</text><ellipse cx="1466.5" cy="918.3086" fill="#84BE84" rx="3" ry="3" style="stroke:#038048;stroke-width:1.0;"/><text fill="#000000" font-family="sans-serif" font-size="14" lengthAdjust="spacing" textLength="542" x="1475.5" y="922.6055">&#171;Create&#187; PropertiesMenuModel(ArrayList&lt;Property&gt;,Transform,String,GymController)</text><ellipse cx="1466.5" cy="936.9297" fill="#84BE84" rx="3" ry="3" style="stroke:#038048;stroke-width:1.0;"/><text fill="#000000" font-family="sans-serif" font-size="14" lengthAdjust="spacing" textLength="117" x="1475.5" y="941.2266">String serialize(int)</text><ellipse cx="1466.5" cy="955.5508" fill="#84BE84" rx="3" ry="3" style="stroke:#038048;stroke-width:1.0;"/><text fill="#000000" font-family="sans-serif" font-size="14" lengthAdjust="spacing" text-decoration="underline" textLength="219" x="1475.5" y="959.8477">PropertiesMenuModel deserialize()</text><ellipse cx="1466.5" cy="974.1719" fill="#84BE84" rx="3" ry="3" style="stroke:#038048;stroke-width:1.0;"/><text fill="#000000" font-family="sans-serif" font-size="14" lengthAdjust="spacing" textLength="225" x="1475.5" y="978.4688">ArrayList&lt;Property&gt; getProperties()</text><ellipse cx="1466.5" cy="992.793" fill="#84BE84" rx="3" ry="3" style="stroke:#038048;stroke-width:1.0;"/><text fill="#000000" font-family="sans-serif" font-size="14" lengthAdjust="spacing" textLength="250" x="1475.5" y="997.0898">void setProperties(ArrayList&lt;Property&gt;)</text><ellipse cx="1466.5" cy="1011.4141" fill="#84BE84" rx="3" ry="3" style="stroke:#038048;stroke-width:1.0;"/><text fill="#000000" font-family="sans-serif" font-size="14" lengthAdjust="spacing" textLength="166" x="1475.5" y="1015.7109">GymController getOwner()</text><ellipse cx="1466.5" cy="1030.0352" fill="#84BE84" rx="3" ry="3" style="stroke:#038048;stroke-width:1.0;"/><text fill="#000000" font-family="sans-serif" font-size="14" lengthAdjust="spacing" textLength="191" x="1475.5" y="1034.332">void setOwner(GymController)</text><ellipse cx="1466.5" cy="1048.6563" fill="#84BE84" rx="3" ry="3" style="stroke:#038048;stroke-width:1.0;"/><text fill="#000000" font-family="sans-serif" font-size="14" lengthAdjust="spacing" textLength="148" x="1475.5" y="1052.9531">boolean equals(Object)</text><ellipse cx="1466.5" cy="1067.2773" fill="#84BE84" rx="3" ry="3" style="stroke:#038048;stroke-width:1.0;"/><text fill="#000000" font-family="sans-serif" font-size="14" lengthAdjust="spacing" textLength="94" x="1475.5" y="1071.5742">int hashCode()</text></g><!--reverse link Model to GymModel--><g id="link_Model_GymModel"><path codeLine="80" d="M801.19,549.3537 C704.85,615.6437 573.87,706.6737 460,789.0137 C447.51,798.0437 434.61,807.4737 421.7,817.0037 " fill="none" id="Model-backto-GymModel" style="stroke:#181818;stroke-width:1.0;"/><polygon fill="none" points="797.41,543.4637,817.85,537.9037,805.34,554.9937,797.41,543.4637" style="stroke:#181818;stroke-width:1.0;"/></g><!--reverse link Model to MapModel--><g id="link_Model_MapModel"><path codeLine="81" d="M808.87,711.6637 C786.42,755.6937 764.38,798.9237 745.82,835.3137 " fill="none" id="Model-backto-MapModel" style="stroke:#181818;stroke-width:1.0;"/><polygon fill="none" points="802.68,708.4037,818,693.7637,815.15,714.7637,802.68,708.4037" style="stroke:#181818;stroke-width:1.0;"/></g><!--reverse link Model to FavoritesModel--><g id="link_Model_FavoritesModel"><path codeLine="82" d="M1071.31,710.9737 C1090.26,747.9837 1108.93,784.4437 1125.49,816.7937 " fill="none" id="Model-backto-FavoritesModel" style="stroke:#181818;stroke-width:1.0;"/><polygon fill="none" points="1065.03,714.0537,1062.14,693.0637,1077.49,707.6737,1065.03,714.0537" style="stroke:#181818;stroke-width:1.0;"/></g><!--reverse link Model to PropertiesMenuModel--><g id="link_Model_PropertiesMenuModel"><path codeLine="83" d="M1079.76,538.1037 C1195.35,607.2437 1362.18,707.0337 1499.21,788.9937 " fill="none" id="Model-backto-PropertiesMenuModel" style="stroke:#181818;stroke-width:1.0;"/><polygon fill="none" points="1075.94,543.9837,1062.37,527.7037,1083.13,531.9637,1075.94,543.9837" style="stroke:#181818;stroke-width:1.0;"/></g><!--SRC=[hLRHRjCm57tFLrZYfOYs3pnNbL0HC8bfY4rZUtJJkzHJ4XVxTgECyktOIMt7hfsKmfjpxht7lkVOZlEIIaboNasBNRKKV9ept4qhle9o-d5NNUe1USacv8lW6n38G5v2lLtm6WKlIn1aumMoDsGsMmYW2FCvCGoZrmdyHj1QFd1HZIygMi1m6gjnV8s2rONERKT4Wc2qP3zXfC8QVv58aULxi-eTMO5BqXd9TWf0FzQaFt6sKjE4eHIBBbboNWAj2NpVqbAEhfQFa3UBKsiaQohN2zMQ8jzdT2bHq1n9tcE6SU8tQPIwPV1Cc1afr4f4q8nCBa7uWLi1sQkkkCQO27ZaIc-EisF5jyiIj8IVW1LhRAHporMu_MX2jqeHBjw-RqJdaY7ZzSWd-igramUuct-TqnBS11gwQTjiG2U73fYFWFmk-BuFlh-n5Quz_mzzjIdTW6lCZhnzOxepBNI3jiTZshRBM95frfwRCE1iiH4hWnrrmtUH-UyZMAkAmVTPxwwb6tU5l1E2xZupYJDriDrXcHDL9_sJR-h2YyFYAQvn_urYw_jB_ySD4sqKK27Isr8Da6fdIDyFz8aBXkh-6LRvmUJwalWKeU11j5_TPBBJysJgSLgIlvcpbsRGt43UqEBqXWQqfPxP3ZtNSV-N4xFTxCXvvzUi4hnf27-kGVXAHfZ3tH1BYKmS7iAnD_S_SnwSFI8zzQnwsgKzTJfwRuB4Uo2sPftfowwOhhJo7acB7BLp-WCYwtiop7vD9WCFl7FhpMrwRhr_lCvbYRZw1m00]--></g></svg>