<?xml version="1.0" encoding="us-ascii" standalone="no"?><svg xmlns="http://www.w3.org/2000/svg" xmlns:xlink="http://www.w3.org/1999/xlink" contentStyleType="text/css" height="930px" preserveAspectRatio="none" style="width:965px;height:930px;background:#FFFFFF;" version="1.1" viewBox="0 0 965 930" width="965px" zoomAndPan="magnify"><defs/><g><!--cluster com--><g id="cluster_com"><path d="M8.5,6.0137 L38.5,6.0137 A3.75,3.75 0 0 1 41,8.5137 L48,30.6348 L955.5,30.6348 A2.5,2.5 0 0 1 958,33.1348 L958,920.5137 A2.5,2.5 0 0 1 955.5,923.0137 L8.5,923.0137 A2.5,2.5 0 0 1 6,920.5137 L6,8.5137 A2.5,2.5 0 0 1 8.5,6.0137 " fill="none" style="stroke:#000000;stroke-width:1.5;"/><line style="stroke:#000000;stroke-width:1.5;" x1="6" x2="48" y1="30.6348" y2="30.6348"/><text fill="#000000" font-family="sans-serif" font-size="14" font-weight="bold" lengthAdjust="spacing" textLength="29" x="10" y="23.1211">com</text></g><!--cluster gymbro--><g id="cluster_gymbro"><path d="M32.5,51.0137 L85.5,51.0137 A3.75,3.75 0 0 1 88,53.5137 L95,75.6348 L931.5,75.6348 A2.5,2.5 0 0 1 934,78.1348 L934,896.5137 A2.5,2.5 0 0 1 931.5,899.0137 L32.5,899.0137 A2.5,2.5 0 0 1 30,896.5137 L30,53.5137 A2.5,2.5 0 0 1 32.5,51.0137 " fill="none" style="stroke:#000000;stroke-width:1.5;"/><line style="stroke:#000000;stroke-width:1.5;" x1="30" x2="95" y1="75.6348" y2="75.6348"/><text fill="#000000" font-family="sans-serif" font-size="14" font-weight="bold" lengthAdjust="spacing" textLength="52" x="34" y="68.1211">gymbro</text></g><!--cluster city--><g id="cluster_city"><path d="M56.5,96.0137 L81.5,96.0137 A3.75,3.75 0 0 1 84,98.5137 L91,120.6348 L907.5,120.6348 A2.5,2.5 0 0 1 910,123.1348 L910,872.5137 A2.5,2.5 0 0 1 907.5,875.0137 L56.5,875.0137 A2.5,2.5 0 0 1 54,872.5137 L54,98.5137 A2.5,2.5 0 0 1 56.5,96.0137 " fill="none" style="stroke:#000000;stroke-width:1.5;"/><line style="stroke:#000000;stroke-width:1.5;" x1="54" x2="91" y1="120.6348" y2="120.6348"/><text fill="#000000" font-family="sans-serif" font-size="14" font-weight="bold" lengthAdjust="spacing" textLength="24" x="58" y="113.1211">city</text></g><!--cluster builder--><g id="cluster_builder"><path d="M456.5,141.0137 L507.5,141.0137 A3.75,3.75 0 0 1 510,143.5137 L517,165.6348 L883.5,165.6348 A2.5,2.5 0 0 1 886,168.1348 L886,537.5137 A2.5,2.5 0 0 1 883.5,540.0137 L456.5,540.0137 A2.5,2.5 0 0 1 454,537.5137 L454,143.5137 A2.5,2.5 0 0 1 456.5,141.0137 " fill="none" style="stroke:#000000;stroke-width:1.5;"/><line style="stroke:#000000;stroke-width:1.5;" x1="454" x2="517" y1="165.6348" y2="165.6348"/><text fill="#000000" font-family="sans-serif" font-size="14" font-weight="bold" lengthAdjust="spacing" textLength="50" x="458" y="158.1211">builder</text></g><!--cluster model--><g id="cluster_model"><path d="M110.5,564.0137 L154.5,564.0137 A3.75,3.75 0 0 1 157,566.5137 L164,588.6348 L485.5,588.6348 A2.5,2.5 0 0 1 488,591.1348 L488,848.5137 A2.5,2.5 0 0 1 485.5,851.0137 L110.5,851.0137 A2.5,2.5 0 0 1 108,848.5137 L108,566.5137 A2.5,2.5 0 0 1 110.5,564.0137 " fill="none" style="stroke:#000000;stroke-width:1.5;"/><line style="stroke:#000000;stroke-width:1.5;" x1="108" x2="164" y1="588.6348" y2="588.6348"/><text fill="#000000" font-family="sans-serif" font-size="14" font-weight="bold" lengthAdjust="spacing" textLength="43" x="112" y="581.1211">model</text></g><!--cluster view--><g id="cluster_view"><path d="M529.5,610.5137 L563.5,610.5137 A3.75,3.75 0 0 1 566,613.0137 L573,635.1348 L780.5,635.1348 A2.5,2.5 0 0 1 783,637.6348 L783,802.0137 A2.5,2.5 0 0 1 780.5,804.5137 L529.5,804.5137 A2.5,2.5 0 0 1 527,802.0137 L527,613.0137 A2.5,2.5 0 0 1 529.5,610.5137 " fill="none" style="stroke:#000000;stroke-width:1.5;"/><line style="stroke:#000000;stroke-width:1.5;" x1="527" x2="573" y1="635.1348" y2="635.1348"/><text fill="#000000" font-family="sans-serif" font-size="14" font-weight="bold" lengthAdjust="spacing" textLength="33" x="531" y="627.6211">view</text></g><!--cluster controller--><g id="cluster_controller"><path d="M80.5,215.5137 L150.5,215.5137 A3.75,3.75 0 0 1 153,218.0137 L160,240.1348 L427.5,240.1348 A2.5,2.5 0 0 1 430,242.6348 L430,463.0137 A2.5,2.5 0 0 1 427.5,465.5137 L80.5,465.5137 A2.5,2.5 0 0 1 78,463.0137 L78,218.0137 A2.5,2.5 0 0 1 80.5,215.5137 " fill="none" style="stroke:#000000;stroke-width:1.5;"/><line style="stroke:#000000;stroke-width:1.5;" x1="78" x2="160" y1="240.1348" y2="240.1348"/><text fill="#000000" font-family="sans-serif" font-size="14" font-weight="bold" lengthAdjust="spacing" textLength="69" x="82" y="232.6211">controller</text></g><!--class GymBuilder--><g id="elem_GymBuilder"><rect codeLine="1" fill="#F1F1F1" height="345.9375" id="GymBuilder" rx="2.5" ry="2.5" style="stroke:#181818;stroke-width:0.5;" width="399" x="470.5" y="178.0137"/><ellipse cx="629.25" cy="194.0137" fill="#ADD1B2" rx="11" ry="11" style="stroke:#181818;stroke-width:1.0;"/><path d="M632.0156,189.8887 Q632.1719,189.6699 632.3594,189.5605 Q632.5469,189.4512 632.7656,189.4512 Q633.1406,189.4512 633.375,189.7168 Q633.6094,189.9668 633.6094,190.5762 L633.6094,192.0293 Q633.6094,192.6387 633.375,192.9043 Q633.1406,193.1699 632.7656,193.1699 Q632.4219,193.1699 632.2188,192.9668 Q632.0156,192.7793 631.9063,192.2637 Q631.8594,191.9043 631.6719,191.7168 Q631.3438,191.3418 630.7344,191.123 Q630.125,190.9043 629.5,190.9043 Q628.7344,190.9043 628.0938,191.2324 Q627.4688,191.5605 626.9688,192.3105 Q626.4844,193.0605 626.4844,194.0918 L626.4844,195.1855 Q626.4844,196.4199 627.375,197.248 Q628.2656,198.0605 629.8594,198.0605 Q630.7969,198.0605 631.4531,197.8105 Q631.8438,197.6543 632.2656,197.2168 Q632.5313,196.9512 632.6719,196.873 Q632.8281,196.7949 633.0313,196.7949 Q633.3594,196.7949 633.6094,197.0605 Q633.875,197.3105 633.875,197.6543 Q633.875,197.998 633.5313,198.4043 Q633.0313,198.9824 632.2344,199.3105 Q631.1563,199.7637 629.8594,199.7637 Q628.3438,199.7637 627.1406,199.1387 Q626.1563,198.6387 625.4688,197.5762 Q624.7813,196.498 624.7813,195.2168 L624.7813,194.0605 Q624.7813,192.7324 625.3906,191.5918 Q626.0156,190.4355 627.1094,189.8262 Q628.2031,189.2012 629.4375,189.2012 Q630.1719,189.2012 630.8125,189.373 Q631.4688,189.5293 632.0156,189.8887 Z " fill="#000000"/><text fill="#000000" font-family="sans-serif" font-size="14" lengthAdjust="spacing" textLength="73" x="649.75" y="199.8105">GymBuilder</text><line style="stroke:#181818;stroke-width:0.5;" x1="471.5" x2="868.5" y1="210.0137" y2="210.0137"/><line style="stroke:#181818;stroke-width:0.5;" x1="471.5" x2="868.5" y1="218.0137" y2="218.0137"/><ellipse cx="481.5" cy="232.8242" fill="#84BE84" rx="3" ry="3" style="stroke:#038048;stroke-width:1.0;"/><text fill="#000000" font-family="sans-serif" font-size="14" lengthAdjust="spacing" textLength="146" x="490.5" y="237.1211">&#171;Create&#187; GymBuilder()</text><ellipse cx="481.5" cy="251.4453" fill="#84BE84" rx="3" ry="3" style="stroke:#038048;stroke-width:1.0;"/><text fill="#000000" font-family="sans-serif" font-size="14" lengthAdjust="spacing" textLength="213" x="490.5" y="255.7422">&#171;Create&#187; GymBuilder(GymModel)</text><ellipse cx="481.5" cy="270.0664" fill="#84BE84" rx="3" ry="3" style="stroke:#038048;stroke-width:1.0;"/><text fill="#000000" font-family="sans-serif" font-size="14" lengthAdjust="spacing" textLength="373" x="490.5" y="274.3633">GymBuilder addPropertiesMenu(PropertiesMenuController)</text><ellipse cx="481.5" cy="288.6875" fill="#84BE84" rx="3" ry="3" style="stroke:#038048;stroke-width:1.0;"/><text fill="#000000" font-family="sans-serif" font-size="14" lengthAdjust="spacing" textLength="178" x="490.5" y="292.9844">GymBuilder makeClickable()</text><ellipse cx="481.5" cy="307.3086" fill="#84BE84" rx="3" ry="3" style="stroke:#038048;stroke-width:1.0;"/><text fill="#000000" font-family="sans-serif" font-size="14" lengthAdjust="spacing" textLength="185" x="490.5" y="311.6055">GymBuilder makeHoverable()</text><ellipse cx="481.5" cy="325.9297" fill="#84BE84" rx="3" ry="3" style="stroke:#038048;stroke-width:1.0;"/><text fill="#000000" font-family="sans-serif" font-size="14" lengthAdjust="spacing" textLength="186" x="490.5" y="330.2266">GymBuilder makeInteractive()</text><ellipse cx="481.5" cy="344.5508" fill="#84BE84" rx="3" ry="3" style="stroke:#038048;stroke-width:1.0;"/><text fill="#000000" font-family="sans-serif" font-size="14" lengthAdjust="spacing" textLength="135" x="490.5" y="348.8477">GymController build()</text><ellipse cx="481.5" cy="363.1719" fill="#84BE84" rx="3" ry="3" style="stroke:#038048;stroke-width:1.0;"/><text fill="#000000" font-family="sans-serif" font-size="14" lengthAdjust="spacing" textLength="235" x="490.5" y="367.4688">GymBuilder addController(Controller)</text><ellipse cx="481.5" cy="381.793" fill="#84BE84" rx="3" ry="3" style="stroke:#038048;stroke-width:1.0;"/><text fill="#000000" font-family="sans-serif" font-size="14" lengthAdjust="spacing" textLength="187" x="490.5" y="386.0898">GymBuilder addModel(Model)</text><ellipse cx="481.5" cy="400.4141" fill="#84BE84" rx="3" ry="3" style="stroke:#038048;stroke-width:1.0;"/><text fill="#000000" font-family="sans-serif" font-size="14" lengthAdjust="spacing" textLength="169" x="490.5" y="404.7109">GymBuilder addView(View)</text><ellipse cx="481.5" cy="419.0352" fill="#84BE84" rx="3" ry="3" style="stroke:#038048;stroke-width:1.0;"/><text fill="#000000" font-family="sans-serif" font-size="14" lengthAdjust="spacing" textLength="241" x="490.5" y="423.332">GymBuilder addTransform(Transform)</text><ellipse cx="481.5" cy="437.6563" fill="#84BE84" rx="3" ry="3" style="stroke:#038048;stroke-width:1.0;"/><text fill="#000000" font-family="sans-serif" font-size="14" lengthAdjust="spacing" textLength="197" x="490.5" y="441.9531">GymBuilder addTexture(Image)</text><ellipse cx="481.5" cy="456.2773" fill="#84BE84" rx="3" ry="3" style="stroke:#038048;stroke-width:1.0;"/><text fill="#000000" font-family="sans-serif" font-size="14" lengthAdjust="spacing" textLength="196" x="490.5" y="460.5742">GymBuilder addTexture(String)</text><ellipse cx="481.5" cy="474.8984" fill="#84BE84" rx="3" ry="3" style="stroke:#038048;stroke-width:1.0;"/><text fill="#000000" font-family="sans-serif" font-size="14" lengthAdjust="spacing" textLength="187" x="490.5" y="479.1953">GymController getController()</text><ellipse cx="481.5" cy="493.5195" fill="#84BE84" rx="3" ry="3" style="stroke:#038048;stroke-width:1.0;"/><text fill="#000000" font-family="sans-serif" font-size="14" lengthAdjust="spacing" textLength="139" x="490.5" y="497.8164">GymModel getModel()</text><ellipse cx="481.5" cy="512.1406" fill="#84BE84" rx="3" ry="3" style="stroke:#038048;stroke-width:1.0;"/><text fill="#000000" font-family="sans-serif" font-size="14" lengthAdjust="spacing" textLength="121" x="490.5" y="516.4375">GymView getView()</text></g><!--class GymModel--><g id="elem_GymModel"><rect codeLine="21" fill="#F1F1F1" height="234.2109" id="GymModel" rx="2.5" ry="2.5" style="stroke:#181818;stroke-width:0.5;" width="347" x="124.5" y="601.0137"/><ellipse cx="260.25" cy="617.0137" fill="#ADD1B2" rx="11" ry="11" style="stroke:#181818;stroke-width:1.0;"/><path d="M263.0156,612.8887 Q263.1719,612.6699 263.3594,612.5605 Q263.5469,612.4512 263.7656,612.4512 Q264.1406,612.4512 264.375,612.7168 Q264.6094,612.9668 264.6094,613.5762 L264.6094,615.0293 Q264.6094,615.6387 264.375,615.9043 Q264.1406,616.1699 263.7656,616.1699 Q263.4219,616.1699 263.2188,615.9668 Q263.0156,615.7793 262.9063,615.2637 Q262.8594,614.9043 262.6719,614.7168 Q262.3438,614.3418 261.7344,614.123 Q261.125,613.9043 260.5,613.9043 Q259.7344,613.9043 259.0938,614.2324 Q258.4688,614.5605 257.9688,615.3105 Q257.4844,616.0605 257.4844,617.0918 L257.4844,618.1855 Q257.4844,619.4199 258.375,620.248 Q259.2656,621.0605 260.8594,621.0605 Q261.7969,621.0605 262.4531,620.8105 Q262.8438,620.6543 263.2656,620.2168 Q263.5313,619.9512 263.6719,619.873 Q263.8281,619.7949 264.0313,619.7949 Q264.3594,619.7949 264.6094,620.0605 Q264.875,620.3105 264.875,620.6543 Q264.875,620.998 264.5313,621.4043 Q264.0313,621.9824 263.2344,622.3105 Q262.1563,622.7637 260.8594,622.7637 Q259.3438,622.7637 258.1406,622.1387 Q257.1563,621.6387 256.4688,620.5762 Q255.7813,619.498 255.7813,618.2168 L255.7813,617.0605 Q255.7813,615.7324 256.3906,614.5918 Q257.0156,613.4355 258.1094,612.8262 Q259.2031,612.2012 260.4375,612.2012 Q261.1719,612.2012 261.8125,612.373 Q262.4688,612.5293 263.0156,612.8887 Z " fill="#000000"/><text fill="#000000" font-family="sans-serif" font-size="14" lengthAdjust="spacing" textLength="67" x="280.75" y="622.8105">GymModel</text><line style="stroke:#181818;stroke-width:0.5;" x1="125.5" x2="470.5" y1="633.0137" y2="633.0137"/><rect fill="none" height="6" style="stroke:#C82930;stroke-width:1.0;" width="6" x="132.5" y="644.8242"/><text fill="#000000" font-family="sans-serif" font-size="14" lengthAdjust="spacing" textLength="265" x="144.5" y="652.1211">PropertiesMenuController propertiesMenu</text><line style="stroke:#181818;stroke-width:0.5;" x1="125.5" x2="470.5" y1="659.6348" y2="659.6348"/><ellipse cx="135.5" cy="674.4453" fill="#84BE84" rx="3" ry="3" style="stroke:#038048;stroke-width:1.0;"/><text fill="#000000" font-family="sans-serif" font-size="14" lengthAdjust="spacing" textLength="140" x="144.5" y="678.7422">&#171;Create&#187; GymModel()</text><ellipse cx="135.5" cy="693.0664" fill="#84BE84" rx="3" ry="3" style="stroke:#038048;stroke-width:1.0;"/><text fill="#000000" font-family="sans-serif" font-size="14" lengthAdjust="spacing" textLength="247" x="144.5" y="697.3633">&#171;Create&#187; GymModel(Transform,Image)</text><ellipse cx="135.5" cy="711.6875" fill="#84BE84" rx="3" ry="3" style="stroke:#038048;stroke-width:1.0;"/><text fill="#000000" font-family="sans-serif" font-size="14" lengthAdjust="spacing" textLength="265" x="144.5" y="715.9844">&#171;Create&#187; GymModel(Transform,int,String)</text><ellipse cx="135.5" cy="730.3086" fill="#84BE84" rx="3" ry="3" style="stroke:#038048;stroke-width:1.0;"/><text fill="#000000" font-family="sans-serif" font-size="14" lengthAdjust="spacing" textLength="117" x="144.5" y="734.6055">String serialize(int)</text><ellipse cx="135.5" cy="748.9297" fill="#84BE84" rx="3" ry="3" style="stroke:#038048;stroke-width:1.0;"/><text fill="#000000" font-family="sans-serif" font-size="14" lengthAdjust="spacing" text-decoration="underline" textLength="135" x="144.5" y="753.2266">Property deserialize()</text><ellipse cx="135.5" cy="767.5508" fill="#84BE84" rx="3" ry="3" style="stroke:#038048;stroke-width:1.0;"/><text fill="#000000" font-family="sans-serif" font-size="14" lengthAdjust="spacing" textLength="296" x="144.5" y="771.8477">PropertiesMenuController getPropertiesMenu()</text><ellipse cx="135.5" cy="786.1719" fill="#84BE84" rx="3" ry="3" style="stroke:#038048;stroke-width:1.0;"/><text fill="#000000" font-family="sans-serif" font-size="14" lengthAdjust="spacing" textLength="321" x="144.5" y="790.4688">void setPropertiesMenu(PropertiesMenuController)</text><ellipse cx="135.5" cy="804.793" fill="#84BE84" rx="3" ry="3" style="stroke:#038048;stroke-width:1.0;"/><text fill="#000000" font-family="sans-serif" font-size="14" lengthAdjust="spacing" textLength="148" x="144.5" y="809.0898">boolean equals(Object)</text><ellipse cx="135.5" cy="823.4141" fill="#84BE84" rx="3" ry="3" style="stroke:#038048;stroke-width:1.0;"/><text fill="#000000" font-family="sans-serif" font-size="14" lengthAdjust="spacing" textLength="94" x="144.5" y="827.7109">int hashCode()</text></g><!--class GymView--><g id="elem_GymView"><rect codeLine="33" fill="#F1F1F1" height="141.1055" id="GymView" rx="2.5" ry="2.5" style="stroke:#181818;stroke-width:0.5;" width="224" x="543" y="647.5137"/><ellipse cx="621.75" cy="663.5137" fill="#ADD1B2" rx="11" ry="11" style="stroke:#181818;stroke-width:1.0;"/><path d="M624.5156,659.3887 Q624.6719,659.1699 624.8594,659.0605 Q625.0469,658.9512 625.2656,658.9512 Q625.6406,658.9512 625.875,659.2168 Q626.1094,659.4668 626.1094,660.0762 L626.1094,661.5293 Q626.1094,662.1387 625.875,662.4043 Q625.6406,662.6699 625.2656,662.6699 Q624.9219,662.6699 624.7188,662.4668 Q624.5156,662.2793 624.4063,661.7637 Q624.3594,661.4043 624.1719,661.2168 Q623.8438,660.8418 623.2344,660.623 Q622.625,660.4043 622,660.4043 Q621.2344,660.4043 620.5938,660.7324 Q619.9688,661.0605 619.4688,661.8105 Q618.9844,662.5605 618.9844,663.5918 L618.9844,664.6855 Q618.9844,665.9199 619.875,666.748 Q620.7656,667.5605 622.3594,667.5605 Q623.2969,667.5605 623.9531,667.3105 Q624.3438,667.1543 624.7656,666.7168 Q625.0313,666.4512 625.1719,666.373 Q625.3281,666.2949 625.5313,666.2949 Q625.8594,666.2949 626.1094,666.5605 Q626.375,666.8105 626.375,667.1543 Q626.375,667.498 626.0313,667.9043 Q625.5313,668.4824 624.7344,668.8105 Q623.6563,669.2637 622.3594,669.2637 Q620.8438,669.2637 619.6406,668.6387 Q618.6563,668.1387 617.9688,667.0762 Q617.2813,665.998 617.2813,664.7168 L617.2813,663.5605 Q617.2813,662.2324 617.8906,661.0918 Q618.5156,659.9355 619.6094,659.3262 Q620.7031,658.7012 621.9375,658.7012 Q622.6719,658.7012 623.3125,658.873 Q623.9688,659.0293 624.5156,659.3887 Z " fill="#000000"/><text fill="#000000" font-family="sans-serif" font-size="14" lengthAdjust="spacing" textLength="58" x="642.25" y="669.3105">GymView</text><line style="stroke:#181818;stroke-width:0.5;" x1="544" x2="766" y1="679.5137" y2="679.5137"/><line style="stroke:#181818;stroke-width:0.5;" x1="544" x2="766" y1="687.5137" y2="687.5137"/><ellipse cx="554" cy="702.3242" fill="#84BE84" rx="3" ry="3" style="stroke:#038048;stroke-width:1.0;"/><text fill="#000000" font-family="sans-serif" font-size="14" lengthAdjust="spacing" textLength="131" x="563" y="706.6211">&#171;Create&#187; GymView()</text><ellipse cx="554" cy="720.9453" fill="#84BE84" rx="3" ry="3" style="stroke:#038048;stroke-width:1.0;"/><text fill="#000000" font-family="sans-serif" font-size="14" lengthAdjust="spacing" textLength="198" x="563" y="725.2422">&#171;Create&#187; GymView(GymModel)</text><ellipse cx="554" cy="739.5664" fill="#84BE84" rx="3" ry="3" style="stroke:#038048;stroke-width:1.0;"/><text fill="#000000" font-family="sans-serif" font-size="14" lengthAdjust="spacing" textLength="84" x="563" y="743.8633">void zoomIn()</text><ellipse cx="554" cy="758.1875" fill="#84BE84" rx="3" ry="3" style="stroke:#038048;stroke-width:1.0;"/><text fill="#000000" font-family="sans-serif" font-size="14" lengthAdjust="spacing" textLength="96" x="563" y="762.4844">void zoomOut()</text><ellipse cx="554" cy="776.8086" fill="#84BE84" rx="3" ry="3" style="stroke:#038048;stroke-width:1.0;"/><text fill="#000000" font-family="sans-serif" font-size="14" lengthAdjust="spacing" textLength="137" x="563" y="781.1055">void showProperties()</text></g><!--class GymController--><g id="elem_GymController"><rect codeLine="40" fill="#F1F1F1" height="196.9688" id="GymController" rx="2.5" ry="2.5" style="stroke:#181818;stroke-width:0.5;" width="319" x="94.5" y="252.5137"/><ellipse cx="204.25" cy="268.5137" fill="#ADD1B2" rx="11" ry="11" style="stroke:#181818;stroke-width:1.0;"/><path d="M207.0156,264.3887 Q207.1719,264.1699 207.3594,264.0605 Q207.5469,263.9512 207.7656,263.9512 Q208.1406,263.9512 208.375,264.2168 Q208.6094,264.4668 208.6094,265.0762 L208.6094,266.5293 Q208.6094,267.1387 208.375,267.4043 Q208.1406,267.6699 207.7656,267.6699 Q207.4219,267.6699 207.2188,267.4668 Q207.0156,267.2793 206.9063,266.7637 Q206.8594,266.4043 206.6719,266.2168 Q206.3438,265.8418 205.7344,265.623 Q205.125,265.4043 204.5,265.4043 Q203.7344,265.4043 203.0938,265.7324 Q202.4688,266.0605 201.9688,266.8105 Q201.4844,267.5605 201.4844,268.5918 L201.4844,269.6855 Q201.4844,270.9199 202.375,271.748 Q203.2656,272.5605 204.8594,272.5605 Q205.7969,272.5605 206.4531,272.3105 Q206.8438,272.1543 207.2656,271.7168 Q207.5313,271.4512 207.6719,271.373 Q207.8281,271.2949 208.0313,271.2949 Q208.3594,271.2949 208.6094,271.5605 Q208.875,271.8105 208.875,272.1543 Q208.875,272.498 208.5313,272.9043 Q208.0313,273.4824 207.2344,273.8105 Q206.1563,274.2637 204.8594,274.2637 Q203.3438,274.2637 202.1406,273.6387 Q201.1563,273.1387 200.4688,272.0762 Q199.7813,270.998 199.7813,269.7168 L199.7813,268.5605 Q199.7813,267.2324 200.3906,266.0918 Q201.0156,264.9355 202.1094,264.3262 Q203.2031,263.7012 204.4375,263.7012 Q205.1719,263.7012 205.8125,263.873 Q206.4688,264.0293 207.0156,264.3887 Z " fill="#000000"/><text fill="#000000" font-family="sans-serif" font-size="14" lengthAdjust="spacing" textLength="91" x="224.75" y="274.3105">GymController</text><line style="stroke:#181818;stroke-width:0.5;" x1="95.5" x2="412.5" y1="284.5137" y2="284.5137"/><line style="stroke:#181818;stroke-width:0.5;" x1="95.5" x2="412.5" y1="292.5137" y2="292.5137"/><ellipse cx="105.5" cy="307.3242" fill="#84BE84" rx="3" ry="3" style="stroke:#038048;stroke-width:1.0;"/><text fill="#000000" font-family="sans-serif" font-size="14" lengthAdjust="spacing" textLength="231" x="114.5" y="311.6211">&#171;Create&#187; GymController(GymModel)</text><ellipse cx="105.5" cy="325.9453" fill="#84BE84" rx="3" ry="3" style="stroke:#038048;stroke-width:1.0;"/><text fill="#000000" font-family="sans-serif" font-size="14" lengthAdjust="spacing" textLength="293" x="114.5" y="330.2422">&#171;Create&#187; GymController(GymModel,GymView)</text><ellipse cx="105.5" cy="344.5664" fill="#84BE84" rx="3" ry="3" style="stroke:#038048;stroke-width:1.0;"/><text fill="#000000" font-family="sans-serif" font-size="14" lengthAdjust="spacing" textLength="131" x="114.5" y="348.8633">void makeClickable()</text><ellipse cx="105.5" cy="363.1875" fill="#84BE84" rx="3" ry="3" style="stroke:#038048;stroke-width:1.0;"/><text fill="#000000" font-family="sans-serif" font-size="14" lengthAdjust="spacing" textLength="138" x="114.5" y="367.4844">void makeHoverable()</text><ellipse cx="105.5" cy="381.8086" fill="#84BE84" rx="3" ry="3" style="stroke:#038048;stroke-width:1.0;"/><text fill="#000000" font-family="sans-serif" font-size="14" lengthAdjust="spacing" textLength="139" x="114.5" y="386.1055">void makeInteractive()</text><rect fill="#F24D5C" height="6" style="stroke:#C82930;stroke-width:1.0;" width="6" x="102.5" y="397.4297"/><text fill="#000000" font-family="sans-serif" font-size="14" lengthAdjust="spacing" textLength="191" x="114.5" y="404.7266">void handleClick(MouseEvent)</text><rect fill="#F24D5C" height="6" style="stroke:#C82930;stroke-width:1.0;" width="6" x="102.5" y="416.0508"/><text fill="#000000" font-family="sans-serif" font-size="14" lengthAdjust="spacing" textLength="228" x="114.5" y="423.3477">void handleStartHover(MouseEvent)</text><rect fill="#F24D5C" height="6" style="stroke:#C82930;stroke-width:1.0;" width="6" x="102.5" y="434.6719"/><text fill="#000000" font-family="sans-serif" font-size="14" lengthAdjust="spacing" textLength="223" x="114.5" y="441.9688">void handleEndHover(MouseEvent)</text></g><!--reverse link GymController to GymView--><g id="link_GymController_GymView"><path codeLine="51" d="M342.56,459.3737 C374.57,492.1437 413.01,525.4537 454,548.0137 C467.6,555.5037 474.37,548.5837 488,556.0137 C529.9,578.8537 568.79,615.0437 598.49,647.3337 " fill="none" id="GymController-backto-GymView" style="stroke:#181818;stroke-width:1.0;"/><polygon fill="none" points="333.27,449.6937,334.541,456.7919,341.582,458.3487,340.311,451.2505,333.27,449.6937" style="stroke:#181818;stroke-width:1.0;"/></g><!--reverse link GymController to GymModel--><g id="link_GymController_GymModel"><path codeLine="52" d="M267.36,462.8437 C272.62,506.4837 278.66,556.6137 283.99,600.7537 " fill="none" id="GymController-backto-GymModel" style="stroke:#181818;stroke-width:1.0;"/><polygon fill="none" points="265.79,449.8237,262.5308,456.2562,267.2151,461.7388,270.4742,455.3062,265.79,449.8237" style="stroke:#181818;stroke-width:1.0;"/></g><!--reverse link GymBuilder to GymModel--><g id="link_GymBuilder_GymModel"><path codeLine="54" d="M485.28,533.2637 C461.81,556.2837 438.31,579.3437 416.28,600.9637 " fill="none" id="GymBuilder-backto-GymModel" style="stroke:#181818;stroke-width:1.0;"/><polygon fill="#181818" points="494.62,524.0937,487.5371,525.4474,486.0625,532.5061,493.1454,531.1524,494.62,524.0937" style="stroke:#181818;stroke-width:1.0;"/></g><!--reverse link GymBuilder to GymView--><g id="link_GymBuilder_GymView"><path codeLine="55" d="M662.39,537.1337 C660.78,576.4437 659.17,615.5937 657.87,647.2837 " fill="none" id="GymBuilder-backto-GymView" style="stroke:#181818;stroke-width:1.0;"/><polygon fill="#181818" points="662.93,524.0937,658.6893,529.926,662.442,536.0837,666.6827,530.2514,662.93,524.0937" style="stroke:#181818;stroke-width:1.0;"/></g><!--reverse link GymBuilder to GymController--><g id="link_GymBuilder_GymController"><path codeLine="56" d="M457.16,351.0137 C442.66,351.0137 428.16,351.0137 413.66,351.0137 " fill="none" id="GymBuilder-backto-GymController" style="stroke:#181818;stroke-width:1.0;"/><polygon fill="#181818" points="470.48,351.0137,464.48,347.0137,458.48,351.0137,464.48,355.0137,470.48,351.0137" style="stroke:#181818;stroke-width:1.0;"/></g><!--reverse link GymController to GymBuilder--><g id="link_GymController_GymBuilder"><path codeLine="58" d="M434.08,351.0137 C446.21,351.0137 458.35,351.0137 470.48,351.0137 " fill="none" id="GymController-backto-GymBuilder" style="stroke:#181818;stroke-width:1.0;stroke-dasharray:7.0,7.0;"/><polygon fill="none" points="433.66,358.0137,413.66,351.0137,433.66,344.0137,433.66,358.0137" style="stroke:#181818;stroke-width:1.0;"/></g><!--SRC=[fLNBKiCW5DtdArYYjdn1nuKTHxjmT4R7FI7N5YMWGAAr-kz2KabIGgswwP1xJcxEkG_A13K6CLMIvRhCjIACspN9AouAqEHYNPwrHxJ9Jj1iDjT0BPoUeWx1Hqd47QzK0S8pUgbeKTnezGpQSZ1N82iyV9mhQRKI0lJEYoLzWhdWx8dc0l08UAbgq2bm8Qq3cULrWBileSOoZfLs59pKvMYDJvnmUy_X5VkV6BhJL9e7fKiSJYCaUBEL1hmewHBIyAtLN2vZQqkmFHTRl97geLRvDkf5-c2Z-2ZxpBACZKv8wTyY8Syccw9K4z7p08YcfHCm5WzbcGJt-sbSsabNYVQ436XE1Ny7x60VtnXBBMUVtwhNg82Ev1b9EwuyE-FhwRNYXVkC_SLavqe9e1B1IqM5mTVv8x16dDE8LjIivivQquNn7jIkIUIxQV5-Rdiu6kvlPgFyNQbo8V7W-RgoFMihzTgPsQEA1OzaE8QnmjvKzWNzI9fiRGHnySKGmiCh8OI7by6q1LPK5g9Dv5QvCd1UWn-N0NnhgRPDrZJdN1OnmotJmRLIq-dUTlylqt1vOraZr__npsd-c6MlhGDpfDp_ekAp3q8E-1_y0W00]--></g></svg>