<?xml version="1.0" encoding="us-ascii" standalone="no"?><svg xmlns="http://www.w3.org/2000/svg" xmlns:xlink="http://www.w3.org/1999/xlink" contentStyleType="text/css" height="1135px" preserveAspectRatio="none" style="width:1376px;height:1135px;background:#FFFFFF;" version="1.1" viewBox="0 0 1376 1135" width="1376px" zoomAndPan="magnify"><defs/><g><!--cluster com--><g id="cluster_com"><path d="M8.5,6.0137 L38.5,6.0137 A3.75,3.75 0 0 1 41,8.5137 L48,30.6348 L1366.5,30.6348 A2.5,2.5 0 0 1 1369,33.1348 L1369,1125.5137 A2.5,2.5 0 0 1 1366.5,1128.0137 L8.5,1128.0137 A2.5,2.5 0 0 1 6,1125.5137 L6,8.5137 A2.5,2.5 0 0 1 8.5,6.0137 " fill="none" style="stroke:#000000;stroke-width:1.5;"/><line style="stroke:#000000;stroke-width:1.5;" x1="6" x2="48" y1="30.6348" y2="30.6348"/><text fill="#000000" font-family="sans-serif" font-size="14" font-weight="bold" lengthAdjust="spacing" textLength="29" x="10" y="23.1211">com</text></g><!--cluster gymbro--><g id="cluster_gymbro"><path d="M32.5,51.0137 L85.5,51.0137 A3.75,3.75 0 0 1 88,53.5137 L95,75.6348 L1342.5,75.6348 A2.5,2.5 0 0 1 1345,78.1348 L1345,1101.5137 A2.5,2.5 0 0 1 1342.5,1104.0137 L32.5,1104.0137 A2.5,2.5 0 0 1 30,1101.5137 L30,53.5137 A2.5,2.5 0 0 1 32.5,51.0137 " fill="none" style="stroke:#000000;stroke-width:1.5;"/><line style="stroke:#000000;stroke-width:1.5;" x1="30" x2="95" y1="75.6348" y2="75.6348"/><text fill="#000000" font-family="sans-serif" font-size="14" font-weight="bold" lengthAdjust="spacing" textLength="52" x="34" y="68.1211">gymbro</text></g><!--cluster file--><g id="cluster_file"><path d="M516.5,96.0137 L539.5,96.0137 A3.75,3.75 0 0 1 542,98.5137 L549,120.6348 L971.5,120.6348 A2.5,2.5 0 0 1 974,123.1348 L974,380.5137 A2.5,2.5 0 0 1 971.5,383.0137 L516.5,383.0137 A2.5,2.5 0 0 1 514,380.5137 L514,98.5137 A2.5,2.5 0 0 1 516.5,96.0137 " fill="none" style="stroke:#000000;stroke-width:1.5;"/><line style="stroke:#000000;stroke-width:1.5;" x1="514" x2="549" y1="120.6348" y2="120.6348"/><text fill="#000000" font-family="sans-serif" font-size="14" font-weight="bold" lengthAdjust="spacing" textLength="22" x="518" y="113.1211">file</text></g><!--cluster city--><g id="cluster_city"><path d="M56.5,407.0137 L81.5,407.0137 A3.75,3.75 0 0 1 84,409.5137 L91,431.6348 L375.5,431.6348 A2.5,2.5 0 0 1 378,434.1348 L378,1077.5137 A2.5,2.5 0 0 1 375.5,1080.0137 L56.5,1080.0137 A2.5,2.5 0 0 1 54,1077.5137 L54,409.5137 A2.5,2.5 0 0 1 56.5,407.0137 " fill="none" style="stroke:#000000;stroke-width:1.5;"/><line style="stroke:#000000;stroke-width:1.5;" x1="54" x2="91" y1="431.6348" y2="431.6348"/><text fill="#000000" font-family="sans-serif" font-size="14" font-weight="bold" lengthAdjust="spacing" textLength="24" x="58" y="424.1211">city</text></g><!--cluster model--><g id="cluster_model"><path d="M80.5,452.0137 L124.5,452.0137 A3.75,3.75 0 0 1 127,454.5137 L134,476.6348 L351.5,476.6348 A2.5,2.5 0 0 1 354,479.1348 L354,1053.5137 A2.5,2.5 0 0 1 351.5,1056.0137 L80.5,1056.0137 A2.5,2.5 0 0 1 78,1053.5137 L78,454.5137 A2.5,2.5 0 0 1 80.5,452.0137 " fill="none" style="stroke:#000000;stroke-width:1.5;"/><line style="stroke:#000000;stroke-width:1.5;" x1="78" x2="134" y1="476.6348" y2="476.6348"/><text fill="#000000" font-family="sans-serif" font-size="14" font-weight="bold" lengthAdjust="spacing" textLength="43" x="82" y="469.1211">model</text></g><!--cluster utils--><g id="cluster_utils"><path d="M404.5,545.0137 L435.5,545.0137 A3.75,3.75 0 0 1 438,547.5137 L445,569.6348 L1318.5,569.6348 A2.5,2.5 0 0 1 1321,572.1348 L1321,960.5137 A2.5,2.5 0 0 1 1318.5,963.0137 L404.5,963.0137 A2.5,2.5 0 0 1 402,960.5137 L402,547.5137 A2.5,2.5 0 0 1 404.5,545.0137 " fill="none" style="stroke:#000000;stroke-width:1.5;"/><line style="stroke:#000000;stroke-width:1.5;" x1="402" x2="445" y1="569.6348" y2="569.6348"/><text fill="#000000" font-family="sans-serif" font-size="14" font-weight="bold" lengthAdjust="spacing" textLength="30" x="406" y="562.1211">utils</text></g><!--class Serialization--><g id="elem_Serialization"><rect codeLine="1" fill="#F1F1F1" height="234.2109" id="Serialization" rx="2.5" ry="2.5" style="stroke:#181818;stroke-width:0.5;" width="428" x="530" y="133.0137"/><ellipse cx="701.25" cy="149.0137" fill="#B4A7E5" rx="11" ry="11" style="stroke:#181818;stroke-width:1.0;"/><path d="M702.2031,145.6543 L702.2031,152.3105 L703.9219,152.3105 Q704.5313,152.3105 704.7969,152.5449 Q705.0625,152.7793 705.0625,153.1699 Q705.0625,153.5449 704.7969,153.7793 Q704.5313,154.0137 703.9219,154.0137 L698.7813,154.0137 Q698.1719,154.0137 697.9063,153.7793 Q697.6406,153.5449 697.6406,153.1543 Q697.6406,152.7793 697.9063,152.5449 Q698.1719,152.3105 698.7813,152.3105 L700.5,152.3105 L700.5,145.6543 L698.7813,145.6543 Q698.1719,145.6543 697.9063,145.4199 Q697.6406,145.1855 697.6406,144.7949 Q697.6406,144.4199 697.9063,144.1855 Q698.1719,143.9512 698.7813,143.9512 L703.9219,143.9512 Q704.5313,143.9512 704.7969,144.1855 Q705.0625,144.4199 705.0625,144.7949 Q705.0625,145.1855 704.7969,145.4199 Q704.5313,145.6543 703.9219,145.6543 L702.2031,145.6543 Z " fill="#000000"/><text fill="#000000" font-family="sans-serif" font-size="14" font-style="italic" lengthAdjust="spacing" textLength="77" x="721.75" y="154.8105">Serialization</text><line style="stroke:#181818;stroke-width:0.5;" x1="531" x2="957" y1="165.0137" y2="165.0137"/><line style="stroke:#181818;stroke-width:0.5;" x1="531" x2="957" y1="173.0137" y2="173.0137"/><polygon fill="#4177AF" points="541,183.8242,537,189.8242,545,189.8242" style="stroke:#1963A0;stroke-width:1.0;"/><text fill="#000000" font-family="sans-serif" font-size="14" lengthAdjust="spacing" textLength="373" x="550" y="192.1211">String addStringProperty(String,String,int,boolean,boolean)</text><polygon fill="#4177AF" points="541,202.4453,537,208.4453,545,208.4453" style="stroke:#1963A0;stroke-width:1.0;"/><text fill="#000000" font-family="sans-serif" font-size="14" lengthAdjust="spacing" textLength="329" x="550" y="210.7422">String addIntProperty(String,int,int,boolean,boolean)</text><polygon fill="#4177AF" points="541,221.0664,537,227.0664,545,227.0664" style="stroke:#1963A0;stroke-width:1.0;"/><text fill="#000000" font-family="sans-serif" font-size="14" lengthAdjust="spacing" textLength="358" x="550" y="229.3633">String addFloatProperty(String,float,int,boolean,boolean)</text><polygon fill="#4177AF" points="541,239.6875,537,245.6875,545,245.6875" style="stroke:#1963A0;stroke-width:1.0;"/><text fill="#000000" font-family="sans-serif" font-size="14" lengthAdjust="spacing" textLength="387" x="550" y="247.9844">String addDoubleProperty(String,double,int,boolean,boolean)</text><polygon fill="#4177AF" points="541,258.3086,537,264.3086,545,264.3086" style="stroke:#1963A0;stroke-width:1.0;"/><text fill="#000000" font-family="sans-serif" font-size="14" lengthAdjust="spacing" textLength="402" x="550" y="266.6055">String addBooleanProperty(String,boolean,int,boolean,boolean)</text><polygon fill="#4177AF" points="541,276.9297,537,282.9297,545,282.9297" style="stroke:#1963A0;stroke-width:1.0;"/><text fill="#000000" font-family="sans-serif" font-size="14" lengthAdjust="spacing" textLength="237" x="550" y="285.2266">String beginObjectProperty(String,int)</text><polygon fill="#4177AF" points="541,295.5508,537,301.5508,545,301.5508" style="stroke:#1963A0;stroke-width:1.0;"/><text fill="#000000" font-family="sans-serif" font-size="14" lengthAdjust="spacing" textLength="185" x="550" y="303.8477">String endObjectProperty(int)</text><polygon fill="#4177AF" points="541,314.1719,537,320.1719,545,320.1719" style="stroke:#1963A0;stroke-width:1.0;"/><text fill="#000000" font-family="sans-serif" font-size="14" lengthAdjust="spacing" textLength="122" x="550" y="322.4688">String addTabs(int)</text><polygon fill="#4177AF" points="541,332.793,537,338.793,545,338.793" style="stroke:#1963A0;stroke-width:1.0;"/><text fill="#000000" font-family="sans-serif" font-size="14" lengthAdjust="spacing" textLength="225" x="550" y="341.0898">String addEnding(boolean,boolean)</text><polygon fill="#4177AF" points="541,351.4141,537,357.4141,545,357.4141" style="stroke:#1963A0;stroke-width:1.0;"/><text fill="#000000" font-family="sans-serif" font-size="14" lengthAdjust="spacing" textLength="117" x="550" y="359.7109">String serialize(int)</text></g><!--class Model--><g id="elem_Model"><rect codeLine="13" fill="#F1F1F1" height="550.7695" id="Model" rx="2.5" ry="2.5" style="stroke:#181818;stroke-width:0.5;" width="244" x="94" y="489.0137"/><ellipse cx="192.25" cy="505.0137" fill="#A9DCDF" rx="11" ry="11" style="stroke:#181818;stroke-width:1.0;"/><path d="M194.4375,506.7793 L190.2969,506.7793 L189.875,507.8105 L190.2969,507.8105 Q190.9063,507.8105 191.1719,508.0449 Q191.4375,508.2793 191.4375,508.6699 Q191.4375,509.0449 191.1719,509.2793 Q190.9063,509.5137 190.2969,509.5137 L188,509.5137 Q187.3906,509.5137 187.1406,509.2793 Q186.875,509.0449 186.875,508.6543 Q186.875,508.2793 187.1563,508.0449 Q187.4219,507.7949 188.0469,507.8105 L190.7188,501.1543 L189.6094,501.1543 Q189,501.1543 188.7344,500.9199 Q188.4688,500.6855 188.4688,500.2949 Q188.4688,499.9199 188.7344,499.6855 Q189,499.4512 189.6094,499.4512 L193.2813,499.4512 L196.6719,507.8105 Q197.2656,507.8105 197.4531,507.9512 Q197.8438,508.2168 197.8438,508.6699 Q197.8438,509.0449 197.5781,509.2793 Q197.3281,509.5137 196.7188,509.5137 L194.4219,509.5137 Q193.8125,509.5137 193.5469,509.2793 Q193.2813,509.0449 193.2813,508.6543 Q193.2813,508.2793 193.5469,508.0449 Q193.8125,507.8105 194.4219,507.8105 L194.8438,507.8105 L194.4375,506.7793 Z M193.7188,505.0762 L192.3594,501.7012 L190.9844,505.0762 L193.7188,505.0762 Z " fill="#000000"/><text fill="#000000" font-family="sans-serif" font-size="14" font-style="italic" lengthAdjust="spacing" textLength="39" x="212.75" y="510.8105">Model</text><line style="stroke:#181818;stroke-width:0.5;" x1="95" x2="337" y1="521.0137" y2="521.0137"/><polygon fill="none" points="105,531.8242,101,537.8242,109,537.8242" style="stroke:#1963A0;stroke-width:1.0;"/><text fill="#000000" font-family="sans-serif" font-size="14" lengthAdjust="spacing" textLength="138" x="114" y="540.1211">ImageView imageView</text><polygon fill="none" points="105,550.4453,101,556.4453,109,556.4453" style="stroke:#1963A0;stroke-width:1.0;"/><text fill="#000000" font-family="sans-serif" font-size="14" lengthAdjust="spacing" textLength="129" x="114" y="558.7422">Transform transform</text><polygon fill="none" points="105,569.0664,101,575.0664,109,575.0664" style="stroke:#1963A0;stroke-width:1.0;"/><text fill="#000000" font-family="sans-serif" font-size="14" lengthAdjust="spacing" textLength="85" x="114" y="577.3633">Image texture</text><line style="stroke:#181818;stroke-width:0.5;" x1="95" x2="337" y1="584.877" y2="584.877"/><polygon fill="#FFFF44" points="105,594.6875,109,598.6875,105,602.6875,101,598.6875" style="stroke:#B38D22;stroke-width:1.0;"/><text fill="#000000" font-family="sans-serif" font-size="14" lengthAdjust="spacing" textLength="111" x="114" y="603.9844">&#171;Create&#187; Model()</text><polygon fill="#FFFF44" points="105,613.3086,109,617.3086,105,621.3086,101,617.3086" style="stroke:#B38D22;stroke-width:1.0;"/><text fill="#000000" font-family="sans-serif" font-size="14" lengthAdjust="spacing" textLength="218" x="114" y="622.6055">&#171;Create&#187; Model(Transform,Image)</text><polygon fill="#FFFF44" points="105,631.9297,109,635.9297,105,639.9297,101,635.9297" style="stroke:#B38D22;stroke-width:1.0;"/><text fill="#000000" font-family="sans-serif" font-size="14" lengthAdjust="spacing" textLength="217" x="114" y="641.2266">&#171;Create&#187; Model(Transform,String)</text><ellipse cx="105" cy="655.5508" fill="#84BE84" rx="3" ry="3" style="stroke:#038048;stroke-width:1.0;"/><text fill="#000000" font-family="sans-serif" font-size="14" lengthAdjust="spacing" textLength="117" x="114" y="659.8477">double getHeight()</text><ellipse cx="105" cy="674.1719" fill="#84BE84" rx="3" ry="3" style="stroke:#038048;stroke-width:1.0;"/><text fill="#000000" font-family="sans-serif" font-size="14" lengthAdjust="spacing" textLength="168" x="114" y="678.4688">ImageView getImageView()</text><ellipse cx="105" cy="692.793" fill="#84BE84" rx="3" ry="3" style="stroke:#038048;stroke-width:1.0;"/><text fill="#000000" font-family="sans-serif" font-size="14" lengthAdjust="spacing" textLength="143" x="114" y="697.0898">Vector2D getPosition()</text><ellipse cx="105" cy="711.4141" fill="#84BE84" rx="3" ry="3" style="stroke:#038048;stroke-width:1.0;"/><text fill="#000000" font-family="sans-serif" font-size="14" lengthAdjust="spacing" textLength="130" x="114" y="715.7109">double getRotation()</text><ellipse cx="105" cy="730.0352" fill="#84BE84" rx="3" ry="3" style="stroke:#038048;stroke-width:1.0;"/><text fill="#000000" font-family="sans-serif" font-size="14" lengthAdjust="spacing" textLength="128" x="114" y="734.332">Vector2D getScale()</text><ellipse cx="105" cy="748.6563" fill="#84BE84" rx="3" ry="3" style="stroke:#038048;stroke-width:1.0;"/><text fill="#000000" font-family="sans-serif" font-size="14" lengthAdjust="spacing" textLength="120" x="114" y="752.9531">Image getTexture()</text><ellipse cx="105" cy="767.2773" fill="#84BE84" rx="3" ry="3" style="stroke:#038048;stroke-width:1.0;"/><text fill="#000000" font-family="sans-serif" font-size="14" lengthAdjust="spacing" textLength="164" x="114" y="771.5742">Transform getTransform()</text><ellipse cx="105" cy="785.8984" fill="#84BE84" rx="3" ry="3" style="stroke:#038048;stroke-width:1.0;"/><text fill="#000000" font-family="sans-serif" font-size="14" lengthAdjust="spacing" textLength="85" x="114" y="790.1953">double getX()</text><ellipse cx="105" cy="804.5195" fill="#84BE84" rx="3" ry="3" style="stroke:#038048;stroke-width:1.0;"/><text fill="#000000" font-family="sans-serif" font-size="14" lengthAdjust="spacing" textLength="86" x="114" y="808.8164">double getY()</text><ellipse cx="105" cy="823.1406" fill="#84BE84" rx="3" ry="3" style="stroke:#038048;stroke-width:1.0;"/><text fill="#000000" font-family="sans-serif" font-size="14" lengthAdjust="spacing" textLength="113" x="114" y="827.4375">double getWidth()</text><ellipse cx="105" cy="841.7617" fill="#84BE84" rx="3" ry="3" style="stroke:#038048;stroke-width:1.0;"/><text fill="#000000" font-family="sans-serif" font-size="14" lengthAdjust="spacing" textLength="142" x="114" y="846.0586">void setHeight(double)</text><ellipse cx="105" cy="860.3828" fill="#84BE84" rx="3" ry="3" style="stroke:#038048;stroke-width:1.0;"/><text fill="#000000" font-family="sans-serif" font-size="14" lengthAdjust="spacing" textLength="193" x="114" y="864.6797">void setImageView(ImageView)</text><ellipse cx="105" cy="879.0039" fill="#84BE84" rx="3" ry="3" style="stroke:#038048;stroke-width:1.0;"/><text fill="#000000" font-family="sans-serif" font-size="14" lengthAdjust="spacing" textLength="168" x="114" y="883.3008">void setPosition(Vector2D)</text><ellipse cx="105" cy="897.625" fill="#84BE84" rx="3" ry="3" style="stroke:#038048;stroke-width:1.0;"/><text fill="#000000" font-family="sans-serif" font-size="14" lengthAdjust="spacing" textLength="155" x="114" y="901.9219">void setRotation(double)</text><ellipse cx="105" cy="916.2461" fill="#84BE84" rx="3" ry="3" style="stroke:#038048;stroke-width:1.0;"/><text fill="#000000" font-family="sans-serif" font-size="14" lengthAdjust="spacing" textLength="153" x="114" y="920.543">void setScale(Vector2D)</text><ellipse cx="105" cy="934.8672" fill="#84BE84" rx="3" ry="3" style="stroke:#038048;stroke-width:1.0;"/><text fill="#000000" font-family="sans-serif" font-size="14" lengthAdjust="spacing" textLength="145" x="114" y="939.1641">void setTexture(Image)</text><ellipse cx="105" cy="953.4883" fill="#84BE84" rx="3" ry="3" style="stroke:#038048;stroke-width:1.0;"/><text fill="#000000" font-family="sans-serif" font-size="14" lengthAdjust="spacing" textLength="144" x="114" y="957.7852">void setTexture(String)</text><ellipse cx="105" cy="972.1094" fill="#84BE84" rx="3" ry="3" style="stroke:#038048;stroke-width:1.0;"/><text fill="#000000" font-family="sans-serif" font-size="14" lengthAdjust="spacing" textLength="189" x="114" y="976.4063">void setTransform(Transform)</text><ellipse cx="105" cy="990.7305" fill="#84BE84" rx="3" ry="3" style="stroke:#038048;stroke-width:1.0;"/><text fill="#000000" font-family="sans-serif" font-size="14" lengthAdjust="spacing" textLength="110" x="114" y="995.0273">void setX(double)</text><ellipse cx="105" cy="1009.3516" fill="#84BE84" rx="3" ry="3" style="stroke:#038048;stroke-width:1.0;"/><text fill="#000000" font-family="sans-serif" font-size="14" lengthAdjust="spacing" textLength="111" x="114" y="1013.6484">void setY(double)</text><ellipse cx="105" cy="1027.9727" fill="#84BE84" rx="3" ry="3" style="stroke:#038048;stroke-width:1.0;"/><text fill="#000000" font-family="sans-serif" font-size="14" lengthAdjust="spacing" textLength="138" x="114" y="1032.2695">void setWidth(double)</text></g><!--class Vector2D--><g id="elem_Vector2D"><rect codeLine="42" fill="#F1F1F1" height="364.5586" id="Vector2D" rx="2.5" ry="2.5" style="stroke:#181818;stroke-width:0.5;" width="248" x="1057" y="582.0137"/><ellipse cx="1147.25" cy="598.0137" fill="#ADD1B2" rx="11" ry="11" style="stroke:#181818;stroke-width:1.0;"/><path d="M1150.0156,593.8887 Q1150.1719,593.6699 1150.3594,593.5605 Q1150.5469,593.4512 1150.7656,593.4512 Q1151.1406,593.4512 1151.375,593.7168 Q1151.6094,593.9668 1151.6094,594.5762 L1151.6094,596.0293 Q1151.6094,596.6387 1151.375,596.9043 Q1151.1406,597.1699 1150.7656,597.1699 Q1150.4219,597.1699 1150.2188,596.9668 Q1150.0156,596.7793 1149.9063,596.2637 Q1149.8594,595.9043 1149.6719,595.7168 Q1149.3438,595.3418 1148.7344,595.123 Q1148.125,594.9043 1147.5,594.9043 Q1146.7344,594.9043 1146.0938,595.2324 Q1145.4688,595.5605 1144.9688,596.3105 Q1144.4844,597.0605 1144.4844,598.0918 L1144.4844,599.1855 Q1144.4844,600.4199 1145.375,601.248 Q1146.2656,602.0605 1147.8594,602.0605 Q1148.7969,602.0605 1149.4531,601.8105 Q1149.8438,601.6543 1150.2656,601.2168 Q1150.5313,600.9512 1150.6719,600.873 Q1150.8281,600.7949 1151.0313,600.7949 Q1151.3594,600.7949 1151.6094,601.0605 Q1151.875,601.3105 1151.875,601.6543 Q1151.875,601.998 1151.5313,602.4043 Q1151.0313,602.9824 1150.2344,603.3105 Q1149.1563,603.7637 1147.8594,603.7637 Q1146.3438,603.7637 1145.1406,603.1387 Q1144.1563,602.6387 1143.4688,601.5762 Q1142.7813,600.498 1142.7813,599.2168 L1142.7813,598.0605 Q1142.7813,596.7324 1143.3906,595.5918 Q1144.0156,594.4355 1145.1094,593.8262 Q1146.2031,593.2012 1147.4375,593.2012 Q1148.1719,593.2012 1148.8125,593.373 Q1149.4688,593.5293 1150.0156,593.8887 Z " fill="#000000"/><text fill="#000000" font-family="sans-serif" font-size="14" lengthAdjust="spacing" textLength="59" x="1167.75" y="603.8105">Vector2D</text><line style="stroke:#181818;stroke-width:0.5;" x1="1058" x2="1304" y1="614.0137" y2="614.0137"/><rect fill="none" height="6" style="stroke:#C82930;stroke-width:1.0;" width="6" x="1065" y="625.8242"/><text fill="#000000" font-family="sans-serif" font-size="14" lengthAdjust="spacing" textLength="53" x="1077" y="633.1211">double x</text><rect fill="none" height="6" style="stroke:#C82930;stroke-width:1.0;" width="6" x="1065" y="644.4453"/><text fill="#000000" font-family="sans-serif" font-size="14" lengthAdjust="spacing" textLength="54" x="1077" y="651.7422">double y</text><line style="stroke:#181818;stroke-width:0.5;" x1="1058" x2="1304" y1="659.2559" y2="659.2559"/><ellipse cx="1068" cy="674.0664" fill="#84BE84" rx="3" ry="3" style="stroke:#038048;stroke-width:1.0;"/><text fill="#000000" font-family="sans-serif" font-size="14" lengthAdjust="spacing" textLength="222" x="1077" y="678.3633">&#171;Create&#187; Vector2D(double,double)</text><ellipse cx="1068" cy="692.6875" fill="#84BE84" rx="3" ry="3" style="stroke:#038048;stroke-width:1.0;"/><text fill="#000000" font-family="sans-serif" font-size="14" lengthAdjust="spacing" textLength="132" x="1077" y="696.9844">&#171;Create&#187; Vector2D()</text><ellipse cx="1068" cy="711.3086" fill="#84BE84" rx="3" ry="3" style="stroke:#038048;stroke-width:1.0;"/><text fill="#000000" font-family="sans-serif" font-size="14" lengthAdjust="spacing" textLength="156" x="1077" y="715.6055">Vector2D add(Vector2D)</text><ellipse cx="1068" cy="729.9297" fill="#84BE84" rx="3" ry="3" style="stroke:#038048;stroke-width:1.0;"/><text fill="#000000" font-family="sans-serif" font-size="14" lengthAdjust="spacing" textLength="183" x="1077" y="734.2266">Vector2D subtract(Vector2D)</text><ellipse cx="1068" cy="748.5508" fill="#84BE84" rx="3" ry="3" style="stroke:#038048;stroke-width:1.0;"/><text fill="#000000" font-family="sans-serif" font-size="14" lengthAdjust="spacing" textLength="179" x="1077" y="752.8477">Vector2D multiply(Vector2D)</text><ellipse cx="1068" cy="767.1719" fill="#84BE84" rx="3" ry="3" style="stroke:#038048;stroke-width:1.0;"/><text fill="#000000" font-family="sans-serif" font-size="14" lengthAdjust="spacing" textLength="169" x="1077" y="771.4688">Vector2D divide(Vector2D)</text><ellipse cx="1068" cy="785.793" fill="#84BE84" rx="3" ry="3" style="stroke:#038048;stroke-width:1.0;"/><text fill="#000000" font-family="sans-serif" font-size="14" lengthAdjust="spacing" textLength="103" x="1077" y="790.0898">Vector2D copy()</text><ellipse cx="1068" cy="804.4141" fill="#84BE84" rx="3" ry="3" style="stroke:#038048;stroke-width:1.0;"/><text fill="#000000" font-family="sans-serif" font-size="14" lengthAdjust="spacing" textLength="85" x="1077" y="808.7109">double getX()</text><ellipse cx="1068" cy="823.0352" fill="#84BE84" rx="3" ry="3" style="stroke:#038048;stroke-width:1.0;"/><text fill="#000000" font-family="sans-serif" font-size="14" lengthAdjust="spacing" textLength="110" x="1077" y="827.332">void setX(double)</text><ellipse cx="1068" cy="841.6563" fill="#84BE84" rx="3" ry="3" style="stroke:#038048;stroke-width:1.0;"/><text fill="#000000" font-family="sans-serif" font-size="14" lengthAdjust="spacing" textLength="86" x="1077" y="845.9531">double getY()</text><ellipse cx="1068" cy="860.2773" fill="#84BE84" rx="3" ry="3" style="stroke:#038048;stroke-width:1.0;"/><text fill="#000000" font-family="sans-serif" font-size="14" lengthAdjust="spacing" textLength="111" x="1077" y="864.5742">void setY(double)</text><ellipse cx="1068" cy="878.8984" fill="#84BE84" rx="3" ry="3" style="stroke:#038048;stroke-width:1.0;"/><text fill="#000000" font-family="sans-serif" font-size="14" lengthAdjust="spacing" textLength="117" x="1077" y="883.1953">String serialize(int)</text><ellipse cx="1068" cy="897.5195" fill="#84BE84" rx="3" ry="3" style="stroke:#038048;stroke-width:1.0;"/><text fill="#000000" font-family="sans-serif" font-size="14" lengthAdjust="spacing" text-decoration="underline" textLength="140" x="1077" y="901.8164">Vector2D deserialize()</text><ellipse cx="1068" cy="916.1406" fill="#84BE84" rx="3" ry="3" style="stroke:#038048;stroke-width:1.0;"/><text fill="#000000" font-family="sans-serif" font-size="14" lengthAdjust="spacing" textLength="148" x="1077" y="920.4375">boolean equals(Object)</text><ellipse cx="1068" cy="934.7617" fill="#84BE84" rx="3" ry="3" style="stroke:#038048;stroke-width:1.0;"/><text fill="#000000" font-family="sans-serif" font-size="14" lengthAdjust="spacing" textLength="94" x="1077" y="939.0586">int hashCode()</text></g><!--class Property--><g id="elem_Property"><rect codeLine="61" fill="#F1F1F1" height="252.832" id="Property" rx="2.5" ry="2.5" style="stroke:#181818;stroke-width:0.5;" width="235" x="786.5" y="638.0137"/><ellipse cx="872.75" cy="654.0137" fill="#ADD1B2" rx="11" ry="11" style="stroke:#181818;stroke-width:1.0;"/><path d="M875.5156,649.8887 Q875.6719,649.6699 875.8594,649.5605 Q876.0469,649.4512 876.2656,649.4512 Q876.6406,649.4512 876.875,649.7168 Q877.1094,649.9668 877.1094,650.5762 L877.1094,652.0293 Q877.1094,652.6387 876.875,652.9043 Q876.6406,653.1699 876.2656,653.1699 Q875.9219,653.1699 875.7188,652.9668 Q875.5156,652.7793 875.4063,652.2637 Q875.3594,651.9043 875.1719,651.7168 Q874.8438,651.3418 874.2344,651.123 Q873.625,650.9043 873,650.9043 Q872.2344,650.9043 871.5938,651.2324 Q870.9688,651.5605 870.4688,652.3105 Q869.9844,653.0605 869.9844,654.0918 L869.9844,655.1855 Q869.9844,656.4199 870.875,657.248 Q871.7656,658.0605 873.3594,658.0605 Q874.2969,658.0605 874.9531,657.8105 Q875.3438,657.6543 875.7656,657.2168 Q876.0313,656.9512 876.1719,656.873 Q876.3281,656.7949 876.5313,656.7949 Q876.8594,656.7949 877.1094,657.0605 Q877.375,657.3105 877.375,657.6543 Q877.375,657.998 877.0313,658.4043 Q876.5313,658.9824 875.7344,659.3105 Q874.6563,659.7637 873.3594,659.7637 Q871.8438,659.7637 870.6406,659.1387 Q869.6563,658.6387 868.9688,657.5762 Q868.2813,656.498 868.2813,655.2168 L868.2813,654.0605 Q868.2813,652.7324 868.8906,651.5918 Q869.5156,650.4355 870.6094,649.8262 Q871.7031,649.2012 872.9375,649.2012 Q873.6719,649.2012 874.3125,649.373 Q874.9688,649.5293 875.5156,649.8887 Z " fill="#000000"/><text fill="#000000" font-family="sans-serif" font-size="14" lengthAdjust="spacing" textLength="54" x="893.25" y="659.8105">Property</text><line style="stroke:#181818;stroke-width:0.5;" x1="787.5" x2="1020.5" y1="670.0137" y2="670.0137"/><rect fill="none" height="6" style="stroke:#C82930;stroke-width:1.0;" width="6" x="794.5" y="681.8242"/><text fill="#000000" font-family="sans-serif" font-size="14" lengthAdjust="spacing" textLength="76" x="806.5" y="689.1211">String name</text><rect fill="none" height="6" style="stroke:#C82930;stroke-width:1.0;" width="6" x="794.5" y="700.4453"/><text fill="#000000" font-family="sans-serif" font-size="14" lengthAdjust="spacing" textLength="79" x="806.5" y="707.7422">Object value</text><line style="stroke:#181818;stroke-width:0.5;" x1="787.5" x2="1020.5" y1="715.2559" y2="715.2559"/><ellipse cx="797.5" cy="730.0664" fill="#84BE84" rx="3" ry="3" style="stroke:#038048;stroke-width:1.0;"/><text fill="#000000" font-family="sans-serif" font-size="14" lengthAdjust="spacing" textLength="127" x="806.5" y="734.3633">&#171;Create&#187; Property()</text><ellipse cx="797.5" cy="748.6875" fill="#84BE84" rx="3" ry="3" style="stroke:#038048;stroke-width:1.0;"/><text fill="#000000" font-family="sans-serif" font-size="14" lengthAdjust="spacing" textLength="209" x="806.5" y="752.9844">&#171;Create&#187; Property(String,Object)</text><ellipse cx="797.5" cy="767.3086" fill="#84BE84" rx="3" ry="3" style="stroke:#038048;stroke-width:1.0;"/><text fill="#000000" font-family="sans-serif" font-size="14" lengthAdjust="spacing" textLength="107" x="806.5" y="771.6055">String getName()</text><ellipse cx="797.5" cy="785.9297" fill="#84BE84" rx="3" ry="3" style="stroke:#038048;stroke-width:1.0;"/><text fill="#000000" font-family="sans-serif" font-size="14" lengthAdjust="spacing" textLength="132" x="806.5" y="790.2266">void setName(String)</text><ellipse cx="797.5" cy="804.5508" fill="#84BE84" rx="3" ry="3" style="stroke:#038048;stroke-width:1.0;"/><text fill="#000000" font-family="sans-serif" font-size="14" lengthAdjust="spacing" textLength="111" x="806.5" y="808.8477">Object getValue()</text><ellipse cx="797.5" cy="823.1719" fill="#84BE84" rx="3" ry="3" style="stroke:#038048;stroke-width:1.0;"/><text fill="#000000" font-family="sans-serif" font-size="14" lengthAdjust="spacing" textLength="136" x="806.5" y="827.4688">void setValue(Object)</text><ellipse cx="797.5" cy="841.793" fill="#84BE84" rx="3" ry="3" style="stroke:#038048;stroke-width:1.0;"/><text fill="#000000" font-family="sans-serif" font-size="14" lengthAdjust="spacing" textLength="117" x="806.5" y="846.0898">String serialize(int)</text><ellipse cx="797.5" cy="860.4141" fill="#84BE84" rx="3" ry="3" style="stroke:#038048;stroke-width:1.0;"/><text fill="#000000" font-family="sans-serif" font-size="14" lengthAdjust="spacing" text-decoration="underline" textLength="135" x="806.5" y="864.7109">Property deserialize()</text><ellipse cx="797.5" cy="879.0352" fill="#84BE84" rx="3" ry="3" style="stroke:#038048;stroke-width:1.0;"/><text fill="#000000" font-family="sans-serif" font-size="14" lengthAdjust="spacing" textLength="100" x="806.5" y="883.332">String toString()</text></g><!--class Transform--><g id="elem_Transform"><rect codeLine="74" fill="#F1F1F1" height="345.9375" id="Transform" rx="2.5" ry="2.5" style="stroke:#181818;stroke-width:0.5;" width="333" x="418.5" y="591.5137"/><ellipse cx="548.25" cy="607.5137" fill="#ADD1B2" rx="11" ry="11" style="stroke:#181818;stroke-width:1.0;"/><path d="M551.0156,603.3887 Q551.1719,603.1699 551.3594,603.0605 Q551.5469,602.9512 551.7656,602.9512 Q552.1406,602.9512 552.375,603.2168 Q552.6094,603.4668 552.6094,604.0762 L552.6094,605.5293 Q552.6094,606.1387 552.375,606.4043 Q552.1406,606.6699 551.7656,606.6699 Q551.4219,606.6699 551.2188,606.4668 Q551.0156,606.2793 550.9063,605.7637 Q550.8594,605.4043 550.6719,605.2168 Q550.3438,604.8418 549.7344,604.623 Q549.125,604.4043 548.5,604.4043 Q547.7344,604.4043 547.0938,604.7324 Q546.4688,605.0605 545.9688,605.8105 Q545.4844,606.5605 545.4844,607.5918 L545.4844,608.6855 Q545.4844,609.9199 546.375,610.748 Q547.2656,611.5605 548.8594,611.5605 Q549.7969,611.5605 550.4531,611.3105 Q550.8438,611.1543 551.2656,610.7168 Q551.5313,610.4512 551.6719,610.373 Q551.8281,610.2949 552.0313,610.2949 Q552.3594,610.2949 552.6094,610.5605 Q552.875,610.8105 552.875,611.1543 Q552.875,611.498 552.5313,611.9043 Q552.0313,612.4824 551.2344,612.8105 Q550.1563,613.2637 548.8594,613.2637 Q547.3438,613.2637 546.1406,612.6387 Q545.1563,612.1387 544.4688,611.0762 Q543.7813,609.998 543.7813,608.7168 L543.7813,607.5605 Q543.7813,606.2324 544.3906,605.0918 Q545.0156,603.9355 546.1094,603.3262 Q547.2031,602.7012 548.4375,602.7012 Q549.1719,602.7012 549.8125,602.873 Q550.4688,603.0293 551.0156,603.3887 Z " fill="#000000"/><text fill="#000000" font-family="sans-serif" font-size="14" lengthAdjust="spacing" textLength="65" x="568.75" y="613.3105">Transform</text><line style="stroke:#181818;stroke-width:0.5;" x1="419.5" x2="750.5" y1="623.5137" y2="623.5137"/><rect fill="none" height="6" style="stroke:#C82930;stroke-width:1.0;" width="6" x="426.5" y="635.3242"/><text fill="#000000" font-family="sans-serif" font-size="14" lengthAdjust="spacing" textLength="112" x="438.5" y="642.6211">Vector2D position</text><rect fill="none" height="6" style="stroke:#C82930;stroke-width:1.0;" width="6" x="426.5" y="653.9453"/><text fill="#000000" font-family="sans-serif" font-size="14" lengthAdjust="spacing" textLength="95" x="438.5" y="661.2422">double rotation</text><rect fill="none" height="6" style="stroke:#C82930;stroke-width:1.0;" width="6" x="426.5" y="672.5664"/><text fill="#000000" font-family="sans-serif" font-size="14" lengthAdjust="spacing" textLength="96" x="438.5" y="679.8633">Vector2D scale</text><line style="stroke:#181818;stroke-width:0.5;" x1="419.5" x2="750.5" y1="687.377" y2="687.377"/><ellipse cx="429.5" cy="702.1875" fill="#84BE84" rx="3" ry="3" style="stroke:#038048;stroke-width:1.0;"/><text fill="#000000" font-family="sans-serif" font-size="14" lengthAdjust="spacing" textLength="197" x="438.5" y="706.4844">&#171;Create&#187; Transform(Vector2D)</text><ellipse cx="429.5" cy="720.8086" fill="#84BE84" rx="3" ry="3" style="stroke:#038048;stroke-width:1.0;"/><text fill="#000000" font-family="sans-serif" font-size="14" lengthAdjust="spacing" textLength="138" x="438.5" y="725.1055">&#171;Create&#187; Transform()</text><ellipse cx="429.5" cy="739.4297" fill="#84BE84" rx="3" ry="3" style="stroke:#038048;stroke-width:1.0;"/><text fill="#000000" font-family="sans-serif" font-size="14" lengthAdjust="spacing" textLength="307" x="438.5" y="743.7266">&#171;Create&#187; Transform(Vector2D,double,Vector2D)</text><ellipse cx="429.5" cy="758.0508" fill="#84BE84" rx="3" ry="3" style="stroke:#038048;stroke-width:1.0;"/><text fill="#000000" font-family="sans-serif" font-size="14" lengthAdjust="spacing" textLength="109" x="438.5" y="762.3477">Transform copy()</text><ellipse cx="429.5" cy="776.6719" fill="#84BE84" rx="3" ry="3" style="stroke:#038048;stroke-width:1.0;"/><text fill="#000000" font-family="sans-serif" font-size="14" lengthAdjust="spacing" textLength="100" x="438.5" y="780.9688">String toString()</text><ellipse cx="429.5" cy="795.293" fill="#84BE84" rx="3" ry="3" style="stroke:#038048;stroke-width:1.0;"/><text fill="#000000" font-family="sans-serif" font-size="14" lengthAdjust="spacing" textLength="143" x="438.5" y="799.5898">Vector2D getPosition()</text><ellipse cx="429.5" cy="813.9141" fill="#84BE84" rx="3" ry="3" style="stroke:#038048;stroke-width:1.0;"/><text fill="#000000" font-family="sans-serif" font-size="14" lengthAdjust="spacing" textLength="168" x="438.5" y="818.2109">void setPosition(Vector2D)</text><ellipse cx="429.5" cy="832.5352" fill="#84BE84" rx="3" ry="3" style="stroke:#038048;stroke-width:1.0;"/><text fill="#000000" font-family="sans-serif" font-size="14" lengthAdjust="spacing" textLength="130" x="438.5" y="836.832">double getRotation()</text><ellipse cx="429.5" cy="851.1563" fill="#84BE84" rx="3" ry="3" style="stroke:#038048;stroke-width:1.0;"/><text fill="#000000" font-family="sans-serif" font-size="14" lengthAdjust="spacing" textLength="155" x="438.5" y="855.4531">void setRotation(double)</text><ellipse cx="429.5" cy="869.7773" fill="#84BE84" rx="3" ry="3" style="stroke:#038048;stroke-width:1.0;"/><text fill="#000000" font-family="sans-serif" font-size="14" lengthAdjust="spacing" textLength="128" x="438.5" y="874.0742">Vector2D getScale()</text><ellipse cx="429.5" cy="888.3984" fill="#84BE84" rx="3" ry="3" style="stroke:#038048;stroke-width:1.0;"/><text fill="#000000" font-family="sans-serif" font-size="14" lengthAdjust="spacing" textLength="153" x="438.5" y="892.6953">void setScale(Vector2D)</text><ellipse cx="429.5" cy="907.0195" fill="#84BE84" rx="3" ry="3" style="stroke:#038048;stroke-width:1.0;"/><text fill="#000000" font-family="sans-serif" font-size="14" lengthAdjust="spacing" textLength="117" x="438.5" y="911.3164">String serialize(int)</text><ellipse cx="429.5" cy="925.6406" fill="#84BE84" rx="3" ry="3" style="stroke:#038048;stroke-width:1.0;"/><text fill="#000000" font-family="sans-serif" font-size="14" lengthAdjust="spacing" text-decoration="underline" textLength="146" x="438.5" y="929.9375">Transform deserialize()</text></g><!--reverse link Serialization to Transform--><g id="link_Serialization_Transform"><path codeLine="93" d="M701.88,386.7737 C682.43,449.4637 659.12,524.6237 638.44,591.2537 " fill="none" id="Serialization-backto-Transform" style="stroke:#181818;stroke-width:1.0;stroke-dasharray:7.0,7.0;"/><polygon fill="none" points="695.31,384.3337,707.92,367.3037,708.68,388.4837,695.31,384.3337" style="stroke:#181818;stroke-width:1.0;"/></g><!--reverse link Serialization to Model--><g id="link_Serialization_Model"><path codeLine="94" d="M511.68,325.4137 C472.08,345.0837 433.6,369.3537 402,399.0137 C374.29,425.0237 350.03,456.0837 329,488.9437 " fill="none" id="Serialization-backto-Model" style="stroke:#181818;stroke-width:1.0;stroke-dasharray:7.0,7.0;"/><polygon fill="none" points="508.87,318.9937,529.93,316.6937,514.9,331.6337,508.87,318.9937" style="stroke:#181818;stroke-width:1.0;"/></g><!--reverse link Serialization to Property--><g id="link_Serialization_Property"><path codeLine="95" d="M786.35,386.6637 C810.66,464.5437 840.99,561.6737 864.76,637.8237 " fill="none" id="Serialization-backto-Property" style="stroke:#181818;stroke-width:1.0;stroke-dasharray:7.0,7.0;"/><polygon fill="none" points="779.58,388.4837,780.31,367.3037,792.95,384.3137,779.58,388.4837" style="stroke:#181818;stroke-width:1.0;"/></g><!--reverse link Serialization to Vector2D--><g id="link_Serialization_Vector2D"><path codeLine="96" d="M974.94,344.9737 C998.44,360.6837 1020.44,378.6337 1039,399.0137 C1085.53,450.1037 1117.5,518.1637 1139.14,581.6337 " fill="none" id="Serialization-backto-Vector2D" style="stroke:#181818;stroke-width:1.0;stroke-dasharray:7.0,7.0;"/><polygon fill="none" points="971.13,350.8437,958.03,334.1937,978.65,339.0437,971.13,350.8437" style="stroke:#181818;stroke-width:1.0;"/></g><!--SRC=[dLPDSzCm4BtxLsY6YpCDFd3Ez40BGmz0XsH2UvJjZID6je8iXveGVZkIzUKFnHbwIQIt-rRQjwjDI2M0xt06A6DbKhHbobco8nIIDN22AVcD1M4LEaL_qLfmKXK8vxbUFN9s02xQM6-NvejKOfaoHW5NzdinO3zKOanLdAkyZvJX2NEdmElSUzQa5CRal4ElizzhS4otd7b-2WMflgO_80kbtNE4AX-v3Uto8XkSrbFqGvNBLNpv2hMf9MZkEP9X1CUPG1d5TTslVKP4cvGi1vfyLfzTvHzANC2Mm2z4x4gY6uwhUiTuYOHTMLyau4Kq7A8tQBMwuu05tDwYBc2y284krhBZN_7HQIsY6wGhY0eGdu0KUn4hq5zNucxJcRPINiRVtIlB8wk9Qkvu6EWR4zZ1VVzrXYdu0nIqqMbse9T36Unc5Fnfj7yUxR-JNEmxxCX8BWjdyz8kVODFpAtwPfUTJQ5lT3bEm-eiGoIRhAdGrE3BuYnE1hVgcvy2vpy7CAsAnS_Hf6iRGMYTk6ATehTMqnU_R6N4NbDPRnDtwOyDEGsQGRwvWKBEK3Tfzwx2rhAXWXne6xRcv4Xo2DioTcY3dHHISjnT8MN3W-46dMhL6DcvTotmJih3J1S4FnjCwrXFB6MG4T0Ur_ix-LZZcIhPwTPLoToZmYN8dGw6ZfWsCAo36ucB2xYPgFuw9h9KuOiCFX2Y0topcbEbvrOTF73Lo2JgPTrSTcFT35CmlPXJo4yI9P6hnC6yQD_Ht3pZlbUjtkzG9FyA-yqLT5XSOzhVp7uaVr_NfzDiPsRlxCYwC9Xd9bbuPb-URrThwlCR5lKSHVF_cbP_acIclF_97lyql-fmsv-l8blL_W40]--></g></svg>