<?xml version="1.0" encoding="us-ascii" standalone="no"?><svg xmlns="http://www.w3.org/2000/svg" xmlns:xlink="http://www.w3.org/1999/xlink" contentStyleType="text/css" height="1006px" preserveAspectRatio="none" style="width:1388px;height:1006px;background:#FFFFFF;" version="1.1" viewBox="0 0 1388 1006" width="1388px" zoomAndPan="magnify"><defs/><g><!--cluster com--><g id="cluster_com"><path d="M8.5,6.0137 L38.5,6.0137 A3.75,3.75 0 0 1 41,8.5137 L48,30.6348 L1378.5,30.6348 A2.5,2.5 0 0 1 1381,33.1348 L1381,996.5137 A2.5,2.5 0 0 1 1378.5,999.0137 L8.5,999.0137 A2.5,2.5 0 0 1 6,996.5137 L6,8.5137 A2.5,2.5 0 0 1 8.5,6.0137 " fill="none" style="stroke:#000000;stroke-width:1.5;"/><line style="stroke:#000000;stroke-width:1.5;" x1="6" x2="48" y1="30.6348" y2="30.6348"/><text fill="#000000" font-family="sans-serif" font-size="14" font-weight="bold" lengthAdjust="spacing" textLength="29" x="10" y="23.1211">com</text></g><!--cluster gymbro--><g id="cluster_gymbro"><path d="M32.5,51.0137 L85.5,51.0137 A3.75,3.75 0 0 1 88,53.5137 L95,75.6348 L1354.5,75.6348 A2.5,2.5 0 0 1 1357,78.1348 L1357,972.5137 A2.5,2.5 0 0 1 1354.5,975.0137 L32.5,975.0137 A2.5,2.5 0 0 1 30,972.5137 L30,53.5137 A2.5,2.5 0 0 1 32.5,51.0137 " fill="none" style="stroke:#000000;stroke-width:1.5;"/><line style="stroke:#000000;stroke-width:1.5;" x1="30" x2="95" y1="75.6348" y2="75.6348"/><text fill="#000000" font-family="sans-serif" font-size="14" font-weight="bold" lengthAdjust="spacing" textLength="52" x="34" y="68.1211">gymbro</text></g><!--cluster city--><g id="cluster_city"><path d="M56.5,96.0137 L81.5,96.0137 A3.75,3.75 0 0 1 84,98.5137 L91,120.6348 L1330.5,120.6348 A2.5,2.5 0 0 1 1333,123.1348 L1333,948.5137 A2.5,2.5 0 0 1 1330.5,951.0137 L56.5,951.0137 A2.5,2.5 0 0 1 54,948.5137 L54,98.5137 A2.5,2.5 0 0 1 56.5,96.0137 " fill="none" style="stroke:#000000;stroke-width:1.5;"/><line style="stroke:#000000;stroke-width:1.5;" x1="54" x2="91" y1="120.6348" y2="120.6348"/><text fill="#000000" font-family="sans-serif" font-size="14" font-weight="bold" lengthAdjust="spacing" textLength="24" x="58" y="113.1211">city</text></g><!--cluster view--><g id="cluster_view"><path d="M80.5,141.0137 L114.5,141.0137 A3.75,3.75 0 0 1 117,143.5137 L124,165.6348 L1306.5,165.6348 A2.5,2.5 0 0 1 1309,168.1348 L1309,924.5137 A2.5,2.5 0 0 1 1306.5,927.0137 L80.5,927.0137 A2.5,2.5 0 0 1 78,924.5137 L78,143.5137 A2.5,2.5 0 0 1 80.5,141.0137 " fill="none" style="stroke:#000000;stroke-width:1.5;"/><line style="stroke:#000000;stroke-width:1.5;" x1="78" x2="124" y1="165.6348" y2="165.6348"/><text fill="#000000" font-family="sans-serif" font-size="14" font-weight="bold" lengthAdjust="spacing" textLength="33" x="82" y="158.1211">view</text></g><!--class FavoritesView--><g id="elem_FavoritesView"><rect codeLine="1" fill="#F1F1F1" height="85.2422" id="FavoritesView" rx="2.5" ry="2.5" style="stroke:#181818;stroke-width:0.5;" width="284" x="94" y="798.0137"/><ellipse cx="187.75" cy="814.0137" fill="#ADD1B2" rx="11" ry="11" style="stroke:#181818;stroke-width:1.0;"/><path d="M190.5156,809.8887 Q190.6719,809.6699 190.8594,809.5605 Q191.0469,809.4512 191.2656,809.4512 Q191.6406,809.4512 191.875,809.7168 Q192.1094,809.9668 192.1094,810.5762 L192.1094,812.0293 Q192.1094,812.6387 191.875,812.9043 Q191.6406,813.1699 191.2656,813.1699 Q190.9219,813.1699 190.7188,812.9668 Q190.5156,812.7793 190.4063,812.2637 Q190.3594,811.9043 190.1719,811.7168 Q189.8438,811.3418 189.2344,811.123 Q188.625,810.9043 188,810.9043 Q187.2344,810.9043 186.5938,811.2324 Q185.9688,811.5605 185.4688,812.3105 Q184.9844,813.0605 184.9844,814.0918 L184.9844,815.1855 Q184.9844,816.4199 185.875,817.248 Q186.7656,818.0605 188.3594,818.0605 Q189.2969,818.0605 189.9531,817.8105 Q190.3438,817.6543 190.7656,817.2168 Q191.0313,816.9512 191.1719,816.873 Q191.3281,816.7949 191.5313,816.7949 Q191.8594,816.7949 192.1094,817.0605 Q192.375,817.3105 192.375,817.6543 Q192.375,817.998 192.0313,818.4043 Q191.5313,818.9824 190.7344,819.3105 Q189.6563,819.7637 188.3594,819.7637 Q186.8438,819.7637 185.6406,819.1387 Q184.6563,818.6387 183.9688,817.5762 Q183.2813,816.498 183.2813,815.2168 L183.2813,814.0605 Q183.2813,812.7324 183.8906,811.5918 Q184.5156,810.4355 185.6094,809.8262 Q186.7031,809.2012 187.9375,809.2012 Q188.6719,809.2012 189.3125,809.373 Q189.9688,809.5293 190.5156,809.8887 Z " fill="#000000"/><text fill="#000000" font-family="sans-serif" font-size="14" lengthAdjust="spacing" textLength="88" x="208.25" y="819.8105">FavoritesView</text><line style="stroke:#181818;stroke-width:0.5;" x1="95" x2="377" y1="830.0137" y2="830.0137"/><line style="stroke:#181818;stroke-width:0.5;" x1="95" x2="377" y1="838.0137" y2="838.0137"/><ellipse cx="105" cy="852.8242" fill="#84BE84" rx="3" ry="3" style="stroke:#038048;stroke-width:1.0;"/><text fill="#000000" font-family="sans-serif" font-size="14" lengthAdjust="spacing" textLength="161" x="114" y="857.1211">&#171;Create&#187; FavoritesView()</text><ellipse cx="105" cy="871.4453" fill="#84BE84" rx="3" ry="3" style="stroke:#038048;stroke-width:1.0;"/><text fill="#000000" font-family="sans-serif" font-size="14" lengthAdjust="spacing" textLength="258" x="114" y="875.7422">&#171;Create&#187; FavoritesView(FavoritesModel)</text></g><!--class MapView--><g id="elem_MapView"><rect codeLine="5" fill="#F1F1F1" height="85.2422" id="MapView" rx="2.5" ry="2.5" style="stroke:#181818;stroke-width:0.5;" width="220" x="413" y="798.0137"/><ellipse cx="490.75" cy="814.0137" fill="#ADD1B2" rx="11" ry="11" style="stroke:#181818;stroke-width:1.0;"/><path d="M493.5156,809.8887 Q493.6719,809.6699 493.8594,809.5605 Q494.0469,809.4512 494.2656,809.4512 Q494.6406,809.4512 494.875,809.7168 Q495.1094,809.9668 495.1094,810.5762 L495.1094,812.0293 Q495.1094,812.6387 494.875,812.9043 Q494.6406,813.1699 494.2656,813.1699 Q493.9219,813.1699 493.7188,812.9668 Q493.5156,812.7793 493.4063,812.2637 Q493.3594,811.9043 493.1719,811.7168 Q492.8438,811.3418 492.2344,811.123 Q491.625,810.9043 491,810.9043 Q490.2344,810.9043 489.5938,811.2324 Q488.9688,811.5605 488.4688,812.3105 Q487.9844,813.0605 487.9844,814.0918 L487.9844,815.1855 Q487.9844,816.4199 488.875,817.248 Q489.7656,818.0605 491.3594,818.0605 Q492.2969,818.0605 492.9531,817.8105 Q493.3438,817.6543 493.7656,817.2168 Q494.0313,816.9512 494.1719,816.873 Q494.3281,816.7949 494.5313,816.7949 Q494.8594,816.7949 495.1094,817.0605 Q495.375,817.3105 495.375,817.6543 Q495.375,817.998 495.0313,818.4043 Q494.5313,818.9824 493.7344,819.3105 Q492.6563,819.7637 491.3594,819.7637 Q489.8438,819.7637 488.6406,819.1387 Q487.6563,818.6387 486.9688,817.5762 Q486.2813,816.498 486.2813,815.2168 L486.2813,814.0605 Q486.2813,812.7324 486.8906,811.5918 Q487.5156,810.4355 488.6094,809.8262 Q489.7031,809.2012 490.9375,809.2012 Q491.6719,809.2012 492.3125,809.373 Q492.9688,809.5293 493.5156,809.8887 Z " fill="#000000"/><text fill="#000000" font-family="sans-serif" font-size="14" lengthAdjust="spacing" textLength="56" x="511.25" y="819.8105">MapView</text><line style="stroke:#181818;stroke-width:0.5;" x1="414" x2="632" y1="830.0137" y2="830.0137"/><line style="stroke:#181818;stroke-width:0.5;" x1="414" x2="632" y1="838.0137" y2="838.0137"/><ellipse cx="424" cy="852.8242" fill="#84BE84" rx="3" ry="3" style="stroke:#038048;stroke-width:1.0;"/><text fill="#000000" font-family="sans-serif" font-size="14" lengthAdjust="spacing" textLength="129" x="433" y="857.1211">&#171;Create&#187; MapView()</text><ellipse cx="424" cy="871.4453" fill="#84BE84" rx="3" ry="3" style="stroke:#038048;stroke-width:1.0;"/><text fill="#000000" font-family="sans-serif" font-size="14" lengthAdjust="spacing" textLength="194" x="433" y="875.7422">&#171;Create&#187; MapView(MapModel)</text></g><!--class PropertiesMenuView--><g id="elem_PropertiesMenuView"><rect codeLine="9" fill="#F1F1F1" height="141.1055" id="PropertiesMenuView" rx="2.5" ry="2.5" style="stroke:#181818;stroke-width:0.5;" width="366" x="668" y="770.0137"/><ellipse cx="782.25" cy="786.0137" fill="#ADD1B2" rx="11" ry="11" style="stroke:#181818;stroke-width:1.0;"/><path d="M785.0156,781.8887 Q785.1719,781.6699 785.3594,781.5605 Q785.5469,781.4512 785.7656,781.4512 Q786.1406,781.4512 786.375,781.7168 Q786.6094,781.9668 786.6094,782.5762 L786.6094,784.0293 Q786.6094,784.6387 786.375,784.9043 Q786.1406,785.1699 785.7656,785.1699 Q785.4219,785.1699 785.2188,784.9668 Q785.0156,784.7793 784.9063,784.2637 Q784.8594,783.9043 784.6719,783.7168 Q784.3438,783.3418 783.7344,783.123 Q783.125,782.9043 782.5,782.9043 Q781.7344,782.9043 781.0938,783.2324 Q780.4688,783.5605 779.9688,784.3105 Q779.4844,785.0605 779.4844,786.0918 L779.4844,787.1855 Q779.4844,788.4199 780.375,789.248 Q781.2656,790.0605 782.8594,790.0605 Q783.7969,790.0605 784.4531,789.8105 Q784.8438,789.6543 785.2656,789.2168 Q785.5313,788.9512 785.6719,788.873 Q785.8281,788.7949 786.0313,788.7949 Q786.3594,788.7949 786.6094,789.0605 Q786.875,789.3105 786.875,789.6543 Q786.875,789.998 786.5313,790.4043 Q786.0313,790.9824 785.2344,791.3105 Q784.1563,791.7637 782.8594,791.7637 Q781.3438,791.7637 780.1406,791.1387 Q779.1563,790.6387 778.4688,789.5762 Q777.7813,788.498 777.7813,787.2168 L777.7813,786.0605 Q777.7813,784.7324 778.3906,783.5918 Q779.0156,782.4355 780.1094,781.8262 Q781.2031,781.2012 782.4375,781.2012 Q783.1719,781.2012 783.8125,781.373 Q784.4688,781.5293 785.0156,781.8887 Z " fill="#000000"/><text fill="#000000" font-family="sans-serif" font-size="14" lengthAdjust="spacing" textLength="129" x="802.75" y="791.8105">PropertiesMenuView</text><line style="stroke:#181818;stroke-width:0.5;" x1="669" x2="1033" y1="802.0137" y2="802.0137"/><line style="stroke:#181818;stroke-width:0.5;" x1="669" x2="1033" y1="810.0137" y2="810.0137"/><ellipse cx="679" cy="824.8242" fill="#84BE84" rx="3" ry="3" style="stroke:#038048;stroke-width:1.0;"/><text fill="#000000" font-family="sans-serif" font-size="14" lengthAdjust="spacing" textLength="202" x="688" y="829.1211">&#171;Create&#187; PropertiesMenuView()</text><ellipse cx="679" cy="843.4453" fill="#84BE84" rx="3" ry="3" style="stroke:#038048;stroke-width:1.0;"/><text fill="#000000" font-family="sans-serif" font-size="14" lengthAdjust="spacing" textLength="340" x="688" y="847.7422">&#171;Create&#187; PropertiesMenuView(PropertiesMenuModel)</text><ellipse cx="679" cy="862.0664" fill="#84BE84" rx="3" ry="3" style="stroke:#038048;stroke-width:1.0;"/><text fill="#000000" font-family="sans-serif" font-size="14" lengthAdjust="spacing" textLength="70" x="688" y="866.3633">void draw()</text><ellipse cx="679" cy="880.6875" fill="#84BE84" rx="3" ry="3" style="stroke:#038048;stroke-width:1.0;"/><text fill="#000000" font-family="sans-serif" font-size="14" lengthAdjust="spacing" textLength="149" x="688" y="884.9844">void removeFromView()</text><rect fill="#F24D5C" height="6" style="stroke:#C82930;stroke-width:1.0;" width="6" x="676" y="896.3086"/><text fill="#000000" font-family="sans-serif" font-size="14" lengthAdjust="spacing" textLength="218" x="688" y="903.6055">void addRemoveOnEscapeEvent()</text></g><!--class GymView--><g id="elem_GymView"><rect codeLine="16" fill="#F1F1F1" height="141.1055" id="GymView" rx="2.5" ry="2.5" style="stroke:#181818;stroke-width:0.5;" width="224" x="1069" y="770.0137"/><ellipse cx="1147.75" cy="786.0137" fill="#ADD1B2" rx="11" ry="11" style="stroke:#181818;stroke-width:1.0;"/><path d="M1150.5156,781.8887 Q1150.6719,781.6699 1150.8594,781.5605 Q1151.0469,781.4512 1151.2656,781.4512 Q1151.6406,781.4512 1151.875,781.7168 Q1152.1094,781.9668 1152.1094,782.5762 L1152.1094,784.0293 Q1152.1094,784.6387 1151.875,784.9043 Q1151.6406,785.1699 1151.2656,785.1699 Q1150.9219,785.1699 1150.7188,784.9668 Q1150.5156,784.7793 1150.4063,784.2637 Q1150.3594,783.9043 1150.1719,783.7168 Q1149.8438,783.3418 1149.2344,783.123 Q1148.625,782.9043 1148,782.9043 Q1147.2344,782.9043 1146.5938,783.2324 Q1145.9688,783.5605 1145.4688,784.3105 Q1144.9844,785.0605 1144.9844,786.0918 L1144.9844,787.1855 Q1144.9844,788.4199 1145.875,789.248 Q1146.7656,790.0605 1148.3594,790.0605 Q1149.2969,790.0605 1149.9531,789.8105 Q1150.3438,789.6543 1150.7656,789.2168 Q1151.0313,788.9512 1151.1719,788.873 Q1151.3281,788.7949 1151.5313,788.7949 Q1151.8594,788.7949 1152.1094,789.0605 Q1152.375,789.3105 1152.375,789.6543 Q1152.375,789.998 1152.0313,790.4043 Q1151.5313,790.9824 1150.7344,791.3105 Q1149.6563,791.7637 1148.3594,791.7637 Q1146.8438,791.7637 1145.6406,791.1387 Q1144.6563,790.6387 1143.9688,789.5762 Q1143.2813,788.498 1143.2813,787.2168 L1143.2813,786.0605 Q1143.2813,784.7324 1143.8906,783.5918 Q1144.5156,782.4355 1145.6094,781.8262 Q1146.7031,781.2012 1147.9375,781.2012 Q1148.6719,781.2012 1149.3125,781.373 Q1149.9688,781.5293 1150.5156,781.8887 Z " fill="#000000"/><text fill="#000000" font-family="sans-serif" font-size="14" lengthAdjust="spacing" textLength="58" x="1168.25" y="791.8105">GymView</text><line style="stroke:#181818;stroke-width:0.5;" x1="1070" x2="1292" y1="802.0137" y2="802.0137"/><line style="stroke:#181818;stroke-width:0.5;" x1="1070" x2="1292" y1="810.0137" y2="810.0137"/><ellipse cx="1080" cy="824.8242" fill="#84BE84" rx="3" ry="3" style="stroke:#038048;stroke-width:1.0;"/><text fill="#000000" font-family="sans-serif" font-size="14" lengthAdjust="spacing" textLength="131" x="1089" y="829.1211">&#171;Create&#187; GymView()</text><ellipse cx="1080" cy="843.4453" fill="#84BE84" rx="3" ry="3" style="stroke:#038048;stroke-width:1.0;"/><text fill="#000000" font-family="sans-serif" font-size="14" lengthAdjust="spacing" textLength="198" x="1089" y="847.7422">&#171;Create&#187; GymView(GymModel)</text><ellipse cx="1080" cy="862.0664" fill="#84BE84" rx="3" ry="3" style="stroke:#038048;stroke-width:1.0;"/><text fill="#000000" font-family="sans-serif" font-size="14" lengthAdjust="spacing" textLength="84" x="1089" y="866.3633">void zoomIn()</text><ellipse cx="1080" cy="880.6875" fill="#84BE84" rx="3" ry="3" style="stroke:#038048;stroke-width:1.0;"/><text fill="#000000" font-family="sans-serif" font-size="14" lengthAdjust="spacing" textLength="96" x="1089" y="884.9844">void zoomOut()</text><ellipse cx="1080" cy="899.3086" fill="#84BE84" rx="3" ry="3" style="stroke:#038048;stroke-width:1.0;"/><text fill="#000000" font-family="sans-serif" font-size="14" lengthAdjust="spacing" textLength="137" x="1089" y="903.6055">void showProperties()</text></g><!--class View--><g id="elem_View"><rect codeLine="23" fill="#F1F1F1" height="532.1484" id="View" rx="2.5" ry="2.5" style="stroke:#181818;stroke-width:0.5;" width="219" x="577.5" y="178.0137"/><ellipse cx="668.25" cy="194.0137" fill="#A9DCDF" rx="11" ry="11" style="stroke:#181818;stroke-width:1.0;"/><path d="M670.4375,195.7793 L666.2969,195.7793 L665.875,196.8105 L666.2969,196.8105 Q666.9063,196.8105 667.1719,197.0449 Q667.4375,197.2793 667.4375,197.6699 Q667.4375,198.0449 667.1719,198.2793 Q666.9063,198.5137 666.2969,198.5137 L664,198.5137 Q663.3906,198.5137 663.1406,198.2793 Q662.875,198.0449 662.875,197.6543 Q662.875,197.2793 663.1563,197.0449 Q663.4219,196.7949 664.0469,196.8105 L666.7188,190.1543 L665.6094,190.1543 Q665,190.1543 664.7344,189.9199 Q664.4688,189.6855 664.4688,189.2949 Q664.4688,188.9199 664.7344,188.6855 Q665,188.4512 665.6094,188.4512 L669.2813,188.4512 L672.6719,196.8105 Q673.2656,196.8105 673.4531,196.9512 Q673.8438,197.2168 673.8438,197.6699 Q673.8438,198.0449 673.5781,198.2793 Q673.3281,198.5137 672.7188,198.5137 L670.4219,198.5137 Q669.8125,198.5137 669.5469,198.2793 Q669.2813,198.0449 669.2813,197.6543 Q669.2813,197.2793 669.5469,197.0449 Q669.8125,196.8105 670.4219,196.8105 L670.8438,196.8105 L670.4375,195.7793 Z M669.7188,194.0762 L668.3594,190.7012 L666.9844,194.0762 L669.7188,194.0762 Z " fill="#000000"/><text fill="#000000" font-family="sans-serif" font-size="14" font-style="italic" lengthAdjust="spacing" textLength="29" x="688.75" y="199.8105">View</text><line style="stroke:#181818;stroke-width:0.5;" x1="578.5" x2="795.5" y1="210.0137" y2="210.0137"/><polygon fill="none" points="588.5,220.8242,584.5,226.8242,592.5,226.8242" style="stroke:#1963A0;stroke-width:1.0;"/><text fill="#000000" font-family="sans-serif" font-size="14" lengthAdjust="spacing" textLength="80" x="597.5" y="229.1211">Model model</text><line style="stroke:#181818;stroke-width:0.5;" x1="578.5" x2="795.5" y1="236.6348" y2="236.6348"/><ellipse cx="588.5" cy="251.4453" fill="#84BE84" rx="3" ry="3" style="stroke:#038048;stroke-width:1.0;"/><text fill="#000000" font-family="sans-serif" font-size="14" lengthAdjust="spacing" textLength="140" x="597.5" y="255.7422">&#171;Create&#187; View(Model)</text><ellipse cx="588.5" cy="270.0664" fill="#84BE84" rx="3" ry="3" style="stroke:#038048;stroke-width:1.0;"/><text fill="#000000" font-family="sans-serif" font-size="14" lengthAdjust="spacing" textLength="70" x="597.5" y="274.3633">void draw()</text><ellipse cx="588.5" cy="288.6875" fill="#84BE84" rx="3" ry="3" style="stroke:#038048;stroke-width:1.0;"/><text fill="#000000" font-family="sans-serif" font-size="14" lengthAdjust="spacing" textLength="117" x="597.5" y="292.9844">double getHeight()</text><ellipse cx="588.5" cy="307.3086" fill="#84BE84" rx="3" ry="3" style="stroke:#038048;stroke-width:1.0;"/><text fill="#000000" font-family="sans-serif" font-size="14" lengthAdjust="spacing" textLength="110" x="597.5" y="311.6055">Model getModel()</text><ellipse cx="588.5" cy="325.9297" fill="#84BE84" rx="3" ry="3" style="stroke:#038048;stroke-width:1.0;"/><text fill="#000000" font-family="sans-serif" font-size="14" lengthAdjust="spacing" textLength="143" x="597.5" y="330.2266">Vector2D getPosition()</text><ellipse cx="588.5" cy="344.5508" fill="#84BE84" rx="3" ry="3" style="stroke:#038048;stroke-width:1.0;"/><text fill="#000000" font-family="sans-serif" font-size="14" lengthAdjust="spacing" textLength="130" x="597.5" y="348.8477">double getRotation()</text><ellipse cx="588.5" cy="363.1719" fill="#84BE84" rx="3" ry="3" style="stroke:#038048;stroke-width:1.0;"/><text fill="#000000" font-family="sans-serif" font-size="14" lengthAdjust="spacing" textLength="128" x="597.5" y="367.4688">Vector2D getScale()</text><ellipse cx="588.5" cy="381.793" fill="#84BE84" rx="3" ry="3" style="stroke:#038048;stroke-width:1.0;"/><text fill="#000000" font-family="sans-serif" font-size="14" lengthAdjust="spacing" textLength="120" x="597.5" y="386.0898">Image getTexture()</text><ellipse cx="588.5" cy="400.4141" fill="#84BE84" rx="3" ry="3" style="stroke:#038048;stroke-width:1.0;"/><text fill="#000000" font-family="sans-serif" font-size="14" lengthAdjust="spacing" textLength="164" x="597.5" y="404.7109">Transform getTransform()</text><ellipse cx="588.5" cy="419.0352" fill="#84BE84" rx="3" ry="3" style="stroke:#038048;stroke-width:1.0;"/><text fill="#000000" font-family="sans-serif" font-size="14" lengthAdjust="spacing" textLength="85" x="597.5" y="423.332">double getX()</text><ellipse cx="588.5" cy="437.6563" fill="#84BE84" rx="3" ry="3" style="stroke:#038048;stroke-width:1.0;"/><text fill="#000000" font-family="sans-serif" font-size="14" lengthAdjust="spacing" textLength="86" x="597.5" y="441.9531">double getY()</text><ellipse cx="588.5" cy="456.2773" fill="#84BE84" rx="3" ry="3" style="stroke:#038048;stroke-width:1.0;"/><text fill="#000000" font-family="sans-serif" font-size="14" lengthAdjust="spacing" textLength="113" x="597.5" y="460.5742">double getWidth()</text><ellipse cx="588.5" cy="474.8984" fill="#84BE84" rx="3" ry="3" style="stroke:#038048;stroke-width:1.0;"/><text fill="#000000" font-family="sans-serif" font-size="14" lengthAdjust="spacing" textLength="168" x="597.5" y="479.1953">ImageView getImageView()</text><ellipse cx="588.5" cy="493.5195" fill="#84BE84" rx="3" ry="3" style="stroke:#038048;stroke-width:1.0;"/><text fill="#000000" font-family="sans-serif" font-size="14" lengthAdjust="spacing" textLength="142" x="597.5" y="497.8164">void setHeight(double)</text><ellipse cx="588.5" cy="512.1406" fill="#84BE84" rx="3" ry="3" style="stroke:#038048;stroke-width:1.0;"/><text fill="#000000" font-family="sans-serif" font-size="14" lengthAdjust="spacing" textLength="135" x="597.5" y="516.4375">void setModel(Model)</text><ellipse cx="588.5" cy="530.7617" fill="#84BE84" rx="3" ry="3" style="stroke:#038048;stroke-width:1.0;"/><text fill="#000000" font-family="sans-serif" font-size="14" lengthAdjust="spacing" textLength="168" x="597.5" y="535.0586">void setPosition(Vector2D)</text><ellipse cx="588.5" cy="549.3828" fill="#84BE84" rx="3" ry="3" style="stroke:#038048;stroke-width:1.0;"/><text fill="#000000" font-family="sans-serif" font-size="14" lengthAdjust="spacing" textLength="155" x="597.5" y="553.6797">void setRotation(double)</text><ellipse cx="588.5" cy="568.0039" fill="#84BE84" rx="3" ry="3" style="stroke:#038048;stroke-width:1.0;"/><text fill="#000000" font-family="sans-serif" font-size="14" lengthAdjust="spacing" textLength="153" x="597.5" y="572.3008">void setScale(Vector2D)</text><ellipse cx="588.5" cy="586.625" fill="#84BE84" rx="3" ry="3" style="stroke:#038048;stroke-width:1.0;"/><text fill="#000000" font-family="sans-serif" font-size="14" lengthAdjust="spacing" textLength="145" x="597.5" y="590.9219">void setTexture(Image)</text><ellipse cx="588.5" cy="605.2461" fill="#84BE84" rx="3" ry="3" style="stroke:#038048;stroke-width:1.0;"/><text fill="#000000" font-family="sans-serif" font-size="14" lengthAdjust="spacing" textLength="144" x="597.5" y="609.543">void setTexture(String)</text><ellipse cx="588.5" cy="623.8672" fill="#84BE84" rx="3" ry="3" style="stroke:#038048;stroke-width:1.0;"/><text fill="#000000" font-family="sans-serif" font-size="14" lengthAdjust="spacing" textLength="189" x="597.5" y="628.1641">void setTransform(Transform)</text><ellipse cx="588.5" cy="642.4883" fill="#84BE84" rx="3" ry="3" style="stroke:#038048;stroke-width:1.0;"/><text fill="#000000" font-family="sans-serif" font-size="14" lengthAdjust="spacing" textLength="110" x="597.5" y="646.7852">void setX(double)</text><ellipse cx="588.5" cy="661.1094" fill="#84BE84" rx="3" ry="3" style="stroke:#038048;stroke-width:1.0;"/><text fill="#000000" font-family="sans-serif" font-size="14" lengthAdjust="spacing" textLength="111" x="597.5" y="665.4063">void setY(double)</text><ellipse cx="588.5" cy="679.7305" fill="#84BE84" rx="3" ry="3" style="stroke:#038048;stroke-width:1.0;"/><text fill="#000000" font-family="sans-serif" font-size="14" lengthAdjust="spacing" textLength="138" x="597.5" y="684.0273">void setWidth(double)</text><ellipse cx="588.5" cy="698.3516" fill="#84BE84" rx="3" ry="3" style="stroke:#038048;stroke-width:1.0;"/><text fill="#000000" font-family="sans-serif" font-size="14" lengthAdjust="spacing" textLength="193" x="597.5" y="702.6484">void setImageView(ImageView)</text></g><!--reverse link View to MapView--><g id="link_View_MapView"><path codeLine="52" d="M569.72,727.1237 C558.43,754.2837 548.24,778.8037 540.28,797.9537 " fill="none" id="View-backto-MapView" style="stroke:#181818;stroke-width:1.0;"/><polygon fill="none" points="563.35,724.2037,577.5,708.4237,576.28,729.5837,563.35,724.2037" style="stroke:#181818;stroke-width:1.0;"/></g><!--reverse link View to FavoritesView--><g id="link_View_FavoritesView"><path codeLine="53" d="M562.11,554.2637 C469.78,635.0137 349.16,740.5337 283.55,797.9237 " fill="none" id="View-backto-FavoritesView" style="stroke:#181818;stroke-width:1.0;"/><polygon fill="none" points="557.59,548.9137,577.25,541.0137,566.8,559.4537,557.59,548.9137" style="stroke:#181818;stroke-width:1.0;"/></g><!--reverse link View to GymView--><g id="link_View_GymView"><path codeLine="54" d="M812.45,545.1937 C900.42,615.4437 1015.8,707.5837 1093.85,769.9137 " fill="none" id="View-backto-GymView" style="stroke:#181818;stroke-width:1.0;"/><polygon fill="none" points="807.89,550.5137,796.63,532.5637,816.63,539.5737,807.89,550.5137" style="stroke:#181818;stroke-width:1.0;"/></g><!--reverse link View to PropertiesMenuView--><g id="link_View_PropertiesMenuView"><path codeLine="55" d="M804.35,727.2837 C810.65,742.4437 816.6,756.7637 822.02,769.7937 " fill="none" id="View-backto-PropertiesMenuView" style="stroke:#181818;stroke-width:1.0;"/><polygon fill="none" points="797.72,729.5837,796.5,708.4237,810.65,724.2037,797.72,729.5837" style="stroke:#181818;stroke-width:1.0;"/></g><!--SRC=[dLJBRi8m4BpdAtm48JZqZBYqq790840KZiRP1ajn5jbEA7rzUuETTmojkCJUcVNkp2On2wbIXA4O16UnbpXWN9y72OVJO48Jb5o3sgGH-VHwP3Xyb40rZ4QaHdQwjyWYcg4FOTVxzjZrfZDwTBNBu6QZ74xN_nHVI3o2r3oL0b7iwjFEQBPqPDIXJ4YF9CXzuajgIvX8Wi049X95LhflSUhxIqFDex5Yz0ZZ12BT-SFEyrcuF6HmKtWEfsjTuWUYc4QTMZoFTGce0vvAZqOLtIijATFaXhnCsmynxOYuFEkIxBjppyl7U1y22K2_00yELewjb69cOw0DC8touUc2Bb1npJ5g55YYfWLSpLyn6e91fu869dSDxpgM5bnB6gatbC8GUT0elct4kqRyodrzA7kOeQHm4LJ6N5Yrfwk4zLiVbQeOpbrLoS9skvmrxZgK-pVwNCHAInu5DQQOJB6hqbj7_vq3iuDgu-MaYjtb2_IkVtF3htx_vkrorzdQfNPNXUmFlEji-zhv1G00]--></g></svg>