<?xml version="1.0" encoding="us-ascii" standalone="no"?><svg xmlns="http://www.w3.org/2000/svg" xmlns:xlink="http://www.w3.org/1999/xlink" contentStyleType="text/css" height="465px" preserveAspectRatio="none" style="width:397px;height:465px;background:#FFFFFF;" version="1.1" viewBox="0 0 397 465" width="397px" zoomAndPan="magnify"><defs/><g><!--cluster com--><g id="cluster_com"><path d="M8.5,200.0137 L38.5,200.0137 A3.75,3.75 0 0 1 41,202.5137 L48,224.6348 L387.5,224.6348 A2.5,2.5 0 0 1 390,227.1348 L390,455.5137 A2.5,2.5 0 0 1 387.5,458.0137 L8.5,458.0137 A2.5,2.5 0 0 1 6,455.5137 L6,202.5137 A2.5,2.5 0 0 1 8.5,200.0137 " fill="none" style="stroke:#000000;stroke-width:1.5;"/><line style="stroke:#000000;stroke-width:1.5;" x1="6" x2="48" y1="224.6348" y2="224.6348"/><text fill="#000000" font-family="sans-serif" font-size="14" font-weight="bold" lengthAdjust="spacing" textLength="29" x="10" y="217.1211">com</text></g><!--cluster gymbro--><g id="cluster_gymbro"><path d="M32.5,245.0137 L85.5,245.0137 A3.75,3.75 0 0 1 88,247.5137 L95,269.6348 L363.5,269.6348 A2.5,2.5 0 0 1 366,272.1348 L366,431.5137 A2.5,2.5 0 0 1 363.5,434.0137 L32.5,434.0137 A2.5,2.5 0 0 1 30,431.5137 L30,247.5137 A2.5,2.5 0 0 1 32.5,245.0137 " fill="none" style="stroke:#000000;stroke-width:1.5;"/><line style="stroke:#000000;stroke-width:1.5;" x1="30" x2="95" y1="269.6348" y2="269.6348"/><text fill="#000000" font-family="sans-serif" font-size="14" font-weight="bold" lengthAdjust="spacing" textLength="52" x="34" y="262.1211">gymbro</text></g><!--cluster utils--><g id="cluster_utils"><path d="M56.5,290.0137 L87.5,290.0137 A3.75,3.75 0 0 1 90,292.5137 L97,314.6348 L339.5,314.6348 A2.5,2.5 0 0 1 342,317.1348 L342,407.5137 A2.5,2.5 0 0 1 339.5,410.0137 L56.5,410.0137 A2.5,2.5 0 0 1 54,407.5137 L54,292.5137 A2.5,2.5 0 0 1 56.5,290.0137 " fill="none" style="stroke:#000000;stroke-width:1.5;"/><line style="stroke:#000000;stroke-width:1.5;" x1="54" x2="97" y1="314.6348" y2="314.6348"/><text fill="#000000" font-family="sans-serif" font-size="14" font-weight="bold" lengthAdjust="spacing" textLength="30" x="58" y="307.1211">utils</text></g><!--cluster java--><g id="cluster_java"><path d="M113.5,6.0137 L143.5,6.0137 A3.75,3.75 0 0 1 146,8.5137 L153,30.6348 L282.5,30.6348 A2.5,2.5 0 0 1 285,33.1348 L285,173.5137 A2.5,2.5 0 0 1 282.5,176.0137 L113.5,176.0137 A2.5,2.5 0 0 1 111,173.5137 L111,8.5137 A2.5,2.5 0 0 1 113.5,6.0137 " fill="none" style="stroke:#000000;stroke-width:1.5;"/><line style="stroke:#000000;stroke-width:1.5;" x1="111" x2="153" y1="30.6348" y2="30.6348"/><text fill="#000000" font-family="sans-serif" font-size="14" font-weight="bold" lengthAdjust="spacing" textLength="29" x="115" y="23.1211">java</text></g><!--cluster lang--><g id="cluster_lang"><path d="M137.5,51.0137 L168.5,51.0137 A3.75,3.75 0 0 1 171,53.5137 L178,75.6348 L258.5,75.6348 A2.5,2.5 0 0 1 261,78.1348 L261,149.5137 A2.5,2.5 0 0 1 258.5,152.0137 L137.5,152.0137 A2.5,2.5 0 0 1 135,149.5137 L135,53.5137 A2.5,2.5 0 0 1 137.5,51.0137 " fill="none" style="stroke:#000000;stroke-width:1.5;"/><line style="stroke:#000000;stroke-width:1.5;" x1="135" x2="178" y1="75.6348" y2="75.6348"/><text fill="#000000" font-family="sans-serif" font-size="14" font-weight="bold" lengthAdjust="spacing" textLength="30" x="139" y="68.1211">lang</text></g><!--class FileNameException--><g id="elem_FileNameException"><rect codeLine="2" fill="#F1F1F1" height="66.6211" id="FileNameException" rx="2.5" ry="2.5" style="stroke:#181818;stroke-width:0.5;" width="256" x="70" y="327.0137"/><ellipse cx="133.75" cy="343.0137" fill="#ADD1B2" rx="11" ry="11" style="stroke:#181818;stroke-width:1.0;"/><path d="M136.5156,338.8887 Q136.6719,338.6699 136.8594,338.5605 Q137.0469,338.4512 137.2656,338.4512 Q137.6406,338.4512 137.875,338.7168 Q138.1094,338.9668 138.1094,339.5762 L138.1094,341.0293 Q138.1094,341.6387 137.875,341.9043 Q137.6406,342.1699 137.2656,342.1699 Q136.9219,342.1699 136.7188,341.9668 Q136.5156,341.7793 136.4063,341.2637 Q136.3594,340.9043 136.1719,340.7168 Q135.8438,340.3418 135.2344,340.123 Q134.625,339.9043 134,339.9043 Q133.2344,339.9043 132.5938,340.2324 Q131.9688,340.5605 131.4688,341.3105 Q130.9844,342.0605 130.9844,343.0918 L130.9844,344.1855 Q130.9844,345.4199 131.875,346.248 Q132.7656,347.0605 134.3594,347.0605 Q135.2969,347.0605 135.9531,346.8105 Q136.3438,346.6543 136.7656,346.2168 Q137.0313,345.9512 137.1719,345.873 Q137.3281,345.7949 137.5313,345.7949 Q137.8594,345.7949 138.1094,346.0605 Q138.375,346.3105 138.375,346.6543 Q138.375,346.998 138.0313,347.4043 Q137.5313,347.9824 136.7344,348.3105 Q135.6563,348.7637 134.3594,348.7637 Q132.8438,348.7637 131.6406,348.1387 Q130.6563,347.6387 129.9688,346.5762 Q129.2813,345.498 129.2813,344.2168 L129.2813,343.0605 Q129.2813,341.7324 129.8906,340.5918 Q130.5156,339.4355 131.6094,338.8262 Q132.7031,338.2012 133.9375,338.2012 Q134.6719,338.2012 135.3125,338.373 Q135.9688,338.5293 136.5156,338.8887 Z " fill="#000000"/><text fill="#000000" font-family="sans-serif" font-size="14" lengthAdjust="spacing" textLength="120" x="154.25" y="348.8105">FileNameException</text><line style="stroke:#181818;stroke-width:0.5;" x1="71" x2="325" y1="359.0137" y2="359.0137"/><line style="stroke:#181818;stroke-width:0.5;" x1="71" x2="325" y1="367.0137" y2="367.0137"/><ellipse cx="81" cy="381.8242" fill="#84BE84" rx="3" ry="3" style="stroke:#038048;stroke-width:1.0;"/><text fill="#000000" font-family="sans-serif" font-size="14" lengthAdjust="spacing" textLength="230" x="90" y="386.1211">&#171;Create&#187; FileNameException(String)</text></g><!--class Exception--><g id="elem_Exception"><rect fill="#F1F1F1" height="48" id="Exception" rx="2.5" ry="2.5" style="stroke:#181818;stroke-width:0.5;" width="93" x="151.5" y="88.0137"/><ellipse cx="166.5" cy="104.0137" fill="#ADD1B2" rx="11" ry="11" style="stroke:#181818;stroke-width:1.0;"/><path d="M169.2656,99.8887 Q169.4219,99.6699 169.6094,99.5605 Q169.7969,99.4512 170.0156,99.4512 Q170.3906,99.4512 170.625,99.7168 Q170.8594,99.9668 170.8594,100.5762 L170.8594,102.0293 Q170.8594,102.6387 170.625,102.9043 Q170.3906,103.1699 170.0156,103.1699 Q169.6719,103.1699 169.4688,102.9668 Q169.2656,102.7793 169.1563,102.2637 Q169.1094,101.9043 168.9219,101.7168 Q168.5938,101.3418 167.9844,101.123 Q167.375,100.9043 166.75,100.9043 Q165.9844,100.9043 165.3438,101.2324 Q164.7188,101.5605 164.2188,102.3105 Q163.7344,103.0605 163.7344,104.0918 L163.7344,105.1855 Q163.7344,106.4199 164.625,107.248 Q165.5156,108.0605 167.1094,108.0605 Q168.0469,108.0605 168.7031,107.8105 Q169.0938,107.6543 169.5156,107.2168 Q169.7813,106.9512 169.9219,106.873 Q170.0781,106.7949 170.2813,106.7949 Q170.6094,106.7949 170.8594,107.0605 Q171.125,107.3105 171.125,107.6543 Q171.125,107.998 170.7813,108.4043 Q170.2813,108.9824 169.4844,109.3105 Q168.4063,109.7637 167.1094,109.7637 Q165.5938,109.7637 164.3906,109.1387 Q163.4063,108.6387 162.7188,107.5762 Q162.0313,106.498 162.0313,105.2168 L162.0313,104.0605 Q162.0313,102.7324 162.6406,101.5918 Q163.2656,100.4355 164.3594,99.8262 Q165.4531,99.2012 166.6875,99.2012 Q167.4219,99.2012 168.0625,99.373 Q168.7188,99.5293 169.2656,99.8887 Z " fill="#000000"/><text fill="#000000" font-family="sans-serif" font-size="14" lengthAdjust="spacing" textLength="61" x="180.5" y="109.8105">Exception</text><line style="stroke:#181818;stroke-width:0.5;" x1="152.5" x2="243.5" y1="120.0137" y2="120.0137"/><line style="stroke:#181818;stroke-width:0.5;" x1="152.5" x2="243.5" y1="128.0137" y2="128.0137"/></g><!--reverse link Exception to FileNameException--><g id="link_Exception_FileNameException"><path codeLine="6" d="M198,156.2937 C198,205.0237 198,283.0837 198,326.9237 " fill="none" id="Exception-backto-FileNameException" style="stroke:#181818;stroke-width:1.0;"/><polygon fill="none" points="191,156.2037,198,136.2037,205,156.2037,191,156.2037" style="stroke:#181818;stroke-width:1.0;"/></g><!--SRC=[Iyv9B2vMICxFrKklp4qgojShBSdCATPpoyn9zKlCJNMjI4ujACdCprEevj9MiB5nBafDB4crirF0KA0HN5AKcPUkoLNBnPMLM9QebvEObww7q6zJewjBX3q0]--></g></svg>