<?xml version="1.0" encoding="us-ascii" standalone="no"?><svg xmlns="http://www.w3.org/2000/svg" xmlns:xlink="http://www.w3.org/1999/xlink" contentStyleType="text/css" height="465px" preserveAspectRatio="none" style="width:713px;height:465px;background:#FFFFFF;" version="1.1" viewBox="0 0 713 465" width="713px" zoomAndPan="magnify"><defs/><g><!--cluster com--><g id="cluster_com"><path d="M8.5,200.0137 L38.5,200.0137 A3.75,3.75 0 0 1 41,202.5137 L48,224.6348 L703.5,224.6348 A2.5,2.5 0 0 1 706,227.1348 L706,455.5137 A2.5,2.5 0 0 1 703.5,458.0137 L8.5,458.0137 A2.5,2.5 0 0 1 6,455.5137 L6,202.5137 A2.5,2.5 0 0 1 8.5,200.0137 " fill="none" style="stroke:#000000;stroke-width:1.5;"/><line style="stroke:#000000;stroke-width:1.5;" x1="6" x2="48" y1="224.6348" y2="224.6348"/><text fill="#000000" font-family="sans-serif" font-size="14" font-weight="bold" lengthAdjust="spacing" textLength="29" x="10" y="217.1211">com</text></g><!--cluster gymbro--><g id="cluster_gymbro"><path d="M32.5,245.0137 L85.5,245.0137 A3.75,3.75 0 0 1 88,247.5137 L95,269.6348 L679.5,269.6348 A2.5,2.5 0 0 1 682,272.1348 L682,431.5137 A2.5,2.5 0 0 1 679.5,434.0137 L32.5,434.0137 A2.5,2.5 0 0 1 30,431.5137 L30,247.5137 A2.5,2.5 0 0 1 32.5,245.0137 " fill="none" style="stroke:#000000;stroke-width:1.5;"/><line style="stroke:#000000;stroke-width:1.5;" x1="30" x2="95" y1="269.6348" y2="269.6348"/><text fill="#000000" font-family="sans-serif" font-size="14" font-weight="bold" lengthAdjust="spacing" textLength="52" x="34" y="262.1211">gymbro</text></g><!--cluster utils--><g id="cluster_utils"><path d="M56.5,290.0137 L87.5,290.0137 A3.75,3.75 0 0 1 90,292.5137 L97,314.6348 L655.5,314.6348 A2.5,2.5 0 0 1 658,317.1348 L658,407.5137 A2.5,2.5 0 0 1 655.5,410.0137 L56.5,410.0137 A2.5,2.5 0 0 1 54,407.5137 L54,292.5137 A2.5,2.5 0 0 1 56.5,290.0137 " fill="none" style="stroke:#000000;stroke-width:1.5;"/><line style="stroke:#000000;stroke-width:1.5;" x1="54" x2="97" y1="314.6348" y2="314.6348"/><text fill="#000000" font-family="sans-serif" font-size="14" font-weight="bold" lengthAdjust="spacing" textLength="30" x="58" y="307.1211">utils</text></g><!--cluster java--><g id="cluster_java"><path d="M237.5,6.0137 L267.5,6.0137 A3.75,3.75 0 0 1 270,8.5137 L277,30.6348 L458.5,30.6348 A2.5,2.5 0 0 1 461,33.1348 L461,173.5137 A2.5,2.5 0 0 1 458.5,176.0137 L237.5,176.0137 A2.5,2.5 0 0 1 235,173.5137 L235,8.5137 A2.5,2.5 0 0 1 237.5,6.0137 " fill="none" style="stroke:#000000;stroke-width:1.5;"/><line style="stroke:#000000;stroke-width:1.5;" x1="235" x2="277" y1="30.6348" y2="30.6348"/><text fill="#000000" font-family="sans-serif" font-size="14" font-weight="bold" lengthAdjust="spacing" textLength="29" x="239" y="23.1211">java</text></g><!--cluster lang--><g id="cluster_lang"><path d="M261.5,51.0137 L292.5,51.0137 A3.75,3.75 0 0 1 295,53.5137 L302,75.6348 L434.5,75.6348 A2.5,2.5 0 0 1 437,78.1348 L437,149.5137 A2.5,2.5 0 0 1 434.5,152.0137 L261.5,152.0137 A2.5,2.5 0 0 1 259,149.5137 L259,53.5137 A2.5,2.5 0 0 1 261.5,51.0137 " fill="none" style="stroke:#000000;stroke-width:1.5;"/><line style="stroke:#000000;stroke-width:1.5;" x1="259" x2="302" y1="75.6348" y2="75.6348"/><text fill="#000000" font-family="sans-serif" font-size="14" font-weight="bold" lengthAdjust="spacing" textLength="30" x="263" y="68.1211">lang</text></g><!--class UnknownGymException--><g id="elem_UnknownGymException"><rect codeLine="2" fill="#F1F1F1" height="66.6211" id="UnknownGymException" rx="2.5" ry="2.5" style="stroke:#181818;stroke-width:0.5;" width="283" x="358.5" y="327.0137"/><ellipse cx="422.25" cy="343.0137" fill="#ADD1B2" rx="11" ry="11" style="stroke:#181818;stroke-width:1.0;"/><path d="M425.0156,338.8887 Q425.1719,338.6699 425.3594,338.5605 Q425.5469,338.4512 425.7656,338.4512 Q426.1406,338.4512 426.375,338.7168 Q426.6094,338.9668 426.6094,339.5762 L426.6094,341.0293 Q426.6094,341.6387 426.375,341.9043 Q426.1406,342.1699 425.7656,342.1699 Q425.4219,342.1699 425.2188,341.9668 Q425.0156,341.7793 424.9063,341.2637 Q424.8594,340.9043 424.6719,340.7168 Q424.3438,340.3418 423.7344,340.123 Q423.125,339.9043 422.5,339.9043 Q421.7344,339.9043 421.0938,340.2324 Q420.4688,340.5605 419.9688,341.3105 Q419.4844,342.0605 419.4844,343.0918 L419.4844,344.1855 Q419.4844,345.4199 420.375,346.248 Q421.2656,347.0605 422.8594,347.0605 Q423.7969,347.0605 424.4531,346.8105 Q424.8438,346.6543 425.2656,346.2168 Q425.5313,345.9512 425.6719,345.873 Q425.8281,345.7949 426.0313,345.7949 Q426.3594,345.7949 426.6094,346.0605 Q426.875,346.3105 426.875,346.6543 Q426.875,346.998 426.5313,347.4043 Q426.0313,347.9824 425.2344,348.3105 Q424.1563,348.7637 422.8594,348.7637 Q421.3438,348.7637 420.1406,348.1387 Q419.1563,347.6387 418.4688,346.5762 Q417.7813,345.498 417.7813,344.2168 L417.7813,343.0605 Q417.7813,341.7324 418.3906,340.5918 Q419.0156,339.4355 420.1094,338.8262 Q421.2031,338.2012 422.4375,338.2012 Q423.1719,338.2012 423.8125,338.373 Q424.4688,338.5293 425.0156,338.8887 Z " fill="#000000"/><text fill="#000000" font-family="sans-serif" font-size="14" lengthAdjust="spacing" textLength="147" x="442.75" y="348.8105">UnknownGymException</text><line style="stroke:#181818;stroke-width:0.5;" x1="359.5" x2="640.5" y1="359.0137" y2="359.0137"/><line style="stroke:#181818;stroke-width:0.5;" x1="359.5" x2="640.5" y1="367.0137" y2="367.0137"/><ellipse cx="369.5" cy="381.8242" fill="#84BE84" rx="3" ry="3" style="stroke:#038048;stroke-width:1.0;"/><text fill="#000000" font-family="sans-serif" font-size="14" lengthAdjust="spacing" textLength="257" x="378.5" y="386.1211">&#171;Create&#187; UnknownGymException(String)</text></g><!--class WriteFileException--><g id="elem_WriteFileException"><rect codeLine="5" fill="#F1F1F1" height="66.6211" id="WriteFileException" rx="2.5" ry="2.5" style="stroke:#181818;stroke-width:0.5;" width="253" x="70.5" y="327.0137"/><ellipse cx="134.25" cy="343.0137" fill="#ADD1B2" rx="11" ry="11" style="stroke:#181818;stroke-width:1.0;"/><path d="M137.0156,338.8887 Q137.1719,338.6699 137.3594,338.5605 Q137.5469,338.4512 137.7656,338.4512 Q138.1406,338.4512 138.375,338.7168 Q138.6094,338.9668 138.6094,339.5762 L138.6094,341.0293 Q138.6094,341.6387 138.375,341.9043 Q138.1406,342.1699 137.7656,342.1699 Q137.4219,342.1699 137.2188,341.9668 Q137.0156,341.7793 136.9063,341.2637 Q136.8594,340.9043 136.6719,340.7168 Q136.3438,340.3418 135.7344,340.123 Q135.125,339.9043 134.5,339.9043 Q133.7344,339.9043 133.0938,340.2324 Q132.4688,340.5605 131.9688,341.3105 Q131.4844,342.0605 131.4844,343.0918 L131.4844,344.1855 Q131.4844,345.4199 132.375,346.248 Q133.2656,347.0605 134.8594,347.0605 Q135.7969,347.0605 136.4531,346.8105 Q136.8438,346.6543 137.2656,346.2168 Q137.5313,345.9512 137.6719,345.873 Q137.8281,345.7949 138.0313,345.7949 Q138.3594,345.7949 138.6094,346.0605 Q138.875,346.3105 138.875,346.6543 Q138.875,346.998 138.5313,347.4043 Q138.0313,347.9824 137.2344,348.3105 Q136.1563,348.7637 134.8594,348.7637 Q133.3438,348.7637 132.1406,348.1387 Q131.1563,347.6387 130.4688,346.5762 Q129.7813,345.498 129.7813,344.2168 L129.7813,343.0605 Q129.7813,341.7324 130.3906,340.5918 Q131.0156,339.4355 132.1094,338.8262 Q133.2031,338.2012 134.4375,338.2012 Q135.1719,338.2012 135.8125,338.373 Q136.4688,338.5293 137.0156,338.8887 Z " fill="#000000"/><text fill="#000000" font-family="sans-serif" font-size="14" lengthAdjust="spacing" textLength="117" x="154.75" y="348.8105">WriteFileException</text><line style="stroke:#181818;stroke-width:0.5;" x1="71.5" x2="322.5" y1="359.0137" y2="359.0137"/><line style="stroke:#181818;stroke-width:0.5;" x1="71.5" x2="322.5" y1="367.0137" y2="367.0137"/><ellipse cx="81.5" cy="381.8242" fill="#84BE84" rx="3" ry="3" style="stroke:#038048;stroke-width:1.0;"/><text fill="#000000" font-family="sans-serif" font-size="14" lengthAdjust="spacing" textLength="227" x="90.5" y="386.1211">&#171;Create&#187; WriteFileException(String)</text></g><!--class RuntimeException--><g id="elem_RuntimeException"><rect fill="#F1F1F1" height="48" id="RuntimeException" rx="2.5" ry="2.5" style="stroke:#181818;stroke-width:0.5;" width="145" x="275.5" y="88.0137"/><ellipse cx="290.5" cy="104.0137" fill="#ADD1B2" rx="11" ry="11" style="stroke:#181818;stroke-width:1.0;"/><path d="M293.2656,99.8887 Q293.4219,99.6699 293.6094,99.5605 Q293.7969,99.4512 294.0156,99.4512 Q294.3906,99.4512 294.625,99.7168 Q294.8594,99.9668 294.8594,100.5762 L294.8594,102.0293 Q294.8594,102.6387 294.625,102.9043 Q294.3906,103.1699 294.0156,103.1699 Q293.6719,103.1699 293.4688,102.9668 Q293.2656,102.7793 293.1563,102.2637 Q293.1094,101.9043 292.9219,101.7168 Q292.5938,101.3418 291.9844,101.123 Q291.375,100.9043 290.75,100.9043 Q289.9844,100.9043 289.3438,101.2324 Q288.7188,101.5605 288.2188,102.3105 Q287.7344,103.0605 287.7344,104.0918 L287.7344,105.1855 Q287.7344,106.4199 288.625,107.248 Q289.5156,108.0605 291.1094,108.0605 Q292.0469,108.0605 292.7031,107.8105 Q293.0938,107.6543 293.5156,107.2168 Q293.7813,106.9512 293.9219,106.873 Q294.0781,106.7949 294.2813,106.7949 Q294.6094,106.7949 294.8594,107.0605 Q295.125,107.3105 295.125,107.6543 Q295.125,107.998 294.7813,108.4043 Q294.2813,108.9824 293.4844,109.3105 Q292.4063,109.7637 291.1094,109.7637 Q289.5938,109.7637 288.3906,109.1387 Q287.4063,108.6387 286.7188,107.5762 Q286.0313,106.498 286.0313,105.2168 L286.0313,104.0605 Q286.0313,102.7324 286.6406,101.5918 Q287.2656,100.4355 288.3594,99.8262 Q289.4531,99.2012 290.6875,99.2012 Q291.4219,99.2012 292.0625,99.373 Q292.7188,99.5293 293.2656,99.8887 Z " fill="#000000"/><text fill="#000000" font-family="sans-serif" font-size="14" lengthAdjust="spacing" textLength="113" x="304.5" y="109.8105">RuntimeException</text><line style="stroke:#181818;stroke-width:0.5;" x1="276.5" x2="419.5" y1="120.0137" y2="120.0137"/><line style="stroke:#181818;stroke-width:0.5;" x1="276.5" x2="419.5" y1="128.0137" y2="128.0137"/></g><!--reverse link RuntimeException to UnknownGymException--><g id="link_RuntimeException_UnknownGymException"><path codeLine="9" d="M372.89,153.3737 C402.78,201.8437 452.33,282.2037 479.9,326.9237 " fill="none" id="RuntimeException-backto-UnknownGymException" style="stroke:#181818;stroke-width:1.0;"/><polygon fill="none" points="366.84,156.9037,362.3,136.2037,378.76,149.5537,366.84,156.9037" style="stroke:#181818;stroke-width:1.0;"/></g><!--reverse link RuntimeException to WriteFileException--><g id="link_RuntimeException_WriteFileException"><path codeLine="10" d="M323.28,153.3737 C293.58,201.8437 244.36,282.2037 216.96,326.9237 " fill="none" id="RuntimeException-backto-WriteFileException" style="stroke:#181818;stroke-width:1.0;"/><polygon fill="none" points="317.38,149.6037,333.79,136.2037,329.32,156.9137,317.38,149.6037" style="stroke:#181818;stroke-width:1.0;"/></g><!--SRC=[Iyv9B2vMICxFrKklp4qgojShBSdCATOBpSlEoo_FSw_CTQr8JYqeoSpFKwZcqbQmiN4kIaqiIRMpKy2YH2Euf2WpBrsJgvOh6RkvuKMP9QbkcJcfE8t5L85aAbTMObcYNavYNhfUK6bUIMOkaZasDRgwH7c4T4CmtGG0]--></g></svg>