<?xml version="1.0" encoding="us-ascii" standalone="no"?><svg xmlns="http://www.w3.org/2000/svg" xmlns:xlink="http://www.w3.org/1999/xlink" contentStyleType="text/css" height="509px" preserveAspectRatio="none" style="width:395px;height:509px;background:#FFFFFF;" version="1.1" viewBox="0 0 395 509" width="395px" zoomAndPan="magnify"><defs/><g><!--cluster com--><g id="cluster_com"><path d="M8.5,6.0137 L38.5,6.0137 A3.75,3.75 0 0 1 41,8.5137 L48,30.6348 L385.5,30.6348 A2.5,2.5 0 0 1 388,33.1348 L388,499.5137 A2.5,2.5 0 0 1 385.5,502.0137 L8.5,502.0137 A2.5,2.5 0 0 1 6,499.5137 L6,8.5137 A2.5,2.5 0 0 1 8.5,6.0137 " fill="none" style="stroke:#000000;stroke-width:1.5;"/><line style="stroke:#000000;stroke-width:1.5;" x1="6" x2="48" y1="30.6348" y2="30.6348"/><text fill="#000000" font-family="sans-serif" font-size="14" font-weight="bold" lengthAdjust="spacing" textLength="29" x="10" y="23.1211">com</text></g><!--cluster gymbro--><g id="cluster_gymbro"><path d="M32.5,51.0137 L85.5,51.0137 A3.75,3.75 0 0 1 88,53.5137 L95,75.6348 L361.5,75.6348 A2.5,2.5 0 0 1 364,78.1348 L364,475.5137 A2.5,2.5 0 0 1 361.5,478.0137 L32.5,478.0137 A2.5,2.5 0 0 1 30,475.5137 L30,53.5137 A2.5,2.5 0 0 1 32.5,51.0137 " fill="none" style="stroke:#000000;stroke-width:1.5;"/><line style="stroke:#000000;stroke-width:1.5;" x1="30" x2="95" y1="75.6348" y2="75.6348"/><text fill="#000000" font-family="sans-serif" font-size="14" font-weight="bold" lengthAdjust="spacing" textLength="52" x="34" y="68.1211">gymbro</text></g><!--cluster setups--><g id="cluster_setups"><path d="M56.5,96.0137 L105.5,96.0137 A3.75,3.75 0 0 1 108,98.5137 L115,120.6348 L337.5,120.6348 A2.5,2.5 0 0 1 340,123.1348 L340,451.5137 A2.5,2.5 0 0 1 337.5,454.0137 L56.5,454.0137 A2.5,2.5 0 0 1 54,451.5137 L54,98.5137 A2.5,2.5 0 0 1 56.5,96.0137 " fill="none" style="stroke:#000000;stroke-width:1.5;"/><line style="stroke:#000000;stroke-width:1.5;" x1="54" x2="115" y1="120.6348" y2="120.6348"/><text fill="#000000" font-family="sans-serif" font-size="14" font-weight="bold" lengthAdjust="spacing" textLength="48" x="58" y="113.1211">setups</text></g><!--class SetupFavorites--><g id="elem_SetupFavorites"><rect codeLine="1" fill="#F1F1F1" height="66.6211" id="SetupFavorites" rx="2.5" ry="2.5" style="stroke:#181818;stroke-width:0.5;" width="254" x="70" y="371.0137"/><ellipse cx="144.75" cy="387.0137" fill="#ADD1B2" rx="11" ry="11" style="stroke:#181818;stroke-width:1.0;"/><path d="M147.5156,382.8887 Q147.6719,382.6699 147.8594,382.5605 Q148.0469,382.4512 148.2656,382.4512 Q148.6406,382.4512 148.875,382.7168 Q149.1094,382.9668 149.1094,383.5762 L149.1094,385.0293 Q149.1094,385.6387 148.875,385.9043 Q148.6406,386.1699 148.2656,386.1699 Q147.9219,386.1699 147.7188,385.9668 Q147.5156,385.7793 147.4063,385.2637 Q147.3594,384.9043 147.1719,384.7168 Q146.8438,384.3418 146.2344,384.123 Q145.625,383.9043 145,383.9043 Q144.2344,383.9043 143.5938,384.2324 Q142.9688,384.5605 142.4688,385.3105 Q141.9844,386.0605 141.9844,387.0918 L141.9844,388.1855 Q141.9844,389.4199 142.875,390.248 Q143.7656,391.0605 145.3594,391.0605 Q146.2969,391.0605 146.9531,390.8105 Q147.3438,390.6543 147.7656,390.2168 Q148.0313,389.9512 148.1719,389.873 Q148.3281,389.7949 148.5313,389.7949 Q148.8594,389.7949 149.1094,390.0605 Q149.375,390.3105 149.375,390.6543 Q149.375,390.998 149.0313,391.4043 Q148.5313,391.9824 147.7344,392.3105 Q146.6563,392.7637 145.3594,392.7637 Q143.8438,392.7637 142.6406,392.1387 Q141.6563,391.6387 140.9688,390.5762 Q140.2813,389.498 140.2813,388.2168 L140.2813,387.0605 Q140.2813,385.7324 140.8906,384.5918 Q141.5156,383.4355 142.6094,382.8262 Q143.7031,382.2012 144.9375,382.2012 Q145.6719,382.2012 146.3125,382.373 Q146.9688,382.5293 147.5156,382.8887 Z " fill="#000000"/><text fill="#000000" font-family="sans-serif" font-size="14" lengthAdjust="spacing" textLength="96" x="165.25" y="392.8105">SetupFavorites</text><line style="stroke:#181818;stroke-width:0.5;" x1="71" x2="323" y1="403.0137" y2="403.0137"/><line style="stroke:#181818;stroke-width:0.5;" x1="71" x2="323" y1="411.0137" y2="411.0137"/><ellipse cx="81" cy="425.8242" fill="#84BE84" rx="3" ry="3" style="stroke:#038048;stroke-width:1.0;"/><text fill="#000000" font-family="sans-serif" font-size="14" lengthAdjust="spacing" textLength="228" x="90" y="430.1211">List&lt;GymController&gt; initializeGyms()</text></g><!--class Setup--><g id="elem_Setup"><rect codeLine="4" fill="#F1F1F1" height="178.3477" id="Setup" rx="2.5" ry="2.5" style="stroke:#181818;stroke-width:0.5;" width="254" x="70" y="133.0137"/><ellipse cx="174.25" cy="149.0137" fill="#ADD1B2" rx="11" ry="11" style="stroke:#181818;stroke-width:1.0;"/><path d="M177.0156,144.8887 Q177.1719,144.6699 177.3594,144.5605 Q177.5469,144.4512 177.7656,144.4512 Q178.1406,144.4512 178.375,144.7168 Q178.6094,144.9668 178.6094,145.5762 L178.6094,147.0293 Q178.6094,147.6387 178.375,147.9043 Q178.1406,148.1699 177.7656,148.1699 Q177.4219,148.1699 177.2188,147.9668 Q177.0156,147.7793 176.9063,147.2637 Q176.8594,146.9043 176.6719,146.7168 Q176.3438,146.3418 175.7344,146.123 Q175.125,145.9043 174.5,145.9043 Q173.7344,145.9043 173.0938,146.2324 Q172.4688,146.5605 171.9688,147.3105 Q171.4844,148.0605 171.4844,149.0918 L171.4844,150.1855 Q171.4844,151.4199 172.375,152.248 Q173.2656,153.0605 174.8594,153.0605 Q175.7969,153.0605 176.4531,152.8105 Q176.8438,152.6543 177.2656,152.2168 Q177.5313,151.9512 177.6719,151.873 Q177.8281,151.7949 178.0313,151.7949 Q178.3594,151.7949 178.6094,152.0605 Q178.875,152.3105 178.875,152.6543 Q178.875,152.998 178.5313,153.4043 Q178.0313,153.9824 177.2344,154.3105 Q176.1563,154.7637 174.8594,154.7637 Q173.3438,154.7637 172.1406,154.1387 Q171.1563,153.6387 170.4688,152.5762 Q169.7813,151.498 169.7813,150.2168 L169.7813,149.0605 Q169.7813,147.7324 170.3906,146.5918 Q171.0156,145.4355 172.1094,144.8262 Q173.2031,144.2012 174.4375,144.2012 Q175.1719,144.2012 175.8125,144.373 Q176.4688,144.5293 177.0156,144.8887 Z " fill="#000000"/><text fill="#000000" font-family="sans-serif" font-size="14" lengthAdjust="spacing" textLength="37" x="194.75" y="154.8105">Setup</text><line style="stroke:#181818;stroke-width:0.5;" x1="71" x2="323" y1="165.0137" y2="165.0137"/><rect fill="none" height="6" style="stroke:#C82930;stroke-width:1.0;" width="6" x="78" y="176.8242"/><text fill="#000000" font-family="sans-serif" font-size="14" lengthAdjust="spacing" textLength="120" x="90" y="184.1211">MapController map</text><line style="stroke:#181818;stroke-width:0.5;" x1="71" x2="323" y1="191.6348" y2="191.6348"/><ellipse cx="81" cy="206.4453" fill="#84BE84" rx="3" ry="3" style="stroke:#038048;stroke-width:1.0;"/><text fill="#000000" font-family="sans-serif" font-size="14" lengthAdjust="spacing" textLength="110" x="90" y="210.7422">&#171;Create&#187; Setup()</text><ellipse cx="81" cy="225.0664" fill="#84BE84" rx="3" ry="3" style="stroke:#038048;stroke-width:1.0;"/><text fill="#000000" font-family="sans-serif" font-size="14" lengthAdjust="spacing" textLength="199" x="90" y="229.3633">&#171;Create&#187; Setup(MapController)</text><ellipse cx="81" cy="243.6875" fill="#84BE84" rx="3" ry="3" style="stroke:#038048;stroke-width:1.0;"/><text fill="#000000" font-family="sans-serif" font-size="14" lengthAdjust="spacing" textLength="116" x="90" y="247.9844">void initializeMap()</text><ellipse cx="81" cy="262.3086" fill="#84BE84" rx="3" ry="3" style="stroke:#038048;stroke-width:1.0;"/><text fill="#000000" font-family="sans-serif" font-size="14" lengthAdjust="spacing" textLength="228" x="90" y="266.6055">List&lt;GymController&gt; initializeGyms()</text><ellipse cx="81" cy="280.9297" fill="#84BE84" rx="3" ry="3" style="stroke:#038048;stroke-width:1.0;"/><text fill="#000000" font-family="sans-serif" font-size="14" lengthAdjust="spacing" textLength="150" x="90" y="285.2266">MapController getMap()</text><ellipse cx="81" cy="299.5508" fill="#84BE84" rx="3" ry="3" style="stroke:#038048;stroke-width:1.0;"/><text fill="#000000" font-family="sans-serif" font-size="14" lengthAdjust="spacing" textLength="175" x="90" y="303.8477">void setMap(MapController)</text></g><!--reverse link Setup to SetupFavorites--><g id="link_Setup_SetupFavorites"><path codeLine="13" d="M197,331.5037 C197,345.7237 197,359.3037 197,370.7637 " fill="none" id="Setup-backto-SetupFavorites" style="stroke:#181818;stroke-width:1.0;"/><polygon fill="none" points="190,331.1437,197,311.1437,204,331.1437,190,331.1437" style="stroke:#181818;stroke-width:1.0;"/></g><!--SRC=[ZP1B2i9038RtFKMMIfcUO9XDGJUwyWHZ3IKmqocJM6ZLkpkjY5fyhK8U_vS_gPnbXYhuekxzFeQ2KOuj5xinh6mN8WaodB8SDiIYrxqlGoCnE8VH03KaP1qDc1gyM6QNhFf6J205Mzi-6E1jc-1Qbn6je34m3IRKc-ABSfpe0XsUJAJ-9FpBQZupKgFSzHEMR_biPphmmsdwhDJFJru1]--></g></svg>